%TF.GenerationSoftware,KiCad,Pcbnew,10.0.1*%
%TF.CreationDate,2026-05-29T19:02:44+05:30*%
%TF.ProjectId,rc-car,72632d63-6172-42e6-9b69-6361645f7063,rev?*%
%TF.SameCoordinates,Original*%
%TF.FileFunction,Legend,Top*%
%TF.FilePolarity,Positive*%
%FSLAX46Y46*%
G04 Gerber Fmt 4.6, Leading zero omitted, Abs format (unit mm)*
G04 Created by KiCad (PCBNEW 10.0.1) date 2026-05-29 19:02:44*
%MOMM*%
%LPD*%
G01*
G04 APERTURE LIST*
%ADD10C,0.100000*%
%ADD11C,0.150000*%
%ADD12C,0.120000*%
%ADD13C,0.127000*%
%ADD14C,0.200000*%
%ADD15C,0.000000*%
G04 APERTURE END LIST*
D10*
X140355987Y-136667442D02*
X141323606Y-136667442D01*
X140162463Y-137248013D02*
X140839797Y-135216013D01*
X140839797Y-135216013D02*
X141517130Y-137248013D01*
X143162082Y-137248013D02*
X142194463Y-137248013D01*
X142194463Y-137248013D02*
X142194463Y-135216013D01*
X143742653Y-136667442D02*
X144710272Y-136667442D01*
X143549129Y-137248013D02*
X144226463Y-135216013D01*
X144226463Y-135216013D02*
X144903796Y-137248013D01*
X145968177Y-135216013D02*
X146355224Y-135216013D01*
X146355224Y-135216013D02*
X146548748Y-135312775D01*
X146548748Y-135312775D02*
X146742272Y-135506299D01*
X146742272Y-135506299D02*
X146839034Y-135893347D01*
X146839034Y-135893347D02*
X146839034Y-136570680D01*
X146839034Y-136570680D02*
X146742272Y-136957728D01*
X146742272Y-136957728D02*
X146548748Y-137151252D01*
X146548748Y-137151252D02*
X146355224Y-137248013D01*
X146355224Y-137248013D02*
X145968177Y-137248013D01*
X145968177Y-137248013D02*
X145774653Y-137151252D01*
X145774653Y-137151252D02*
X145581129Y-136957728D01*
X145581129Y-136957728D02*
X145484367Y-136570680D01*
X145484367Y-136570680D02*
X145484367Y-135893347D01*
X145484367Y-135893347D02*
X145581129Y-135506299D01*
X145581129Y-135506299D02*
X145774653Y-135312775D01*
X145774653Y-135312775D02*
X145968177Y-135216013D01*
X147419605Y-135216013D02*
X148580748Y-135216013D01*
X148000177Y-137248013D02*
X148000177Y-135216013D01*
X149161319Y-136667442D02*
X150128938Y-136667442D01*
X148967795Y-137248013D02*
X149645129Y-135216013D01*
X149645129Y-135216013D02*
X150322462Y-137248013D01*
X152160938Y-137054490D02*
X152064176Y-137151252D01*
X152064176Y-137151252D02*
X151773890Y-137248013D01*
X151773890Y-137248013D02*
X151580366Y-137248013D01*
X151580366Y-137248013D02*
X151290081Y-137151252D01*
X151290081Y-137151252D02*
X151096557Y-136957728D01*
X151096557Y-136957728D02*
X150999795Y-136764204D01*
X150999795Y-136764204D02*
X150903033Y-136377156D01*
X150903033Y-136377156D02*
X150903033Y-136086871D01*
X150903033Y-136086871D02*
X150999795Y-135699823D01*
X150999795Y-135699823D02*
X151096557Y-135506299D01*
X151096557Y-135506299D02*
X151290081Y-135312775D01*
X151290081Y-135312775D02*
X151580366Y-135216013D01*
X151580366Y-135216013D02*
X151773890Y-135216013D01*
X151773890Y-135216013D02*
X152064176Y-135312775D01*
X152064176Y-135312775D02*
X152160938Y-135409537D01*
X153031795Y-137248013D02*
X153031795Y-135216013D01*
X153031795Y-136183632D02*
X154192938Y-136183632D01*
X154192938Y-137248013D02*
X154192938Y-135216013D01*
D11*
X153687542Y-115015180D02*
X153639923Y-115062800D01*
X153639923Y-115062800D02*
X153497066Y-115110419D01*
X153497066Y-115110419D02*
X153401828Y-115110419D01*
X153401828Y-115110419D02*
X153258971Y-115062800D01*
X153258971Y-115062800D02*
X153163733Y-114967561D01*
X153163733Y-114967561D02*
X153116114Y-114872323D01*
X153116114Y-114872323D02*
X153068495Y-114681847D01*
X153068495Y-114681847D02*
X153068495Y-114538990D01*
X153068495Y-114538990D02*
X153116114Y-114348514D01*
X153116114Y-114348514D02*
X153163733Y-114253276D01*
X153163733Y-114253276D02*
X153258971Y-114158038D01*
X153258971Y-114158038D02*
X153401828Y-114110419D01*
X153401828Y-114110419D02*
X153497066Y-114110419D01*
X153497066Y-114110419D02*
X153639923Y-114158038D01*
X153639923Y-114158038D02*
X153687542Y-114205657D01*
X154544685Y-114443752D02*
X154544685Y-115110419D01*
X154306590Y-114062800D02*
X154068495Y-114777085D01*
X154068495Y-114777085D02*
X154687542Y-114777085D01*
X154973257Y-114110419D02*
X155592304Y-114110419D01*
X155592304Y-114110419D02*
X155258971Y-114491371D01*
X155258971Y-114491371D02*
X155401828Y-114491371D01*
X155401828Y-114491371D02*
X155497066Y-114538990D01*
X155497066Y-114538990D02*
X155544685Y-114586609D01*
X155544685Y-114586609D02*
X155592304Y-114681847D01*
X155592304Y-114681847D02*
X155592304Y-114919942D01*
X155592304Y-114919942D02*
X155544685Y-115015180D01*
X155544685Y-115015180D02*
X155497066Y-115062800D01*
X155497066Y-115062800D02*
X155401828Y-115110419D01*
X155401828Y-115110419D02*
X155116114Y-115110419D01*
X155116114Y-115110419D02*
X155020876Y-115062800D01*
X155020876Y-115062800D02*
X154973257Y-115015180D01*
X105642942Y-104231619D02*
X105309609Y-103755428D01*
X105071514Y-104231619D02*
X105071514Y-103231619D01*
X105071514Y-103231619D02*
X105452466Y-103231619D01*
X105452466Y-103231619D02*
X105547704Y-103279238D01*
X105547704Y-103279238D02*
X105595323Y-103326857D01*
X105595323Y-103326857D02*
X105642942Y-103422095D01*
X105642942Y-103422095D02*
X105642942Y-103564952D01*
X105642942Y-103564952D02*
X105595323Y-103660190D01*
X105595323Y-103660190D02*
X105547704Y-103707809D01*
X105547704Y-103707809D02*
X105452466Y-103755428D01*
X105452466Y-103755428D02*
X105071514Y-103755428D01*
X106595323Y-104231619D02*
X106023895Y-104231619D01*
X106309609Y-104231619D02*
X106309609Y-103231619D01*
X106309609Y-103231619D02*
X106214371Y-103374476D01*
X106214371Y-103374476D02*
X106119133Y-103469714D01*
X106119133Y-103469714D02*
X106023895Y-103517333D01*
X106976276Y-103326857D02*
X107023895Y-103279238D01*
X107023895Y-103279238D02*
X107119133Y-103231619D01*
X107119133Y-103231619D02*
X107357228Y-103231619D01*
X107357228Y-103231619D02*
X107452466Y-103279238D01*
X107452466Y-103279238D02*
X107500085Y-103326857D01*
X107500085Y-103326857D02*
X107547704Y-103422095D01*
X107547704Y-103422095D02*
X107547704Y-103517333D01*
X107547704Y-103517333D02*
X107500085Y-103660190D01*
X107500085Y-103660190D02*
X106928657Y-104231619D01*
X106928657Y-104231619D02*
X107547704Y-104231619D01*
X126920666Y-77432819D02*
X126920666Y-78147104D01*
X126920666Y-78147104D02*
X126873047Y-78289961D01*
X126873047Y-78289961D02*
X126777809Y-78385200D01*
X126777809Y-78385200D02*
X126634952Y-78432819D01*
X126634952Y-78432819D02*
X126539714Y-78432819D01*
X127825428Y-77432819D02*
X127634952Y-77432819D01*
X127634952Y-77432819D02*
X127539714Y-77480438D01*
X127539714Y-77480438D02*
X127492095Y-77528057D01*
X127492095Y-77528057D02*
X127396857Y-77670914D01*
X127396857Y-77670914D02*
X127349238Y-77861390D01*
X127349238Y-77861390D02*
X127349238Y-78242342D01*
X127349238Y-78242342D02*
X127396857Y-78337580D01*
X127396857Y-78337580D02*
X127444476Y-78385200D01*
X127444476Y-78385200D02*
X127539714Y-78432819D01*
X127539714Y-78432819D02*
X127730190Y-78432819D01*
X127730190Y-78432819D02*
X127825428Y-78385200D01*
X127825428Y-78385200D02*
X127873047Y-78337580D01*
X127873047Y-78337580D02*
X127920666Y-78242342D01*
X127920666Y-78242342D02*
X127920666Y-78004247D01*
X127920666Y-78004247D02*
X127873047Y-77909009D01*
X127873047Y-77909009D02*
X127825428Y-77861390D01*
X127825428Y-77861390D02*
X127730190Y-77813771D01*
X127730190Y-77813771D02*
X127539714Y-77813771D01*
X127539714Y-77813771D02*
X127444476Y-77861390D01*
X127444476Y-77861390D02*
X127396857Y-77909009D01*
X127396857Y-77909009D02*
X127349238Y-78004247D01*
X178681142Y-108941580D02*
X178633523Y-108989200D01*
X178633523Y-108989200D02*
X178490666Y-109036819D01*
X178490666Y-109036819D02*
X178395428Y-109036819D01*
X178395428Y-109036819D02*
X178252571Y-108989200D01*
X178252571Y-108989200D02*
X178157333Y-108893961D01*
X178157333Y-108893961D02*
X178109714Y-108798723D01*
X178109714Y-108798723D02*
X178062095Y-108608247D01*
X178062095Y-108608247D02*
X178062095Y-108465390D01*
X178062095Y-108465390D02*
X178109714Y-108274914D01*
X178109714Y-108274914D02*
X178157333Y-108179676D01*
X178157333Y-108179676D02*
X178252571Y-108084438D01*
X178252571Y-108084438D02*
X178395428Y-108036819D01*
X178395428Y-108036819D02*
X178490666Y-108036819D01*
X178490666Y-108036819D02*
X178633523Y-108084438D01*
X178633523Y-108084438D02*
X178681142Y-108132057D01*
X179062095Y-108132057D02*
X179109714Y-108084438D01*
X179109714Y-108084438D02*
X179204952Y-108036819D01*
X179204952Y-108036819D02*
X179443047Y-108036819D01*
X179443047Y-108036819D02*
X179538285Y-108084438D01*
X179538285Y-108084438D02*
X179585904Y-108132057D01*
X179585904Y-108132057D02*
X179633523Y-108227295D01*
X179633523Y-108227295D02*
X179633523Y-108322533D01*
X179633523Y-108322533D02*
X179585904Y-108465390D01*
X179585904Y-108465390D02*
X179014476Y-109036819D01*
X179014476Y-109036819D02*
X179633523Y-109036819D01*
X179966857Y-108036819D02*
X180585904Y-108036819D01*
X180585904Y-108036819D02*
X180252571Y-108417771D01*
X180252571Y-108417771D02*
X180395428Y-108417771D01*
X180395428Y-108417771D02*
X180490666Y-108465390D01*
X180490666Y-108465390D02*
X180538285Y-108513009D01*
X180538285Y-108513009D02*
X180585904Y-108608247D01*
X180585904Y-108608247D02*
X180585904Y-108846342D01*
X180585904Y-108846342D02*
X180538285Y-108941580D01*
X180538285Y-108941580D02*
X180490666Y-108989200D01*
X180490666Y-108989200D02*
X180395428Y-109036819D01*
X180395428Y-109036819D02*
X180109714Y-109036819D01*
X180109714Y-109036819D02*
X180014476Y-108989200D01*
X180014476Y-108989200D02*
X179966857Y-108941580D01*
X135585295Y-75388419D02*
X135585295Y-76197942D01*
X135585295Y-76197942D02*
X135632914Y-76293180D01*
X135632914Y-76293180D02*
X135680533Y-76340800D01*
X135680533Y-76340800D02*
X135775771Y-76388419D01*
X135775771Y-76388419D02*
X135966247Y-76388419D01*
X135966247Y-76388419D02*
X136061485Y-76340800D01*
X136061485Y-76340800D02*
X136109104Y-76293180D01*
X136109104Y-76293180D02*
X136156723Y-76197942D01*
X136156723Y-76197942D02*
X136156723Y-75388419D01*
X136585295Y-75483657D02*
X136632914Y-75436038D01*
X136632914Y-75436038D02*
X136728152Y-75388419D01*
X136728152Y-75388419D02*
X136966247Y-75388419D01*
X136966247Y-75388419D02*
X137061485Y-75436038D01*
X137061485Y-75436038D02*
X137109104Y-75483657D01*
X137109104Y-75483657D02*
X137156723Y-75578895D01*
X137156723Y-75578895D02*
X137156723Y-75674133D01*
X137156723Y-75674133D02*
X137109104Y-75816990D01*
X137109104Y-75816990D02*
X136537676Y-76388419D01*
X136537676Y-76388419D02*
X137156723Y-76388419D01*
X143425942Y-109985980D02*
X143378323Y-110033600D01*
X143378323Y-110033600D02*
X143235466Y-110081219D01*
X143235466Y-110081219D02*
X143140228Y-110081219D01*
X143140228Y-110081219D02*
X142997371Y-110033600D01*
X142997371Y-110033600D02*
X142902133Y-109938361D01*
X142902133Y-109938361D02*
X142854514Y-109843123D01*
X142854514Y-109843123D02*
X142806895Y-109652647D01*
X142806895Y-109652647D02*
X142806895Y-109509790D01*
X142806895Y-109509790D02*
X142854514Y-109319314D01*
X142854514Y-109319314D02*
X142902133Y-109224076D01*
X142902133Y-109224076D02*
X142997371Y-109128838D01*
X142997371Y-109128838D02*
X143140228Y-109081219D01*
X143140228Y-109081219D02*
X143235466Y-109081219D01*
X143235466Y-109081219D02*
X143378323Y-109128838D01*
X143378323Y-109128838D02*
X143425942Y-109176457D01*
X143806895Y-109176457D02*
X143854514Y-109128838D01*
X143854514Y-109128838D02*
X143949752Y-109081219D01*
X143949752Y-109081219D02*
X144187847Y-109081219D01*
X144187847Y-109081219D02*
X144283085Y-109128838D01*
X144283085Y-109128838D02*
X144330704Y-109176457D01*
X144330704Y-109176457D02*
X144378323Y-109271695D01*
X144378323Y-109271695D02*
X144378323Y-109366933D01*
X144378323Y-109366933D02*
X144330704Y-109509790D01*
X144330704Y-109509790D02*
X143759276Y-110081219D01*
X143759276Y-110081219D02*
X144378323Y-110081219D01*
X144711657Y-109081219D02*
X145378323Y-109081219D01*
X145378323Y-109081219D02*
X144949752Y-110081219D01*
X143515619Y-80665533D02*
X144229904Y-80665533D01*
X144229904Y-80665533D02*
X144372761Y-80713152D01*
X144372761Y-80713152D02*
X144468000Y-80808390D01*
X144468000Y-80808390D02*
X144515619Y-80951247D01*
X144515619Y-80951247D02*
X144515619Y-81046485D01*
X143515619Y-80284580D02*
X143515619Y-79665533D01*
X143515619Y-79665533D02*
X143896571Y-79998866D01*
X143896571Y-79998866D02*
X143896571Y-79856009D01*
X143896571Y-79856009D02*
X143944190Y-79760771D01*
X143944190Y-79760771D02*
X143991809Y-79713152D01*
X143991809Y-79713152D02*
X144087047Y-79665533D01*
X144087047Y-79665533D02*
X144325142Y-79665533D01*
X144325142Y-79665533D02*
X144420380Y-79713152D01*
X144420380Y-79713152D02*
X144468000Y-79760771D01*
X144468000Y-79760771D02*
X144515619Y-79856009D01*
X144515619Y-79856009D02*
X144515619Y-80141723D01*
X144515619Y-80141723D02*
X144468000Y-80236961D01*
X144468000Y-80236961D02*
X144420380Y-80284580D01*
X175480742Y-112779980D02*
X175433123Y-112827600D01*
X175433123Y-112827600D02*
X175290266Y-112875219D01*
X175290266Y-112875219D02*
X175195028Y-112875219D01*
X175195028Y-112875219D02*
X175052171Y-112827600D01*
X175052171Y-112827600D02*
X174956933Y-112732361D01*
X174956933Y-112732361D02*
X174909314Y-112637123D01*
X174909314Y-112637123D02*
X174861695Y-112446647D01*
X174861695Y-112446647D02*
X174861695Y-112303790D01*
X174861695Y-112303790D02*
X174909314Y-112113314D01*
X174909314Y-112113314D02*
X174956933Y-112018076D01*
X174956933Y-112018076D02*
X175052171Y-111922838D01*
X175052171Y-111922838D02*
X175195028Y-111875219D01*
X175195028Y-111875219D02*
X175290266Y-111875219D01*
X175290266Y-111875219D02*
X175433123Y-111922838D01*
X175433123Y-111922838D02*
X175480742Y-111970457D01*
X175861695Y-111970457D02*
X175909314Y-111922838D01*
X175909314Y-111922838D02*
X176004552Y-111875219D01*
X176004552Y-111875219D02*
X176242647Y-111875219D01*
X176242647Y-111875219D02*
X176337885Y-111922838D01*
X176337885Y-111922838D02*
X176385504Y-111970457D01*
X176385504Y-111970457D02*
X176433123Y-112065695D01*
X176433123Y-112065695D02*
X176433123Y-112160933D01*
X176433123Y-112160933D02*
X176385504Y-112303790D01*
X176385504Y-112303790D02*
X175814076Y-112875219D01*
X175814076Y-112875219D02*
X176433123Y-112875219D01*
X177290266Y-112208552D02*
X177290266Y-112875219D01*
X177052171Y-111827600D02*
X176814076Y-112541885D01*
X176814076Y-112541885D02*
X177433123Y-112541885D01*
X130664095Y-83718919D02*
X130664095Y-84528442D01*
X130664095Y-84528442D02*
X130711714Y-84623680D01*
X130711714Y-84623680D02*
X130759333Y-84671300D01*
X130759333Y-84671300D02*
X130854571Y-84718919D01*
X130854571Y-84718919D02*
X131045047Y-84718919D01*
X131045047Y-84718919D02*
X131140285Y-84671300D01*
X131140285Y-84671300D02*
X131187904Y-84623680D01*
X131187904Y-84623680D02*
X131235523Y-84528442D01*
X131235523Y-84528442D02*
X131235523Y-83718919D01*
X131759333Y-84718919D02*
X131949809Y-84718919D01*
X131949809Y-84718919D02*
X132045047Y-84671300D01*
X132045047Y-84671300D02*
X132092666Y-84623680D01*
X132092666Y-84623680D02*
X132187904Y-84480823D01*
X132187904Y-84480823D02*
X132235523Y-84290347D01*
X132235523Y-84290347D02*
X132235523Y-83909395D01*
X132235523Y-83909395D02*
X132187904Y-83814157D01*
X132187904Y-83814157D02*
X132140285Y-83766538D01*
X132140285Y-83766538D02*
X132045047Y-83718919D01*
X132045047Y-83718919D02*
X131854571Y-83718919D01*
X131854571Y-83718919D02*
X131759333Y-83766538D01*
X131759333Y-83766538D02*
X131711714Y-83814157D01*
X131711714Y-83814157D02*
X131664095Y-83909395D01*
X131664095Y-83909395D02*
X131664095Y-84147490D01*
X131664095Y-84147490D02*
X131711714Y-84242728D01*
X131711714Y-84242728D02*
X131759333Y-84290347D01*
X131759333Y-84290347D02*
X131854571Y-84337966D01*
X131854571Y-84337966D02*
X132045047Y-84337966D01*
X132045047Y-84337966D02*
X132140285Y-84290347D01*
X132140285Y-84290347D02*
X132187904Y-84242728D01*
X132187904Y-84242728D02*
X132235523Y-84147490D01*
X107053142Y-82082819D02*
X106719809Y-81606628D01*
X106481714Y-82082819D02*
X106481714Y-81082819D01*
X106481714Y-81082819D02*
X106862666Y-81082819D01*
X106862666Y-81082819D02*
X106957904Y-81130438D01*
X106957904Y-81130438D02*
X107005523Y-81178057D01*
X107005523Y-81178057D02*
X107053142Y-81273295D01*
X107053142Y-81273295D02*
X107053142Y-81416152D01*
X107053142Y-81416152D02*
X107005523Y-81511390D01*
X107005523Y-81511390D02*
X106957904Y-81559009D01*
X106957904Y-81559009D02*
X106862666Y-81606628D01*
X106862666Y-81606628D02*
X106481714Y-81606628D01*
X108005523Y-82082819D02*
X107434095Y-82082819D01*
X107719809Y-82082819D02*
X107719809Y-81082819D01*
X107719809Y-81082819D02*
X107624571Y-81225676D01*
X107624571Y-81225676D02*
X107529333Y-81320914D01*
X107529333Y-81320914D02*
X107434095Y-81368533D01*
X108957904Y-82082819D02*
X108386476Y-82082819D01*
X108672190Y-82082819D02*
X108672190Y-81082819D01*
X108672190Y-81082819D02*
X108576952Y-81225676D01*
X108576952Y-81225676D02*
X108481714Y-81320914D01*
X108481714Y-81320914D02*
X108386476Y-81368533D01*
X165010819Y-68461904D02*
X165820342Y-68461904D01*
X165820342Y-68461904D02*
X165915580Y-68414285D01*
X165915580Y-68414285D02*
X165963200Y-68366666D01*
X165963200Y-68366666D02*
X166010819Y-68271428D01*
X166010819Y-68271428D02*
X166010819Y-68080952D01*
X166010819Y-68080952D02*
X165963200Y-67985714D01*
X165963200Y-67985714D02*
X165915580Y-67938095D01*
X165915580Y-67938095D02*
X165820342Y-67890476D01*
X165820342Y-67890476D02*
X165010819Y-67890476D01*
X165010819Y-67509523D02*
X165010819Y-66890476D01*
X165010819Y-66890476D02*
X165391771Y-67223809D01*
X165391771Y-67223809D02*
X165391771Y-67080952D01*
X165391771Y-67080952D02*
X165439390Y-66985714D01*
X165439390Y-66985714D02*
X165487009Y-66938095D01*
X165487009Y-66938095D02*
X165582247Y-66890476D01*
X165582247Y-66890476D02*
X165820342Y-66890476D01*
X165820342Y-66890476D02*
X165915580Y-66938095D01*
X165915580Y-66938095D02*
X165963200Y-66985714D01*
X165963200Y-66985714D02*
X166010819Y-67080952D01*
X166010819Y-67080952D02*
X166010819Y-67366666D01*
X166010819Y-67366666D02*
X165963200Y-67461904D01*
X165963200Y-67461904D02*
X165915580Y-67509523D01*
X182478142Y-119137580D02*
X182430523Y-119185200D01*
X182430523Y-119185200D02*
X182287666Y-119232819D01*
X182287666Y-119232819D02*
X182192428Y-119232819D01*
X182192428Y-119232819D02*
X182049571Y-119185200D01*
X182049571Y-119185200D02*
X181954333Y-119089961D01*
X181954333Y-119089961D02*
X181906714Y-118994723D01*
X181906714Y-118994723D02*
X181859095Y-118804247D01*
X181859095Y-118804247D02*
X181859095Y-118661390D01*
X181859095Y-118661390D02*
X181906714Y-118470914D01*
X181906714Y-118470914D02*
X181954333Y-118375676D01*
X181954333Y-118375676D02*
X182049571Y-118280438D01*
X182049571Y-118280438D02*
X182192428Y-118232819D01*
X182192428Y-118232819D02*
X182287666Y-118232819D01*
X182287666Y-118232819D02*
X182430523Y-118280438D01*
X182430523Y-118280438D02*
X182478142Y-118328057D01*
X183430523Y-119232819D02*
X182859095Y-119232819D01*
X183144809Y-119232819D02*
X183144809Y-118232819D01*
X183144809Y-118232819D02*
X183049571Y-118375676D01*
X183049571Y-118375676D02*
X182954333Y-118470914D01*
X182954333Y-118470914D02*
X182859095Y-118518533D01*
X183811476Y-118328057D02*
X183859095Y-118280438D01*
X183859095Y-118280438D02*
X183954333Y-118232819D01*
X183954333Y-118232819D02*
X184192428Y-118232819D01*
X184192428Y-118232819D02*
X184287666Y-118280438D01*
X184287666Y-118280438D02*
X184335285Y-118328057D01*
X184335285Y-118328057D02*
X184382904Y-118423295D01*
X184382904Y-118423295D02*
X184382904Y-118518533D01*
X184382904Y-118518533D02*
X184335285Y-118661390D01*
X184335285Y-118661390D02*
X183763857Y-119232819D01*
X183763857Y-119232819D02*
X184382904Y-119232819D01*
X135742142Y-69571580D02*
X135694523Y-69619200D01*
X135694523Y-69619200D02*
X135551666Y-69666819D01*
X135551666Y-69666819D02*
X135456428Y-69666819D01*
X135456428Y-69666819D02*
X135313571Y-69619200D01*
X135313571Y-69619200D02*
X135218333Y-69523961D01*
X135218333Y-69523961D02*
X135170714Y-69428723D01*
X135170714Y-69428723D02*
X135123095Y-69238247D01*
X135123095Y-69238247D02*
X135123095Y-69095390D01*
X135123095Y-69095390D02*
X135170714Y-68904914D01*
X135170714Y-68904914D02*
X135218333Y-68809676D01*
X135218333Y-68809676D02*
X135313571Y-68714438D01*
X135313571Y-68714438D02*
X135456428Y-68666819D01*
X135456428Y-68666819D02*
X135551666Y-68666819D01*
X135551666Y-68666819D02*
X135694523Y-68714438D01*
X135694523Y-68714438D02*
X135742142Y-68762057D01*
X136694523Y-69666819D02*
X136123095Y-69666819D01*
X136408809Y-69666819D02*
X136408809Y-68666819D01*
X136408809Y-68666819D02*
X136313571Y-68809676D01*
X136313571Y-68809676D02*
X136218333Y-68904914D01*
X136218333Y-68904914D02*
X136123095Y-68952533D01*
X137551666Y-69000152D02*
X137551666Y-69666819D01*
X137313571Y-68619200D02*
X137075476Y-69333485D01*
X137075476Y-69333485D02*
X137694523Y-69333485D01*
X159178666Y-67874819D02*
X159178666Y-68589104D01*
X159178666Y-68589104D02*
X159131047Y-68731961D01*
X159131047Y-68731961D02*
X159035809Y-68827200D01*
X159035809Y-68827200D02*
X158892952Y-68874819D01*
X158892952Y-68874819D02*
X158797714Y-68874819D01*
X160178666Y-68874819D02*
X159607238Y-68874819D01*
X159892952Y-68874819D02*
X159892952Y-67874819D01*
X159892952Y-67874819D02*
X159797714Y-68017676D01*
X159797714Y-68017676D02*
X159702476Y-68112914D01*
X159702476Y-68112914D02*
X159607238Y-68160533D01*
X146464142Y-103473580D02*
X146416523Y-103521200D01*
X146416523Y-103521200D02*
X146273666Y-103568819D01*
X146273666Y-103568819D02*
X146178428Y-103568819D01*
X146178428Y-103568819D02*
X146035571Y-103521200D01*
X146035571Y-103521200D02*
X145940333Y-103425961D01*
X145940333Y-103425961D02*
X145892714Y-103330723D01*
X145892714Y-103330723D02*
X145845095Y-103140247D01*
X145845095Y-103140247D02*
X145845095Y-102997390D01*
X145845095Y-102997390D02*
X145892714Y-102806914D01*
X145892714Y-102806914D02*
X145940333Y-102711676D01*
X145940333Y-102711676D02*
X146035571Y-102616438D01*
X146035571Y-102616438D02*
X146178428Y-102568819D01*
X146178428Y-102568819D02*
X146273666Y-102568819D01*
X146273666Y-102568819D02*
X146416523Y-102616438D01*
X146416523Y-102616438D02*
X146464142Y-102664057D01*
X146845095Y-102664057D02*
X146892714Y-102616438D01*
X146892714Y-102616438D02*
X146987952Y-102568819D01*
X146987952Y-102568819D02*
X147226047Y-102568819D01*
X147226047Y-102568819D02*
X147321285Y-102616438D01*
X147321285Y-102616438D02*
X147368904Y-102664057D01*
X147368904Y-102664057D02*
X147416523Y-102759295D01*
X147416523Y-102759295D02*
X147416523Y-102854533D01*
X147416523Y-102854533D02*
X147368904Y-102997390D01*
X147368904Y-102997390D02*
X146797476Y-103568819D01*
X146797476Y-103568819D02*
X147416523Y-103568819D01*
X148321285Y-102568819D02*
X147845095Y-102568819D01*
X147845095Y-102568819D02*
X147797476Y-103045009D01*
X147797476Y-103045009D02*
X147845095Y-102997390D01*
X147845095Y-102997390D02*
X147940333Y-102949771D01*
X147940333Y-102949771D02*
X148178428Y-102949771D01*
X148178428Y-102949771D02*
X148273666Y-102997390D01*
X148273666Y-102997390D02*
X148321285Y-103045009D01*
X148321285Y-103045009D02*
X148368904Y-103140247D01*
X148368904Y-103140247D02*
X148368904Y-103378342D01*
X148368904Y-103378342D02*
X148321285Y-103473580D01*
X148321285Y-103473580D02*
X148273666Y-103521200D01*
X148273666Y-103521200D02*
X148178428Y-103568819D01*
X148178428Y-103568819D02*
X147940333Y-103568819D01*
X147940333Y-103568819D02*
X147845095Y-103521200D01*
X147845095Y-103521200D02*
X147797476Y-103473580D01*
X180071733Y-105109180D02*
X180024114Y-105156800D01*
X180024114Y-105156800D02*
X179881257Y-105204419D01*
X179881257Y-105204419D02*
X179786019Y-105204419D01*
X179786019Y-105204419D02*
X179643162Y-105156800D01*
X179643162Y-105156800D02*
X179547924Y-105061561D01*
X179547924Y-105061561D02*
X179500305Y-104966323D01*
X179500305Y-104966323D02*
X179452686Y-104775847D01*
X179452686Y-104775847D02*
X179452686Y-104632990D01*
X179452686Y-104632990D02*
X179500305Y-104442514D01*
X179500305Y-104442514D02*
X179547924Y-104347276D01*
X179547924Y-104347276D02*
X179643162Y-104252038D01*
X179643162Y-104252038D02*
X179786019Y-104204419D01*
X179786019Y-104204419D02*
X179881257Y-104204419D01*
X179881257Y-104204419D02*
X180024114Y-104252038D01*
X180024114Y-104252038D02*
X180071733Y-104299657D01*
X180405067Y-104204419D02*
X181024114Y-104204419D01*
X181024114Y-104204419D02*
X180690781Y-104585371D01*
X180690781Y-104585371D02*
X180833638Y-104585371D01*
X180833638Y-104585371D02*
X180928876Y-104632990D01*
X180928876Y-104632990D02*
X180976495Y-104680609D01*
X180976495Y-104680609D02*
X181024114Y-104775847D01*
X181024114Y-104775847D02*
X181024114Y-105013942D01*
X181024114Y-105013942D02*
X180976495Y-105109180D01*
X180976495Y-105109180D02*
X180928876Y-105156800D01*
X180928876Y-105156800D02*
X180833638Y-105204419D01*
X180833638Y-105204419D02*
X180547924Y-105204419D01*
X180547924Y-105204419D02*
X180452686Y-105156800D01*
X180452686Y-105156800D02*
X180405067Y-105109180D01*
X182997819Y-61388523D02*
X183712104Y-61388523D01*
X183712104Y-61388523D02*
X183854961Y-61436142D01*
X183854961Y-61436142D02*
X183950200Y-61531380D01*
X183950200Y-61531380D02*
X183997819Y-61674237D01*
X183997819Y-61674237D02*
X183997819Y-61769475D01*
X183997819Y-60388523D02*
X183997819Y-60959951D01*
X183997819Y-60674237D02*
X182997819Y-60674237D01*
X182997819Y-60674237D02*
X183140676Y-60769475D01*
X183140676Y-60769475D02*
X183235914Y-60864713D01*
X183235914Y-60864713D02*
X183283533Y-60959951D01*
X183331152Y-59531380D02*
X183997819Y-59531380D01*
X182950200Y-59769475D02*
X183664485Y-60007570D01*
X183664485Y-60007570D02*
X183664485Y-59388523D01*
X186185980Y-112961657D02*
X186233600Y-113009276D01*
X186233600Y-113009276D02*
X186281219Y-113152133D01*
X186281219Y-113152133D02*
X186281219Y-113247371D01*
X186281219Y-113247371D02*
X186233600Y-113390228D01*
X186233600Y-113390228D02*
X186138361Y-113485466D01*
X186138361Y-113485466D02*
X186043123Y-113533085D01*
X186043123Y-113533085D02*
X185852647Y-113580704D01*
X185852647Y-113580704D02*
X185709790Y-113580704D01*
X185709790Y-113580704D02*
X185519314Y-113533085D01*
X185519314Y-113533085D02*
X185424076Y-113485466D01*
X185424076Y-113485466D02*
X185328838Y-113390228D01*
X185328838Y-113390228D02*
X185281219Y-113247371D01*
X185281219Y-113247371D02*
X185281219Y-113152133D01*
X185281219Y-113152133D02*
X185328838Y-113009276D01*
X185328838Y-113009276D02*
X185376457Y-112961657D01*
X186281219Y-112009276D02*
X186281219Y-112580704D01*
X186281219Y-112294990D02*
X185281219Y-112294990D01*
X185281219Y-112294990D02*
X185424076Y-112390228D01*
X185424076Y-112390228D02*
X185519314Y-112485466D01*
X185519314Y-112485466D02*
X185566933Y-112580704D01*
X185281219Y-111390228D02*
X185281219Y-111294990D01*
X185281219Y-111294990D02*
X185328838Y-111199752D01*
X185328838Y-111199752D02*
X185376457Y-111152133D01*
X185376457Y-111152133D02*
X185471695Y-111104514D01*
X185471695Y-111104514D02*
X185662171Y-111056895D01*
X185662171Y-111056895D02*
X185900266Y-111056895D01*
X185900266Y-111056895D02*
X186090742Y-111104514D01*
X186090742Y-111104514D02*
X186185980Y-111152133D01*
X186185980Y-111152133D02*
X186233600Y-111199752D01*
X186233600Y-111199752D02*
X186281219Y-111294990D01*
X186281219Y-111294990D02*
X186281219Y-111390228D01*
X186281219Y-111390228D02*
X186233600Y-111485466D01*
X186233600Y-111485466D02*
X186185980Y-111533085D01*
X186185980Y-111533085D02*
X186090742Y-111580704D01*
X186090742Y-111580704D02*
X185900266Y-111628323D01*
X185900266Y-111628323D02*
X185662171Y-111628323D01*
X185662171Y-111628323D02*
X185471695Y-111580704D01*
X185471695Y-111580704D02*
X185376457Y-111533085D01*
X185376457Y-111533085D02*
X185328838Y-111485466D01*
X185328838Y-111485466D02*
X185281219Y-111390228D01*
X153687542Y-110036780D02*
X153639923Y-110084400D01*
X153639923Y-110084400D02*
X153497066Y-110132019D01*
X153497066Y-110132019D02*
X153401828Y-110132019D01*
X153401828Y-110132019D02*
X153258971Y-110084400D01*
X153258971Y-110084400D02*
X153163733Y-109989161D01*
X153163733Y-109989161D02*
X153116114Y-109893923D01*
X153116114Y-109893923D02*
X153068495Y-109703447D01*
X153068495Y-109703447D02*
X153068495Y-109560590D01*
X153068495Y-109560590D02*
X153116114Y-109370114D01*
X153116114Y-109370114D02*
X153163733Y-109274876D01*
X153163733Y-109274876D02*
X153258971Y-109179638D01*
X153258971Y-109179638D02*
X153401828Y-109132019D01*
X153401828Y-109132019D02*
X153497066Y-109132019D01*
X153497066Y-109132019D02*
X153639923Y-109179638D01*
X153639923Y-109179638D02*
X153687542Y-109227257D01*
X154020876Y-109132019D02*
X154639923Y-109132019D01*
X154639923Y-109132019D02*
X154306590Y-109512971D01*
X154306590Y-109512971D02*
X154449447Y-109512971D01*
X154449447Y-109512971D02*
X154544685Y-109560590D01*
X154544685Y-109560590D02*
X154592304Y-109608209D01*
X154592304Y-109608209D02*
X154639923Y-109703447D01*
X154639923Y-109703447D02*
X154639923Y-109941542D01*
X154639923Y-109941542D02*
X154592304Y-110036780D01*
X154592304Y-110036780D02*
X154544685Y-110084400D01*
X154544685Y-110084400D02*
X154449447Y-110132019D01*
X154449447Y-110132019D02*
X154163733Y-110132019D01*
X154163733Y-110132019D02*
X154068495Y-110084400D01*
X154068495Y-110084400D02*
X154020876Y-110036780D01*
X155116114Y-110132019D02*
X155306590Y-110132019D01*
X155306590Y-110132019D02*
X155401828Y-110084400D01*
X155401828Y-110084400D02*
X155449447Y-110036780D01*
X155449447Y-110036780D02*
X155544685Y-109893923D01*
X155544685Y-109893923D02*
X155592304Y-109703447D01*
X155592304Y-109703447D02*
X155592304Y-109322495D01*
X155592304Y-109322495D02*
X155544685Y-109227257D01*
X155544685Y-109227257D02*
X155497066Y-109179638D01*
X155497066Y-109179638D02*
X155401828Y-109132019D01*
X155401828Y-109132019D02*
X155211352Y-109132019D01*
X155211352Y-109132019D02*
X155116114Y-109179638D01*
X155116114Y-109179638D02*
X155068495Y-109227257D01*
X155068495Y-109227257D02*
X155020876Y-109322495D01*
X155020876Y-109322495D02*
X155020876Y-109560590D01*
X155020876Y-109560590D02*
X155068495Y-109655828D01*
X155068495Y-109655828D02*
X155116114Y-109703447D01*
X155116114Y-109703447D02*
X155211352Y-109751066D01*
X155211352Y-109751066D02*
X155401828Y-109751066D01*
X155401828Y-109751066D02*
X155497066Y-109703447D01*
X155497066Y-109703447D02*
X155544685Y-109655828D01*
X155544685Y-109655828D02*
X155592304Y-109560590D01*
X153738342Y-107496780D02*
X153690723Y-107544400D01*
X153690723Y-107544400D02*
X153547866Y-107592019D01*
X153547866Y-107592019D02*
X153452628Y-107592019D01*
X153452628Y-107592019D02*
X153309771Y-107544400D01*
X153309771Y-107544400D02*
X153214533Y-107449161D01*
X153214533Y-107449161D02*
X153166914Y-107353923D01*
X153166914Y-107353923D02*
X153119295Y-107163447D01*
X153119295Y-107163447D02*
X153119295Y-107020590D01*
X153119295Y-107020590D02*
X153166914Y-106830114D01*
X153166914Y-106830114D02*
X153214533Y-106734876D01*
X153214533Y-106734876D02*
X153309771Y-106639638D01*
X153309771Y-106639638D02*
X153452628Y-106592019D01*
X153452628Y-106592019D02*
X153547866Y-106592019D01*
X153547866Y-106592019D02*
X153690723Y-106639638D01*
X153690723Y-106639638D02*
X153738342Y-106687257D01*
X154071676Y-106592019D02*
X154690723Y-106592019D01*
X154690723Y-106592019D02*
X154357390Y-106972971D01*
X154357390Y-106972971D02*
X154500247Y-106972971D01*
X154500247Y-106972971D02*
X154595485Y-107020590D01*
X154595485Y-107020590D02*
X154643104Y-107068209D01*
X154643104Y-107068209D02*
X154690723Y-107163447D01*
X154690723Y-107163447D02*
X154690723Y-107401542D01*
X154690723Y-107401542D02*
X154643104Y-107496780D01*
X154643104Y-107496780D02*
X154595485Y-107544400D01*
X154595485Y-107544400D02*
X154500247Y-107592019D01*
X154500247Y-107592019D02*
X154214533Y-107592019D01*
X154214533Y-107592019D02*
X154119295Y-107544400D01*
X154119295Y-107544400D02*
X154071676Y-107496780D01*
X155262152Y-107020590D02*
X155166914Y-106972971D01*
X155166914Y-106972971D02*
X155119295Y-106925352D01*
X155119295Y-106925352D02*
X155071676Y-106830114D01*
X155071676Y-106830114D02*
X155071676Y-106782495D01*
X155071676Y-106782495D02*
X155119295Y-106687257D01*
X155119295Y-106687257D02*
X155166914Y-106639638D01*
X155166914Y-106639638D02*
X155262152Y-106592019D01*
X155262152Y-106592019D02*
X155452628Y-106592019D01*
X155452628Y-106592019D02*
X155547866Y-106639638D01*
X155547866Y-106639638D02*
X155595485Y-106687257D01*
X155595485Y-106687257D02*
X155643104Y-106782495D01*
X155643104Y-106782495D02*
X155643104Y-106830114D01*
X155643104Y-106830114D02*
X155595485Y-106925352D01*
X155595485Y-106925352D02*
X155547866Y-106972971D01*
X155547866Y-106972971D02*
X155452628Y-107020590D01*
X155452628Y-107020590D02*
X155262152Y-107020590D01*
X155262152Y-107020590D02*
X155166914Y-107068209D01*
X155166914Y-107068209D02*
X155119295Y-107115828D01*
X155119295Y-107115828D02*
X155071676Y-107211066D01*
X155071676Y-107211066D02*
X155071676Y-107401542D01*
X155071676Y-107401542D02*
X155119295Y-107496780D01*
X155119295Y-107496780D02*
X155166914Y-107544400D01*
X155166914Y-107544400D02*
X155262152Y-107592019D01*
X155262152Y-107592019D02*
X155452628Y-107592019D01*
X155452628Y-107592019D02*
X155547866Y-107544400D01*
X155547866Y-107544400D02*
X155595485Y-107496780D01*
X155595485Y-107496780D02*
X155643104Y-107401542D01*
X155643104Y-107401542D02*
X155643104Y-107211066D01*
X155643104Y-107211066D02*
X155595485Y-107115828D01*
X155595485Y-107115828D02*
X155547866Y-107068209D01*
X155547866Y-107068209D02*
X155452628Y-107020590D01*
X158380666Y-82926819D02*
X158380666Y-83641104D01*
X158380666Y-83641104D02*
X158333047Y-83783961D01*
X158333047Y-83783961D02*
X158237809Y-83879200D01*
X158237809Y-83879200D02*
X158094952Y-83926819D01*
X158094952Y-83926819D02*
X157999714Y-83926819D01*
X158809238Y-83022057D02*
X158856857Y-82974438D01*
X158856857Y-82974438D02*
X158952095Y-82926819D01*
X158952095Y-82926819D02*
X159190190Y-82926819D01*
X159190190Y-82926819D02*
X159285428Y-82974438D01*
X159285428Y-82974438D02*
X159333047Y-83022057D01*
X159333047Y-83022057D02*
X159380666Y-83117295D01*
X159380666Y-83117295D02*
X159380666Y-83212533D01*
X159380666Y-83212533D02*
X159333047Y-83355390D01*
X159333047Y-83355390D02*
X158761619Y-83926819D01*
X158761619Y-83926819D02*
X159380666Y-83926819D01*
X205578819Y-97233523D02*
X206293104Y-97233523D01*
X206293104Y-97233523D02*
X206435961Y-97281142D01*
X206435961Y-97281142D02*
X206531200Y-97376380D01*
X206531200Y-97376380D02*
X206578819Y-97519237D01*
X206578819Y-97519237D02*
X206578819Y-97614475D01*
X206578819Y-96233523D02*
X206578819Y-96804951D01*
X206578819Y-96519237D02*
X205578819Y-96519237D01*
X205578819Y-96519237D02*
X205721676Y-96614475D01*
X205721676Y-96614475D02*
X205816914Y-96709713D01*
X205816914Y-96709713D02*
X205864533Y-96804951D01*
X205578819Y-95900189D02*
X205578819Y-95281142D01*
X205578819Y-95281142D02*
X205959771Y-95614475D01*
X205959771Y-95614475D02*
X205959771Y-95471618D01*
X205959771Y-95471618D02*
X206007390Y-95376380D01*
X206007390Y-95376380D02*
X206055009Y-95328761D01*
X206055009Y-95328761D02*
X206150247Y-95281142D01*
X206150247Y-95281142D02*
X206388342Y-95281142D01*
X206388342Y-95281142D02*
X206483580Y-95328761D01*
X206483580Y-95328761D02*
X206531200Y-95376380D01*
X206531200Y-95376380D02*
X206578819Y-95471618D01*
X206578819Y-95471618D02*
X206578819Y-95757332D01*
X206578819Y-95757332D02*
X206531200Y-95852570D01*
X206531200Y-95852570D02*
X206483580Y-95900189D01*
X175633142Y-115167580D02*
X175585523Y-115215200D01*
X175585523Y-115215200D02*
X175442666Y-115262819D01*
X175442666Y-115262819D02*
X175347428Y-115262819D01*
X175347428Y-115262819D02*
X175204571Y-115215200D01*
X175204571Y-115215200D02*
X175109333Y-115119961D01*
X175109333Y-115119961D02*
X175061714Y-115024723D01*
X175061714Y-115024723D02*
X175014095Y-114834247D01*
X175014095Y-114834247D02*
X175014095Y-114691390D01*
X175014095Y-114691390D02*
X175061714Y-114500914D01*
X175061714Y-114500914D02*
X175109333Y-114405676D01*
X175109333Y-114405676D02*
X175204571Y-114310438D01*
X175204571Y-114310438D02*
X175347428Y-114262819D01*
X175347428Y-114262819D02*
X175442666Y-114262819D01*
X175442666Y-114262819D02*
X175585523Y-114310438D01*
X175585523Y-114310438D02*
X175633142Y-114358057D01*
X176585523Y-115262819D02*
X176014095Y-115262819D01*
X176299809Y-115262819D02*
X176299809Y-114262819D01*
X176299809Y-114262819D02*
X176204571Y-114405676D01*
X176204571Y-114405676D02*
X176109333Y-114500914D01*
X176109333Y-114500914D02*
X176014095Y-114548533D01*
X177061714Y-115262819D02*
X177252190Y-115262819D01*
X177252190Y-115262819D02*
X177347428Y-115215200D01*
X177347428Y-115215200D02*
X177395047Y-115167580D01*
X177395047Y-115167580D02*
X177490285Y-115024723D01*
X177490285Y-115024723D02*
X177537904Y-114834247D01*
X177537904Y-114834247D02*
X177537904Y-114453295D01*
X177537904Y-114453295D02*
X177490285Y-114358057D01*
X177490285Y-114358057D02*
X177442666Y-114310438D01*
X177442666Y-114310438D02*
X177347428Y-114262819D01*
X177347428Y-114262819D02*
X177156952Y-114262819D01*
X177156952Y-114262819D02*
X177061714Y-114310438D01*
X177061714Y-114310438D02*
X177014095Y-114358057D01*
X177014095Y-114358057D02*
X176966476Y-114453295D01*
X176966476Y-114453295D02*
X176966476Y-114691390D01*
X176966476Y-114691390D02*
X177014095Y-114786628D01*
X177014095Y-114786628D02*
X177061714Y-114834247D01*
X177061714Y-114834247D02*
X177156952Y-114881866D01*
X177156952Y-114881866D02*
X177347428Y-114881866D01*
X177347428Y-114881866D02*
X177442666Y-114834247D01*
X177442666Y-114834247D02*
X177490285Y-114786628D01*
X177490285Y-114786628D02*
X177537904Y-114691390D01*
X162970666Y-82926819D02*
X162970666Y-83641104D01*
X162970666Y-83641104D02*
X162923047Y-83783961D01*
X162923047Y-83783961D02*
X162827809Y-83879200D01*
X162827809Y-83879200D02*
X162684952Y-83926819D01*
X162684952Y-83926819D02*
X162589714Y-83926819D01*
X163875428Y-83260152D02*
X163875428Y-83926819D01*
X163637333Y-82879200D02*
X163399238Y-83593485D01*
X163399238Y-83593485D02*
X164018285Y-83593485D01*
X99745905Y-96988919D02*
X99745905Y-97798442D01*
X99745905Y-97798442D02*
X99793524Y-97893680D01*
X99793524Y-97893680D02*
X99841143Y-97941300D01*
X99841143Y-97941300D02*
X99936381Y-97988919D01*
X99936381Y-97988919D02*
X100126857Y-97988919D01*
X100126857Y-97988919D02*
X100222095Y-97941300D01*
X100222095Y-97941300D02*
X100269714Y-97893680D01*
X100269714Y-97893680D02*
X100317333Y-97798442D01*
X100317333Y-97798442D02*
X100317333Y-96988919D01*
X101317333Y-97988919D02*
X100745905Y-97988919D01*
X101031619Y-97988919D02*
X101031619Y-96988919D01*
X101031619Y-96988919D02*
X100936381Y-97131776D01*
X100936381Y-97131776D02*
X100841143Y-97227014D01*
X100841143Y-97227014D02*
X100745905Y-97274633D01*
X101936381Y-96988919D02*
X102031619Y-96988919D01*
X102031619Y-96988919D02*
X102126857Y-97036538D01*
X102126857Y-97036538D02*
X102174476Y-97084157D01*
X102174476Y-97084157D02*
X102222095Y-97179395D01*
X102222095Y-97179395D02*
X102269714Y-97369871D01*
X102269714Y-97369871D02*
X102269714Y-97607966D01*
X102269714Y-97607966D02*
X102222095Y-97798442D01*
X102222095Y-97798442D02*
X102174476Y-97893680D01*
X102174476Y-97893680D02*
X102126857Y-97941300D01*
X102126857Y-97941300D02*
X102031619Y-97988919D01*
X102031619Y-97988919D02*
X101936381Y-97988919D01*
X101936381Y-97988919D02*
X101841143Y-97941300D01*
X101841143Y-97941300D02*
X101793524Y-97893680D01*
X101793524Y-97893680D02*
X101745905Y-97798442D01*
X101745905Y-97798442D02*
X101698286Y-97607966D01*
X101698286Y-97607966D02*
X101698286Y-97369871D01*
X101698286Y-97369871D02*
X101745905Y-97179395D01*
X101745905Y-97179395D02*
X101793524Y-97084157D01*
X101793524Y-97084157D02*
X101841143Y-97036538D01*
X101841143Y-97036538D02*
X101936381Y-96988919D01*
X110440666Y-66450819D02*
X110440666Y-67165104D01*
X110440666Y-67165104D02*
X110393047Y-67307961D01*
X110393047Y-67307961D02*
X110297809Y-67403200D01*
X110297809Y-67403200D02*
X110154952Y-67450819D01*
X110154952Y-67450819D02*
X110059714Y-67450819D01*
X110964476Y-67450819D02*
X111154952Y-67450819D01*
X111154952Y-67450819D02*
X111250190Y-67403200D01*
X111250190Y-67403200D02*
X111297809Y-67355580D01*
X111297809Y-67355580D02*
X111393047Y-67212723D01*
X111393047Y-67212723D02*
X111440666Y-67022247D01*
X111440666Y-67022247D02*
X111440666Y-66641295D01*
X111440666Y-66641295D02*
X111393047Y-66546057D01*
X111393047Y-66546057D02*
X111345428Y-66498438D01*
X111345428Y-66498438D02*
X111250190Y-66450819D01*
X111250190Y-66450819D02*
X111059714Y-66450819D01*
X111059714Y-66450819D02*
X110964476Y-66498438D01*
X110964476Y-66498438D02*
X110916857Y-66546057D01*
X110916857Y-66546057D02*
X110869238Y-66641295D01*
X110869238Y-66641295D02*
X110869238Y-66879390D01*
X110869238Y-66879390D02*
X110916857Y-66974628D01*
X110916857Y-66974628D02*
X110964476Y-67022247D01*
X110964476Y-67022247D02*
X111059714Y-67069866D01*
X111059714Y-67069866D02*
X111250190Y-67069866D01*
X111250190Y-67069866D02*
X111345428Y-67022247D01*
X111345428Y-67022247D02*
X111393047Y-66974628D01*
X111393047Y-66974628D02*
X111440666Y-66879390D01*
X167560666Y-82926819D02*
X167560666Y-83641104D01*
X167560666Y-83641104D02*
X167513047Y-83783961D01*
X167513047Y-83783961D02*
X167417809Y-83879200D01*
X167417809Y-83879200D02*
X167274952Y-83926819D01*
X167274952Y-83926819D02*
X167179714Y-83926819D01*
X168513047Y-82926819D02*
X168036857Y-82926819D01*
X168036857Y-82926819D02*
X167989238Y-83403009D01*
X167989238Y-83403009D02*
X168036857Y-83355390D01*
X168036857Y-83355390D02*
X168132095Y-83307771D01*
X168132095Y-83307771D02*
X168370190Y-83307771D01*
X168370190Y-83307771D02*
X168465428Y-83355390D01*
X168465428Y-83355390D02*
X168513047Y-83403009D01*
X168513047Y-83403009D02*
X168560666Y-83498247D01*
X168560666Y-83498247D02*
X168560666Y-83736342D01*
X168560666Y-83736342D02*
X168513047Y-83831580D01*
X168513047Y-83831580D02*
X168465428Y-83879200D01*
X168465428Y-83879200D02*
X168370190Y-83926819D01*
X168370190Y-83926819D02*
X168132095Y-83926819D01*
X168132095Y-83926819D02*
X168036857Y-83879200D01*
X168036857Y-83879200D02*
X167989238Y-83831580D01*
X124389142Y-101071819D02*
X124055809Y-100595628D01*
X123817714Y-101071819D02*
X123817714Y-100071819D01*
X123817714Y-100071819D02*
X124198666Y-100071819D01*
X124198666Y-100071819D02*
X124293904Y-100119438D01*
X124293904Y-100119438D02*
X124341523Y-100167057D01*
X124341523Y-100167057D02*
X124389142Y-100262295D01*
X124389142Y-100262295D02*
X124389142Y-100405152D01*
X124389142Y-100405152D02*
X124341523Y-100500390D01*
X124341523Y-100500390D02*
X124293904Y-100548009D01*
X124293904Y-100548009D02*
X124198666Y-100595628D01*
X124198666Y-100595628D02*
X123817714Y-100595628D01*
X125341523Y-101071819D02*
X124770095Y-101071819D01*
X125055809Y-101071819D02*
X125055809Y-100071819D01*
X125055809Y-100071819D02*
X124960571Y-100214676D01*
X124960571Y-100214676D02*
X124865333Y-100309914D01*
X124865333Y-100309914D02*
X124770095Y-100357533D01*
X125960571Y-100071819D02*
X126055809Y-100071819D01*
X126055809Y-100071819D02*
X126151047Y-100119438D01*
X126151047Y-100119438D02*
X126198666Y-100167057D01*
X126198666Y-100167057D02*
X126246285Y-100262295D01*
X126246285Y-100262295D02*
X126293904Y-100452771D01*
X126293904Y-100452771D02*
X126293904Y-100690866D01*
X126293904Y-100690866D02*
X126246285Y-100881342D01*
X126246285Y-100881342D02*
X126198666Y-100976580D01*
X126198666Y-100976580D02*
X126151047Y-101024200D01*
X126151047Y-101024200D02*
X126055809Y-101071819D01*
X126055809Y-101071819D02*
X125960571Y-101071819D01*
X125960571Y-101071819D02*
X125865333Y-101024200D01*
X125865333Y-101024200D02*
X125817714Y-100976580D01*
X125817714Y-100976580D02*
X125770095Y-100881342D01*
X125770095Y-100881342D02*
X125722476Y-100690866D01*
X125722476Y-100690866D02*
X125722476Y-100452771D01*
X125722476Y-100452771D02*
X125770095Y-100262295D01*
X125770095Y-100262295D02*
X125817714Y-100167057D01*
X125817714Y-100167057D02*
X125865333Y-100119438D01*
X125865333Y-100119438D02*
X125960571Y-100071819D01*
X153992342Y-117351980D02*
X153944723Y-117399600D01*
X153944723Y-117399600D02*
X153801866Y-117447219D01*
X153801866Y-117447219D02*
X153706628Y-117447219D01*
X153706628Y-117447219D02*
X153563771Y-117399600D01*
X153563771Y-117399600D02*
X153468533Y-117304361D01*
X153468533Y-117304361D02*
X153420914Y-117209123D01*
X153420914Y-117209123D02*
X153373295Y-117018647D01*
X153373295Y-117018647D02*
X153373295Y-116875790D01*
X153373295Y-116875790D02*
X153420914Y-116685314D01*
X153420914Y-116685314D02*
X153468533Y-116590076D01*
X153468533Y-116590076D02*
X153563771Y-116494838D01*
X153563771Y-116494838D02*
X153706628Y-116447219D01*
X153706628Y-116447219D02*
X153801866Y-116447219D01*
X153801866Y-116447219D02*
X153944723Y-116494838D01*
X153944723Y-116494838D02*
X153992342Y-116542457D01*
X154849485Y-116780552D02*
X154849485Y-117447219D01*
X154611390Y-116399600D02*
X154373295Y-117113885D01*
X154373295Y-117113885D02*
X154992342Y-117113885D01*
X155801866Y-116780552D02*
X155801866Y-117447219D01*
X155563771Y-116399600D02*
X155325676Y-117113885D01*
X155325676Y-117113885D02*
X155944723Y-117113885D01*
X143121142Y-115015180D02*
X143073523Y-115062800D01*
X143073523Y-115062800D02*
X142930666Y-115110419D01*
X142930666Y-115110419D02*
X142835428Y-115110419D01*
X142835428Y-115110419D02*
X142692571Y-115062800D01*
X142692571Y-115062800D02*
X142597333Y-114967561D01*
X142597333Y-114967561D02*
X142549714Y-114872323D01*
X142549714Y-114872323D02*
X142502095Y-114681847D01*
X142502095Y-114681847D02*
X142502095Y-114538990D01*
X142502095Y-114538990D02*
X142549714Y-114348514D01*
X142549714Y-114348514D02*
X142597333Y-114253276D01*
X142597333Y-114253276D02*
X142692571Y-114158038D01*
X142692571Y-114158038D02*
X142835428Y-114110419D01*
X142835428Y-114110419D02*
X142930666Y-114110419D01*
X142930666Y-114110419D02*
X143073523Y-114158038D01*
X143073523Y-114158038D02*
X143121142Y-114205657D01*
X143454476Y-114110419D02*
X144073523Y-114110419D01*
X144073523Y-114110419D02*
X143740190Y-114491371D01*
X143740190Y-114491371D02*
X143883047Y-114491371D01*
X143883047Y-114491371D02*
X143978285Y-114538990D01*
X143978285Y-114538990D02*
X144025904Y-114586609D01*
X144025904Y-114586609D02*
X144073523Y-114681847D01*
X144073523Y-114681847D02*
X144073523Y-114919942D01*
X144073523Y-114919942D02*
X144025904Y-115015180D01*
X144025904Y-115015180D02*
X143978285Y-115062800D01*
X143978285Y-115062800D02*
X143883047Y-115110419D01*
X143883047Y-115110419D02*
X143597333Y-115110419D01*
X143597333Y-115110419D02*
X143502095Y-115062800D01*
X143502095Y-115062800D02*
X143454476Y-115015180D01*
X144406857Y-114110419D02*
X145025904Y-114110419D01*
X145025904Y-114110419D02*
X144692571Y-114491371D01*
X144692571Y-114491371D02*
X144835428Y-114491371D01*
X144835428Y-114491371D02*
X144930666Y-114538990D01*
X144930666Y-114538990D02*
X144978285Y-114586609D01*
X144978285Y-114586609D02*
X145025904Y-114681847D01*
X145025904Y-114681847D02*
X145025904Y-114919942D01*
X145025904Y-114919942D02*
X144978285Y-115015180D01*
X144978285Y-115015180D02*
X144930666Y-115062800D01*
X144930666Y-115062800D02*
X144835428Y-115110419D01*
X144835428Y-115110419D02*
X144549714Y-115110419D01*
X144549714Y-115110419D02*
X144454476Y-115062800D01*
X144454476Y-115062800D02*
X144406857Y-115015180D01*
X135742142Y-74941580D02*
X135694523Y-74989200D01*
X135694523Y-74989200D02*
X135551666Y-75036819D01*
X135551666Y-75036819D02*
X135456428Y-75036819D01*
X135456428Y-75036819D02*
X135313571Y-74989200D01*
X135313571Y-74989200D02*
X135218333Y-74893961D01*
X135218333Y-74893961D02*
X135170714Y-74798723D01*
X135170714Y-74798723D02*
X135123095Y-74608247D01*
X135123095Y-74608247D02*
X135123095Y-74465390D01*
X135123095Y-74465390D02*
X135170714Y-74274914D01*
X135170714Y-74274914D02*
X135218333Y-74179676D01*
X135218333Y-74179676D02*
X135313571Y-74084438D01*
X135313571Y-74084438D02*
X135456428Y-74036819D01*
X135456428Y-74036819D02*
X135551666Y-74036819D01*
X135551666Y-74036819D02*
X135694523Y-74084438D01*
X135694523Y-74084438D02*
X135742142Y-74132057D01*
X136694523Y-75036819D02*
X136123095Y-75036819D01*
X136408809Y-75036819D02*
X136408809Y-74036819D01*
X136408809Y-74036819D02*
X136313571Y-74179676D01*
X136313571Y-74179676D02*
X136218333Y-74274914D01*
X136218333Y-74274914D02*
X136123095Y-74322533D01*
X137599285Y-74036819D02*
X137123095Y-74036819D01*
X137123095Y-74036819D02*
X137075476Y-74513009D01*
X137075476Y-74513009D02*
X137123095Y-74465390D01*
X137123095Y-74465390D02*
X137218333Y-74417771D01*
X137218333Y-74417771D02*
X137456428Y-74417771D01*
X137456428Y-74417771D02*
X137551666Y-74465390D01*
X137551666Y-74465390D02*
X137599285Y-74513009D01*
X137599285Y-74513009D02*
X137646904Y-74608247D01*
X137646904Y-74608247D02*
X137646904Y-74846342D01*
X137646904Y-74846342D02*
X137599285Y-74941580D01*
X137599285Y-74941580D02*
X137551666Y-74989200D01*
X137551666Y-74989200D02*
X137456428Y-75036819D01*
X137456428Y-75036819D02*
X137218333Y-75036819D01*
X137218333Y-75036819D02*
X137123095Y-74989200D01*
X137123095Y-74989200D02*
X137075476Y-74941580D01*
X177397580Y-117432057D02*
X177445200Y-117479676D01*
X177445200Y-117479676D02*
X177492819Y-117622533D01*
X177492819Y-117622533D02*
X177492819Y-117717771D01*
X177492819Y-117717771D02*
X177445200Y-117860628D01*
X177445200Y-117860628D02*
X177349961Y-117955866D01*
X177349961Y-117955866D02*
X177254723Y-118003485D01*
X177254723Y-118003485D02*
X177064247Y-118051104D01*
X177064247Y-118051104D02*
X176921390Y-118051104D01*
X176921390Y-118051104D02*
X176730914Y-118003485D01*
X176730914Y-118003485D02*
X176635676Y-117955866D01*
X176635676Y-117955866D02*
X176540438Y-117860628D01*
X176540438Y-117860628D02*
X176492819Y-117717771D01*
X176492819Y-117717771D02*
X176492819Y-117622533D01*
X176492819Y-117622533D02*
X176540438Y-117479676D01*
X176540438Y-117479676D02*
X176588057Y-117432057D01*
X176588057Y-117051104D02*
X176540438Y-117003485D01*
X176540438Y-117003485D02*
X176492819Y-116908247D01*
X176492819Y-116908247D02*
X176492819Y-116670152D01*
X176492819Y-116670152D02*
X176540438Y-116574914D01*
X176540438Y-116574914D02*
X176588057Y-116527295D01*
X176588057Y-116527295D02*
X176683295Y-116479676D01*
X176683295Y-116479676D02*
X176778533Y-116479676D01*
X176778533Y-116479676D02*
X176921390Y-116527295D01*
X176921390Y-116527295D02*
X177492819Y-117098723D01*
X177492819Y-117098723D02*
X177492819Y-116479676D01*
X176492819Y-115860628D02*
X176492819Y-115765390D01*
X176492819Y-115765390D02*
X176540438Y-115670152D01*
X176540438Y-115670152D02*
X176588057Y-115622533D01*
X176588057Y-115622533D02*
X176683295Y-115574914D01*
X176683295Y-115574914D02*
X176873771Y-115527295D01*
X176873771Y-115527295D02*
X177111866Y-115527295D01*
X177111866Y-115527295D02*
X177302342Y-115574914D01*
X177302342Y-115574914D02*
X177397580Y-115622533D01*
X177397580Y-115622533D02*
X177445200Y-115670152D01*
X177445200Y-115670152D02*
X177492819Y-115765390D01*
X177492819Y-115765390D02*
X177492819Y-115860628D01*
X177492819Y-115860628D02*
X177445200Y-115955866D01*
X177445200Y-115955866D02*
X177397580Y-116003485D01*
X177397580Y-116003485D02*
X177302342Y-116051104D01*
X177302342Y-116051104D02*
X177111866Y-116098723D01*
X177111866Y-116098723D02*
X176873771Y-116098723D01*
X176873771Y-116098723D02*
X176683295Y-116051104D01*
X176683295Y-116051104D02*
X176588057Y-116003485D01*
X176588057Y-116003485D02*
X176540438Y-115955866D01*
X176540438Y-115955866D02*
X176492819Y-115860628D01*
X99231905Y-118103819D02*
X99231905Y-118913342D01*
X99231905Y-118913342D02*
X99279524Y-119008580D01*
X99279524Y-119008580D02*
X99327143Y-119056200D01*
X99327143Y-119056200D02*
X99422381Y-119103819D01*
X99422381Y-119103819D02*
X99612857Y-119103819D01*
X99612857Y-119103819D02*
X99708095Y-119056200D01*
X99708095Y-119056200D02*
X99755714Y-119008580D01*
X99755714Y-119008580D02*
X99803333Y-118913342D01*
X99803333Y-118913342D02*
X99803333Y-118103819D01*
X100803333Y-119103819D02*
X100231905Y-119103819D01*
X100517619Y-119103819D02*
X100517619Y-118103819D01*
X100517619Y-118103819D02*
X100422381Y-118246676D01*
X100422381Y-118246676D02*
X100327143Y-118341914D01*
X100327143Y-118341914D02*
X100231905Y-118389533D01*
X101755714Y-119103819D02*
X101184286Y-119103819D01*
X101470000Y-119103819D02*
X101470000Y-118103819D01*
X101470000Y-118103819D02*
X101374762Y-118246676D01*
X101374762Y-118246676D02*
X101279524Y-118341914D01*
X101279524Y-118341914D02*
X101184286Y-118389533D01*
X143273542Y-116742380D02*
X143225923Y-116790000D01*
X143225923Y-116790000D02*
X143083066Y-116837619D01*
X143083066Y-116837619D02*
X142987828Y-116837619D01*
X142987828Y-116837619D02*
X142844971Y-116790000D01*
X142844971Y-116790000D02*
X142749733Y-116694761D01*
X142749733Y-116694761D02*
X142702114Y-116599523D01*
X142702114Y-116599523D02*
X142654495Y-116409047D01*
X142654495Y-116409047D02*
X142654495Y-116266190D01*
X142654495Y-116266190D02*
X142702114Y-116075714D01*
X142702114Y-116075714D02*
X142749733Y-115980476D01*
X142749733Y-115980476D02*
X142844971Y-115885238D01*
X142844971Y-115885238D02*
X142987828Y-115837619D01*
X142987828Y-115837619D02*
X143083066Y-115837619D01*
X143083066Y-115837619D02*
X143225923Y-115885238D01*
X143225923Y-115885238D02*
X143273542Y-115932857D01*
X143606876Y-115837619D02*
X144225923Y-115837619D01*
X144225923Y-115837619D02*
X143892590Y-116218571D01*
X143892590Y-116218571D02*
X144035447Y-116218571D01*
X144035447Y-116218571D02*
X144130685Y-116266190D01*
X144130685Y-116266190D02*
X144178304Y-116313809D01*
X144178304Y-116313809D02*
X144225923Y-116409047D01*
X144225923Y-116409047D02*
X144225923Y-116647142D01*
X144225923Y-116647142D02*
X144178304Y-116742380D01*
X144178304Y-116742380D02*
X144130685Y-116790000D01*
X144130685Y-116790000D02*
X144035447Y-116837619D01*
X144035447Y-116837619D02*
X143749733Y-116837619D01*
X143749733Y-116837619D02*
X143654495Y-116790000D01*
X143654495Y-116790000D02*
X143606876Y-116742380D01*
X145083066Y-116170952D02*
X145083066Y-116837619D01*
X144844971Y-115790000D02*
X144606876Y-116504285D01*
X144606876Y-116504285D02*
X145225923Y-116504285D01*
X142917942Y-112221180D02*
X142870323Y-112268800D01*
X142870323Y-112268800D02*
X142727466Y-112316419D01*
X142727466Y-112316419D02*
X142632228Y-112316419D01*
X142632228Y-112316419D02*
X142489371Y-112268800D01*
X142489371Y-112268800D02*
X142394133Y-112173561D01*
X142394133Y-112173561D02*
X142346514Y-112078323D01*
X142346514Y-112078323D02*
X142298895Y-111887847D01*
X142298895Y-111887847D02*
X142298895Y-111744990D01*
X142298895Y-111744990D02*
X142346514Y-111554514D01*
X142346514Y-111554514D02*
X142394133Y-111459276D01*
X142394133Y-111459276D02*
X142489371Y-111364038D01*
X142489371Y-111364038D02*
X142632228Y-111316419D01*
X142632228Y-111316419D02*
X142727466Y-111316419D01*
X142727466Y-111316419D02*
X142870323Y-111364038D01*
X142870323Y-111364038D02*
X142917942Y-111411657D01*
X143251276Y-111316419D02*
X143870323Y-111316419D01*
X143870323Y-111316419D02*
X143536990Y-111697371D01*
X143536990Y-111697371D02*
X143679847Y-111697371D01*
X143679847Y-111697371D02*
X143775085Y-111744990D01*
X143775085Y-111744990D02*
X143822704Y-111792609D01*
X143822704Y-111792609D02*
X143870323Y-111887847D01*
X143870323Y-111887847D02*
X143870323Y-112125942D01*
X143870323Y-112125942D02*
X143822704Y-112221180D01*
X143822704Y-112221180D02*
X143775085Y-112268800D01*
X143775085Y-112268800D02*
X143679847Y-112316419D01*
X143679847Y-112316419D02*
X143394133Y-112316419D01*
X143394133Y-112316419D02*
X143298895Y-112268800D01*
X143298895Y-112268800D02*
X143251276Y-112221180D01*
X144251276Y-111411657D02*
X144298895Y-111364038D01*
X144298895Y-111364038D02*
X144394133Y-111316419D01*
X144394133Y-111316419D02*
X144632228Y-111316419D01*
X144632228Y-111316419D02*
X144727466Y-111364038D01*
X144727466Y-111364038D02*
X144775085Y-111411657D01*
X144775085Y-111411657D02*
X144822704Y-111506895D01*
X144822704Y-111506895D02*
X144822704Y-111602133D01*
X144822704Y-111602133D02*
X144775085Y-111744990D01*
X144775085Y-111744990D02*
X144203657Y-112316419D01*
X144203657Y-112316419D02*
X144822704Y-112316419D01*
X129673905Y-104833819D02*
X129673905Y-105643342D01*
X129673905Y-105643342D02*
X129721524Y-105738580D01*
X129721524Y-105738580D02*
X129769143Y-105786200D01*
X129769143Y-105786200D02*
X129864381Y-105833819D01*
X129864381Y-105833819D02*
X130054857Y-105833819D01*
X130054857Y-105833819D02*
X130150095Y-105786200D01*
X130150095Y-105786200D02*
X130197714Y-105738580D01*
X130197714Y-105738580D02*
X130245333Y-105643342D01*
X130245333Y-105643342D02*
X130245333Y-104833819D01*
X131245333Y-105833819D02*
X130673905Y-105833819D01*
X130959619Y-105833819D02*
X130959619Y-104833819D01*
X130959619Y-104833819D02*
X130864381Y-104976676D01*
X130864381Y-104976676D02*
X130769143Y-105071914D01*
X130769143Y-105071914D02*
X130673905Y-105119533D01*
X131626286Y-104929057D02*
X131673905Y-104881438D01*
X131673905Y-104881438D02*
X131769143Y-104833819D01*
X131769143Y-104833819D02*
X132007238Y-104833819D01*
X132007238Y-104833819D02*
X132102476Y-104881438D01*
X132102476Y-104881438D02*
X132150095Y-104929057D01*
X132150095Y-104929057D02*
X132197714Y-105024295D01*
X132197714Y-105024295D02*
X132197714Y-105119533D01*
X132197714Y-105119533D02*
X132150095Y-105262390D01*
X132150095Y-105262390D02*
X131578667Y-105833819D01*
X131578667Y-105833819D02*
X132197714Y-105833819D01*
X179919333Y-102721580D02*
X179871714Y-102769200D01*
X179871714Y-102769200D02*
X179728857Y-102816819D01*
X179728857Y-102816819D02*
X179633619Y-102816819D01*
X179633619Y-102816819D02*
X179490762Y-102769200D01*
X179490762Y-102769200D02*
X179395524Y-102673961D01*
X179395524Y-102673961D02*
X179347905Y-102578723D01*
X179347905Y-102578723D02*
X179300286Y-102388247D01*
X179300286Y-102388247D02*
X179300286Y-102245390D01*
X179300286Y-102245390D02*
X179347905Y-102054914D01*
X179347905Y-102054914D02*
X179395524Y-101959676D01*
X179395524Y-101959676D02*
X179490762Y-101864438D01*
X179490762Y-101864438D02*
X179633619Y-101816819D01*
X179633619Y-101816819D02*
X179728857Y-101816819D01*
X179728857Y-101816819D02*
X179871714Y-101864438D01*
X179871714Y-101864438D02*
X179919333Y-101912057D01*
X180300286Y-101912057D02*
X180347905Y-101864438D01*
X180347905Y-101864438D02*
X180443143Y-101816819D01*
X180443143Y-101816819D02*
X180681238Y-101816819D01*
X180681238Y-101816819D02*
X180776476Y-101864438D01*
X180776476Y-101864438D02*
X180824095Y-101912057D01*
X180824095Y-101912057D02*
X180871714Y-102007295D01*
X180871714Y-102007295D02*
X180871714Y-102102533D01*
X180871714Y-102102533D02*
X180824095Y-102245390D01*
X180824095Y-102245390D02*
X180252667Y-102816819D01*
X180252667Y-102816819D02*
X180871714Y-102816819D01*
X190452476Y-134836819D02*
X190452476Y-135551104D01*
X190452476Y-135551104D02*
X190404857Y-135693961D01*
X190404857Y-135693961D02*
X190309619Y-135789200D01*
X190309619Y-135789200D02*
X190166762Y-135836819D01*
X190166762Y-135836819D02*
X190071524Y-135836819D01*
X191452476Y-135836819D02*
X190881048Y-135836819D01*
X191166762Y-135836819D02*
X191166762Y-134836819D01*
X191166762Y-134836819D02*
X191071524Y-134979676D01*
X191071524Y-134979676D02*
X190976286Y-135074914D01*
X190976286Y-135074914D02*
X190881048Y-135122533D01*
X192071524Y-134836819D02*
X192166762Y-134836819D01*
X192166762Y-134836819D02*
X192262000Y-134884438D01*
X192262000Y-134884438D02*
X192309619Y-134932057D01*
X192309619Y-134932057D02*
X192357238Y-135027295D01*
X192357238Y-135027295D02*
X192404857Y-135217771D01*
X192404857Y-135217771D02*
X192404857Y-135455866D01*
X192404857Y-135455866D02*
X192357238Y-135646342D01*
X192357238Y-135646342D02*
X192309619Y-135741580D01*
X192309619Y-135741580D02*
X192262000Y-135789200D01*
X192262000Y-135789200D02*
X192166762Y-135836819D01*
X192166762Y-135836819D02*
X192071524Y-135836819D01*
X192071524Y-135836819D02*
X191976286Y-135789200D01*
X191976286Y-135789200D02*
X191928667Y-135741580D01*
X191928667Y-135741580D02*
X191881048Y-135646342D01*
X191881048Y-135646342D02*
X191833429Y-135455866D01*
X191833429Y-135455866D02*
X191833429Y-135217771D01*
X191833429Y-135217771D02*
X191881048Y-135027295D01*
X191881048Y-135027295D02*
X191928667Y-134932057D01*
X191928667Y-134932057D02*
X191976286Y-134884438D01*
X191976286Y-134884438D02*
X192071524Y-134836819D01*
X185691542Y-115065980D02*
X185643923Y-115113600D01*
X185643923Y-115113600D02*
X185501066Y-115161219D01*
X185501066Y-115161219D02*
X185405828Y-115161219D01*
X185405828Y-115161219D02*
X185262971Y-115113600D01*
X185262971Y-115113600D02*
X185167733Y-115018361D01*
X185167733Y-115018361D02*
X185120114Y-114923123D01*
X185120114Y-114923123D02*
X185072495Y-114732647D01*
X185072495Y-114732647D02*
X185072495Y-114589790D01*
X185072495Y-114589790D02*
X185120114Y-114399314D01*
X185120114Y-114399314D02*
X185167733Y-114304076D01*
X185167733Y-114304076D02*
X185262971Y-114208838D01*
X185262971Y-114208838D02*
X185405828Y-114161219D01*
X185405828Y-114161219D02*
X185501066Y-114161219D01*
X185501066Y-114161219D02*
X185643923Y-114208838D01*
X185643923Y-114208838D02*
X185691542Y-114256457D01*
X186643923Y-115161219D02*
X186072495Y-115161219D01*
X186358209Y-115161219D02*
X186358209Y-114161219D01*
X186358209Y-114161219D02*
X186262971Y-114304076D01*
X186262971Y-114304076D02*
X186167733Y-114399314D01*
X186167733Y-114399314D02*
X186072495Y-114446933D01*
X187596304Y-115161219D02*
X187024876Y-115161219D01*
X187310590Y-115161219D02*
X187310590Y-114161219D01*
X187310590Y-114161219D02*
X187215352Y-114304076D01*
X187215352Y-114304076D02*
X187120114Y-114399314D01*
X187120114Y-114399314D02*
X187024876Y-114446933D01*
X185812133Y-109833580D02*
X185764514Y-109881200D01*
X185764514Y-109881200D02*
X185621657Y-109928819D01*
X185621657Y-109928819D02*
X185526419Y-109928819D01*
X185526419Y-109928819D02*
X185383562Y-109881200D01*
X185383562Y-109881200D02*
X185288324Y-109785961D01*
X185288324Y-109785961D02*
X185240705Y-109690723D01*
X185240705Y-109690723D02*
X185193086Y-109500247D01*
X185193086Y-109500247D02*
X185193086Y-109357390D01*
X185193086Y-109357390D02*
X185240705Y-109166914D01*
X185240705Y-109166914D02*
X185288324Y-109071676D01*
X185288324Y-109071676D02*
X185383562Y-108976438D01*
X185383562Y-108976438D02*
X185526419Y-108928819D01*
X185526419Y-108928819D02*
X185621657Y-108928819D01*
X185621657Y-108928819D02*
X185764514Y-108976438D01*
X185764514Y-108976438D02*
X185812133Y-109024057D01*
X186288324Y-109928819D02*
X186478800Y-109928819D01*
X186478800Y-109928819D02*
X186574038Y-109881200D01*
X186574038Y-109881200D02*
X186621657Y-109833580D01*
X186621657Y-109833580D02*
X186716895Y-109690723D01*
X186716895Y-109690723D02*
X186764514Y-109500247D01*
X186764514Y-109500247D02*
X186764514Y-109119295D01*
X186764514Y-109119295D02*
X186716895Y-109024057D01*
X186716895Y-109024057D02*
X186669276Y-108976438D01*
X186669276Y-108976438D02*
X186574038Y-108928819D01*
X186574038Y-108928819D02*
X186383562Y-108928819D01*
X186383562Y-108928819D02*
X186288324Y-108976438D01*
X186288324Y-108976438D02*
X186240705Y-109024057D01*
X186240705Y-109024057D02*
X186193086Y-109119295D01*
X186193086Y-109119295D02*
X186193086Y-109357390D01*
X186193086Y-109357390D02*
X186240705Y-109452628D01*
X186240705Y-109452628D02*
X186288324Y-109500247D01*
X186288324Y-109500247D02*
X186383562Y-109547866D01*
X186383562Y-109547866D02*
X186574038Y-109547866D01*
X186574038Y-109547866D02*
X186669276Y-109500247D01*
X186669276Y-109500247D02*
X186716895Y-109452628D01*
X186716895Y-109452628D02*
X186764514Y-109357390D01*
X180122533Y-100029180D02*
X180074914Y-100076800D01*
X180074914Y-100076800D02*
X179932057Y-100124419D01*
X179932057Y-100124419D02*
X179836819Y-100124419D01*
X179836819Y-100124419D02*
X179693962Y-100076800D01*
X179693962Y-100076800D02*
X179598724Y-99981561D01*
X179598724Y-99981561D02*
X179551105Y-99886323D01*
X179551105Y-99886323D02*
X179503486Y-99695847D01*
X179503486Y-99695847D02*
X179503486Y-99552990D01*
X179503486Y-99552990D02*
X179551105Y-99362514D01*
X179551105Y-99362514D02*
X179598724Y-99267276D01*
X179598724Y-99267276D02*
X179693962Y-99172038D01*
X179693962Y-99172038D02*
X179836819Y-99124419D01*
X179836819Y-99124419D02*
X179932057Y-99124419D01*
X179932057Y-99124419D02*
X180074914Y-99172038D01*
X180074914Y-99172038D02*
X180122533Y-99219657D01*
X181074914Y-100124419D02*
X180503486Y-100124419D01*
X180789200Y-100124419D02*
X180789200Y-99124419D01*
X180789200Y-99124419D02*
X180693962Y-99267276D01*
X180693962Y-99267276D02*
X180598724Y-99362514D01*
X180598724Y-99362514D02*
X180503486Y-99410133D01*
X185558133Y-107699980D02*
X185510514Y-107747600D01*
X185510514Y-107747600D02*
X185367657Y-107795219D01*
X185367657Y-107795219D02*
X185272419Y-107795219D01*
X185272419Y-107795219D02*
X185129562Y-107747600D01*
X185129562Y-107747600D02*
X185034324Y-107652361D01*
X185034324Y-107652361D02*
X184986705Y-107557123D01*
X184986705Y-107557123D02*
X184939086Y-107366647D01*
X184939086Y-107366647D02*
X184939086Y-107223790D01*
X184939086Y-107223790D02*
X184986705Y-107033314D01*
X184986705Y-107033314D02*
X185034324Y-106938076D01*
X185034324Y-106938076D02*
X185129562Y-106842838D01*
X185129562Y-106842838D02*
X185272419Y-106795219D01*
X185272419Y-106795219D02*
X185367657Y-106795219D01*
X185367657Y-106795219D02*
X185510514Y-106842838D01*
X185510514Y-106842838D02*
X185558133Y-106890457D01*
X186415276Y-107128552D02*
X186415276Y-107795219D01*
X186177181Y-106747600D02*
X185939086Y-107461885D01*
X185939086Y-107461885D02*
X186558133Y-107461885D01*
X123881142Y-119039819D02*
X123547809Y-118563628D01*
X123309714Y-119039819D02*
X123309714Y-118039819D01*
X123309714Y-118039819D02*
X123690666Y-118039819D01*
X123690666Y-118039819D02*
X123785904Y-118087438D01*
X123785904Y-118087438D02*
X123833523Y-118135057D01*
X123833523Y-118135057D02*
X123881142Y-118230295D01*
X123881142Y-118230295D02*
X123881142Y-118373152D01*
X123881142Y-118373152D02*
X123833523Y-118468390D01*
X123833523Y-118468390D02*
X123785904Y-118516009D01*
X123785904Y-118516009D02*
X123690666Y-118563628D01*
X123690666Y-118563628D02*
X123309714Y-118563628D01*
X124833523Y-119039819D02*
X124262095Y-119039819D01*
X124547809Y-119039819D02*
X124547809Y-118039819D01*
X124547809Y-118039819D02*
X124452571Y-118182676D01*
X124452571Y-118182676D02*
X124357333Y-118277914D01*
X124357333Y-118277914D02*
X124262095Y-118325533D01*
X125166857Y-118039819D02*
X125785904Y-118039819D01*
X125785904Y-118039819D02*
X125452571Y-118420771D01*
X125452571Y-118420771D02*
X125595428Y-118420771D01*
X125595428Y-118420771D02*
X125690666Y-118468390D01*
X125690666Y-118468390D02*
X125738285Y-118516009D01*
X125738285Y-118516009D02*
X125785904Y-118611247D01*
X125785904Y-118611247D02*
X125785904Y-118849342D01*
X125785904Y-118849342D02*
X125738285Y-118944580D01*
X125738285Y-118944580D02*
X125690666Y-118992200D01*
X125690666Y-118992200D02*
X125595428Y-119039819D01*
X125595428Y-119039819D02*
X125309714Y-119039819D01*
X125309714Y-119039819D02*
X125214476Y-118992200D01*
X125214476Y-118992200D02*
X125166857Y-118944580D01*
X143425942Y-107242780D02*
X143378323Y-107290400D01*
X143378323Y-107290400D02*
X143235466Y-107338019D01*
X143235466Y-107338019D02*
X143140228Y-107338019D01*
X143140228Y-107338019D02*
X142997371Y-107290400D01*
X142997371Y-107290400D02*
X142902133Y-107195161D01*
X142902133Y-107195161D02*
X142854514Y-107099923D01*
X142854514Y-107099923D02*
X142806895Y-106909447D01*
X142806895Y-106909447D02*
X142806895Y-106766590D01*
X142806895Y-106766590D02*
X142854514Y-106576114D01*
X142854514Y-106576114D02*
X142902133Y-106480876D01*
X142902133Y-106480876D02*
X142997371Y-106385638D01*
X142997371Y-106385638D02*
X143140228Y-106338019D01*
X143140228Y-106338019D02*
X143235466Y-106338019D01*
X143235466Y-106338019D02*
X143378323Y-106385638D01*
X143378323Y-106385638D02*
X143425942Y-106433257D01*
X143806895Y-106433257D02*
X143854514Y-106385638D01*
X143854514Y-106385638D02*
X143949752Y-106338019D01*
X143949752Y-106338019D02*
X144187847Y-106338019D01*
X144187847Y-106338019D02*
X144283085Y-106385638D01*
X144283085Y-106385638D02*
X144330704Y-106433257D01*
X144330704Y-106433257D02*
X144378323Y-106528495D01*
X144378323Y-106528495D02*
X144378323Y-106623733D01*
X144378323Y-106623733D02*
X144330704Y-106766590D01*
X144330704Y-106766590D02*
X143759276Y-107338019D01*
X143759276Y-107338019D02*
X144378323Y-107338019D01*
X145235466Y-106338019D02*
X145044990Y-106338019D01*
X145044990Y-106338019D02*
X144949752Y-106385638D01*
X144949752Y-106385638D02*
X144902133Y-106433257D01*
X144902133Y-106433257D02*
X144806895Y-106576114D01*
X144806895Y-106576114D02*
X144759276Y-106766590D01*
X144759276Y-106766590D02*
X144759276Y-107147542D01*
X144759276Y-107147542D02*
X144806895Y-107242780D01*
X144806895Y-107242780D02*
X144854514Y-107290400D01*
X144854514Y-107290400D02*
X144949752Y-107338019D01*
X144949752Y-107338019D02*
X145140228Y-107338019D01*
X145140228Y-107338019D02*
X145235466Y-107290400D01*
X145235466Y-107290400D02*
X145283085Y-107242780D01*
X145283085Y-107242780D02*
X145330704Y-107147542D01*
X145330704Y-107147542D02*
X145330704Y-106909447D01*
X145330704Y-106909447D02*
X145283085Y-106814209D01*
X145283085Y-106814209D02*
X145235466Y-106766590D01*
X145235466Y-106766590D02*
X145140228Y-106718971D01*
X145140228Y-106718971D02*
X144949752Y-106718971D01*
X144949752Y-106718971D02*
X144854514Y-106766590D01*
X144854514Y-106766590D02*
X144806895Y-106814209D01*
X144806895Y-106814209D02*
X144759276Y-106909447D01*
X150474142Y-103473580D02*
X150426523Y-103521200D01*
X150426523Y-103521200D02*
X150283666Y-103568819D01*
X150283666Y-103568819D02*
X150188428Y-103568819D01*
X150188428Y-103568819D02*
X150045571Y-103521200D01*
X150045571Y-103521200D02*
X149950333Y-103425961D01*
X149950333Y-103425961D02*
X149902714Y-103330723D01*
X149902714Y-103330723D02*
X149855095Y-103140247D01*
X149855095Y-103140247D02*
X149855095Y-102997390D01*
X149855095Y-102997390D02*
X149902714Y-102806914D01*
X149902714Y-102806914D02*
X149950333Y-102711676D01*
X149950333Y-102711676D02*
X150045571Y-102616438D01*
X150045571Y-102616438D02*
X150188428Y-102568819D01*
X150188428Y-102568819D02*
X150283666Y-102568819D01*
X150283666Y-102568819D02*
X150426523Y-102616438D01*
X150426523Y-102616438D02*
X150474142Y-102664057D01*
X150807476Y-102568819D02*
X151426523Y-102568819D01*
X151426523Y-102568819D02*
X151093190Y-102949771D01*
X151093190Y-102949771D02*
X151236047Y-102949771D01*
X151236047Y-102949771D02*
X151331285Y-102997390D01*
X151331285Y-102997390D02*
X151378904Y-103045009D01*
X151378904Y-103045009D02*
X151426523Y-103140247D01*
X151426523Y-103140247D02*
X151426523Y-103378342D01*
X151426523Y-103378342D02*
X151378904Y-103473580D01*
X151378904Y-103473580D02*
X151331285Y-103521200D01*
X151331285Y-103521200D02*
X151236047Y-103568819D01*
X151236047Y-103568819D02*
X150950333Y-103568819D01*
X150950333Y-103568819D02*
X150855095Y-103521200D01*
X150855095Y-103521200D02*
X150807476Y-103473580D01*
X151759857Y-102568819D02*
X152426523Y-102568819D01*
X152426523Y-102568819D02*
X151997952Y-103568819D01*
X113213819Y-128444523D02*
X113928104Y-128444523D01*
X113928104Y-128444523D02*
X114070961Y-128492142D01*
X114070961Y-128492142D02*
X114166200Y-128587380D01*
X114166200Y-128587380D02*
X114213819Y-128730237D01*
X114213819Y-128730237D02*
X114213819Y-128825475D01*
X114213819Y-127444523D02*
X114213819Y-128015951D01*
X114213819Y-127730237D02*
X113213819Y-127730237D01*
X113213819Y-127730237D02*
X113356676Y-127825475D01*
X113356676Y-127825475D02*
X113451914Y-127920713D01*
X113451914Y-127920713D02*
X113499533Y-128015951D01*
X113213819Y-126539761D02*
X113213819Y-127015951D01*
X113213819Y-127015951D02*
X113690009Y-127063570D01*
X113690009Y-127063570D02*
X113642390Y-127015951D01*
X113642390Y-127015951D02*
X113594771Y-126920713D01*
X113594771Y-126920713D02*
X113594771Y-126682618D01*
X113594771Y-126682618D02*
X113642390Y-126587380D01*
X113642390Y-126587380D02*
X113690009Y-126539761D01*
X113690009Y-126539761D02*
X113785247Y-126492142D01*
X113785247Y-126492142D02*
X114023342Y-126492142D01*
X114023342Y-126492142D02*
X114118580Y-126539761D01*
X114118580Y-126539761D02*
X114166200Y-126587380D01*
X114166200Y-126587380D02*
X114213819Y-126682618D01*
X114213819Y-126682618D02*
X114213819Y-126920713D01*
X114213819Y-126920713D02*
X114166200Y-127015951D01*
X114166200Y-127015951D02*
X114118580Y-127063570D01*
X140838095Y-75504819D02*
X140838095Y-76314342D01*
X140838095Y-76314342D02*
X140885714Y-76409580D01*
X140885714Y-76409580D02*
X140933333Y-76457200D01*
X140933333Y-76457200D02*
X141028571Y-76504819D01*
X141028571Y-76504819D02*
X141219047Y-76504819D01*
X141219047Y-76504819D02*
X141314285Y-76457200D01*
X141314285Y-76457200D02*
X141361904Y-76409580D01*
X141361904Y-76409580D02*
X141409523Y-76314342D01*
X141409523Y-76314342D02*
X141409523Y-75504819D01*
X142409523Y-76504819D02*
X141838095Y-76504819D01*
X142123809Y-76504819D02*
X142123809Y-75504819D01*
X142123809Y-75504819D02*
X142028571Y-75647676D01*
X142028571Y-75647676D02*
X141933333Y-75742914D01*
X141933333Y-75742914D02*
X141838095Y-75790533D01*
X153789142Y-112525980D02*
X153741523Y-112573600D01*
X153741523Y-112573600D02*
X153598666Y-112621219D01*
X153598666Y-112621219D02*
X153503428Y-112621219D01*
X153503428Y-112621219D02*
X153360571Y-112573600D01*
X153360571Y-112573600D02*
X153265333Y-112478361D01*
X153265333Y-112478361D02*
X153217714Y-112383123D01*
X153217714Y-112383123D02*
X153170095Y-112192647D01*
X153170095Y-112192647D02*
X153170095Y-112049790D01*
X153170095Y-112049790D02*
X153217714Y-111859314D01*
X153217714Y-111859314D02*
X153265333Y-111764076D01*
X153265333Y-111764076D02*
X153360571Y-111668838D01*
X153360571Y-111668838D02*
X153503428Y-111621219D01*
X153503428Y-111621219D02*
X153598666Y-111621219D01*
X153598666Y-111621219D02*
X153741523Y-111668838D01*
X153741523Y-111668838D02*
X153789142Y-111716457D01*
X154646285Y-111954552D02*
X154646285Y-112621219D01*
X154408190Y-111573600D02*
X154170095Y-112287885D01*
X154170095Y-112287885D02*
X154789142Y-112287885D01*
X155122476Y-111716457D02*
X155170095Y-111668838D01*
X155170095Y-111668838D02*
X155265333Y-111621219D01*
X155265333Y-111621219D02*
X155503428Y-111621219D01*
X155503428Y-111621219D02*
X155598666Y-111668838D01*
X155598666Y-111668838D02*
X155646285Y-111716457D01*
X155646285Y-111716457D02*
X155693904Y-111811695D01*
X155693904Y-111811695D02*
X155693904Y-111906933D01*
X155693904Y-111906933D02*
X155646285Y-112049790D01*
X155646285Y-112049790D02*
X155074857Y-112621219D01*
X155074857Y-112621219D02*
X155693904Y-112621219D01*
%TO.C,U7*%
D12*
X135380000Y-67746000D02*
X137580000Y-67746000D01*
X135680000Y-62846000D02*
X137580000Y-62846000D01*
X135380000Y-62896000D02*
X135100000Y-62896000D01*
X135380000Y-62616000D01*
X135380000Y-62896000D01*
G36*
X135380000Y-62896000D02*
G01*
X135100000Y-62896000D01*
X135380000Y-62616000D01*
X135380000Y-62896000D01*
G37*
%TO.C,C43*%
X150976420Y-114074000D02*
X151257580Y-114074000D01*
X150976420Y-115094000D02*
X151257580Y-115094000D01*
%TO.C,R12*%
X106048542Y-104684300D02*
X106523058Y-104684300D01*
X106048542Y-105729300D02*
X106523058Y-105729300D01*
%TO.C,J6*%
X125874000Y-67708000D02*
X127254000Y-67708000D01*
X125874000Y-69088000D02*
X125874000Y-67708000D01*
X125874000Y-70358000D02*
X125874000Y-75548000D01*
X125874000Y-70358000D02*
X128634000Y-70358000D01*
X125874000Y-75548000D02*
X128634000Y-75548000D01*
X128634000Y-70358000D02*
X128634000Y-75548000D01*
%TO.C,C23*%
X179183420Y-109502000D02*
X179464580Y-109502000D01*
X179183420Y-110522000D02*
X179464580Y-110522000D01*
%TO.C,U2*%
X135437200Y-76773600D02*
X137257200Y-76773600D01*
X135437200Y-76823600D02*
X135437200Y-76773600D01*
X135437200Y-79893600D02*
X135437200Y-79843600D01*
X137257200Y-76773600D02*
X137257200Y-76823600D01*
X137257200Y-77943600D02*
X137257200Y-78723600D01*
X137257200Y-79843600D02*
X137257200Y-79893600D01*
X137257200Y-79893600D02*
X135437200Y-79893600D01*
X134897200Y-76823600D02*
X134657200Y-76493600D01*
X135137200Y-76493600D01*
X134897200Y-76823600D01*
G36*
X134897200Y-76823600D02*
G01*
X134657200Y-76493600D01*
X135137200Y-76493600D01*
X134897200Y-76823600D01*
G37*
%TO.C,C27*%
X146966420Y-109054000D02*
X147247580Y-109054000D01*
X146966420Y-110074000D02*
X147247580Y-110074000D01*
%TO.C,J3*%
X139640800Y-84387200D02*
X139640800Y-83007200D01*
X141020800Y-84387200D02*
X139640800Y-84387200D01*
X142290800Y-81627200D02*
X150020800Y-81627200D01*
X142290800Y-84387200D02*
X142290800Y-81627200D01*
X142290800Y-84387200D02*
X150020800Y-84387200D01*
X150020800Y-84387200D02*
X150020800Y-81627200D01*
%TO.C,C24*%
X179183420Y-112012000D02*
X179464580Y-112012000D01*
X179183420Y-113032000D02*
X179464580Y-113032000D01*
%TO.C,U9*%
D13*
X128146000Y-85899100D02*
X128146000Y-95899100D01*
X128146000Y-95899100D02*
X129612000Y-95899100D01*
X129612000Y-85899100D02*
X128146000Y-85899100D01*
D14*
X125576000Y-86149100D02*
G75*
G02*
X125376000Y-86149100I-100000J0D01*
G01*
X125376000Y-86149100D02*
G75*
G02*
X125576000Y-86149100I100000J0D01*
G01*
%TO.C,R11*%
D12*
X107458742Y-82535500D02*
X107933258Y-82535500D01*
X107458742Y-83580500D02*
X107933258Y-83580500D01*
%TO.C,U3*%
X166446000Y-61490000D02*
X166896000Y-61490000D01*
X166446000Y-73910000D02*
X166446000Y-61490000D01*
X166446000Y-73910000D02*
X166896000Y-73910000D01*
X174816000Y-61490000D02*
X176496000Y-61490000D01*
X174816000Y-73910000D02*
X176496000Y-73910000D01*
X182216000Y-61490000D02*
X182656000Y-61490000D01*
X182216000Y-73910000D02*
X182666000Y-73910000D01*
X182666000Y-73910000D02*
X182666000Y-61490000D01*
X166896000Y-74400000D02*
X166566000Y-74640000D01*
X166566000Y-74160000D01*
X166896000Y-74400000D01*
G36*
X166896000Y-74400000D02*
G01*
X166566000Y-74640000D01*
X166566000Y-74160000D01*
X166896000Y-74400000D01*
G37*
%TO.C,C12*%
X183261580Y-116838000D02*
X182980420Y-116838000D01*
X183261580Y-117858000D02*
X182980420Y-117858000D01*
%TO.C,C14*%
X136244420Y-70132000D02*
X136525580Y-70132000D01*
X136244420Y-71152000D02*
X136525580Y-71152000D01*
%TO.C,J1*%
X158132000Y-64770000D02*
X158132000Y-59580000D01*
X160892000Y-59580000D02*
X158132000Y-59580000D01*
X160892000Y-64770000D02*
X158132000Y-64770000D01*
X160892000Y-64770000D02*
X160892000Y-59580000D01*
X160892000Y-66040000D02*
X160892000Y-67420000D01*
X160892000Y-67420000D02*
X159512000Y-67420000D01*
%TO.C,C25*%
X146966420Y-104034000D02*
X147247580Y-104034000D01*
X146966420Y-105054000D02*
X147247580Y-105054000D01*
%TO.C,C3*%
X182980420Y-104288000D02*
X183261580Y-104288000D01*
X182980420Y-105308000D02*
X183261580Y-105308000D01*
%TO.C,J14*%
X184543000Y-61959000D02*
X184543000Y-60579000D01*
X185923000Y-61959000D02*
X184543000Y-61959000D01*
X187193000Y-59199000D02*
X189843000Y-59199000D01*
X187193000Y-61959000D02*
X187193000Y-59199000D01*
X187193000Y-61959000D02*
X189843000Y-61959000D01*
X189843000Y-61959000D02*
X189843000Y-59199000D01*
%TO.C,C10*%
X183261580Y-111818000D02*
X182980420Y-111818000D01*
X183261580Y-112838000D02*
X182980420Y-112838000D01*
%TO.C,C39*%
X150976420Y-109054000D02*
X151257580Y-109054000D01*
X150976420Y-110074000D02*
X151257580Y-110074000D01*
%TO.C,C38*%
X150976420Y-106544000D02*
X151257580Y-106544000D01*
X150976420Y-107564000D02*
X151257580Y-107564000D01*
%TO.C,J2*%
X157334000Y-84472000D02*
X158714000Y-84472000D01*
X157334000Y-85852000D02*
X157334000Y-84472000D01*
X157334000Y-87122000D02*
X157334000Y-94852000D01*
X157334000Y-87122000D02*
X160094000Y-87122000D01*
X157334000Y-94852000D02*
X160094000Y-94852000D01*
X160094000Y-87122000D02*
X160094000Y-94852000D01*
%TO.C,J13*%
X209869000Y-91724000D02*
X211869000Y-91724000D01*
X209869000Y-101124000D02*
X211869000Y-101124000D01*
X213769000Y-91724000D02*
X215669000Y-91724000D01*
X213769000Y-101124000D02*
X215669000Y-101124000D01*
X215669000Y-101124000D02*
X215669000Y-91724000D01*
%TO.C,C19*%
X179170420Y-114298000D02*
X179451580Y-114298000D01*
X179170420Y-115318000D02*
X179451580Y-115318000D01*
%TO.C,J4*%
X161924000Y-84472000D02*
X163304000Y-84472000D01*
X161924000Y-85852000D02*
X161924000Y-84472000D01*
X161924000Y-87122000D02*
X161924000Y-94852000D01*
X161924000Y-87122000D02*
X164684000Y-87122000D01*
X161924000Y-94852000D02*
X164684000Y-94852000D01*
X164684000Y-87122000D02*
X164684000Y-94852000D01*
%TO.C,U10*%
D13*
X102798000Y-95899100D02*
X104264000Y-95899100D01*
X104264000Y-85899100D02*
X102798000Y-85899100D01*
X104264000Y-95899100D02*
X104264000Y-85899100D01*
D14*
X107034000Y-95649100D02*
G75*
G02*
X106834000Y-95649100I-100000J0D01*
G01*
X106834000Y-95649100D02*
G75*
G02*
X107034000Y-95649100I100000J0D01*
G01*
%TO.C,J9*%
D12*
X108094000Y-70976000D02*
X108094000Y-69596000D01*
X109474000Y-70976000D02*
X108094000Y-70976000D01*
X110744000Y-68216000D02*
X113394000Y-68216000D01*
X110744000Y-70976000D02*
X110744000Y-68216000D01*
X110744000Y-70976000D02*
X113394000Y-70976000D01*
X113394000Y-70976000D02*
X113394000Y-68216000D01*
%TO.C,J5*%
X166514000Y-84472000D02*
X167894000Y-84472000D01*
X166514000Y-85852000D02*
X166514000Y-84472000D01*
X166514000Y-87122000D02*
X166514000Y-94852000D01*
X166514000Y-87122000D02*
X169274000Y-87122000D01*
X166514000Y-94852000D02*
X169274000Y-94852000D01*
X169274000Y-87122000D02*
X169274000Y-94852000D01*
D15*
%TO.C,G\u002A\u002A\u002A*%
G36*
X150803422Y-127190852D02*
G01*
X150924303Y-127227411D01*
X151017132Y-127301164D01*
X151082229Y-127412521D01*
X151119884Y-127561914D01*
X151127351Y-127632723D01*
X151124025Y-127780784D01*
X151095794Y-127925217D01*
X151046680Y-128055039D01*
X150980718Y-128159255D01*
X150912611Y-128220602D01*
X150844193Y-128245389D01*
X150749511Y-128258375D01*
X150648075Y-128258823D01*
X150559432Y-128245981D01*
X150527441Y-128235026D01*
X150445964Y-128173213D01*
X150386973Y-128076324D01*
X150352465Y-127951722D01*
X150344398Y-127806782D01*
X150364781Y-127648856D01*
X150366826Y-127639690D01*
X150419330Y-127472815D01*
X150491303Y-127341924D01*
X150580278Y-127249546D01*
X150683842Y-127198174D01*
X150799524Y-127190348D01*
X150803422Y-127190852D01*
G37*
G36*
X145988801Y-126626229D02*
G01*
X146078576Y-126683330D01*
X146140554Y-126778135D01*
X146174530Y-126910291D01*
X146180313Y-127079522D01*
X146178361Y-127113671D01*
X146159512Y-127255811D01*
X146125350Y-127390548D01*
X146079985Y-127505680D01*
X146027511Y-127588992D01*
X146013753Y-127603421D01*
X145909384Y-127675663D01*
X145791911Y-127714994D01*
X145673803Y-127719355D01*
X145567522Y-127686652D01*
X145555844Y-127679944D01*
X145471495Y-127602567D01*
X145415318Y-127496245D01*
X145386334Y-127369108D01*
X145383659Y-127229312D01*
X145406386Y-127085000D01*
X145453567Y-126944303D01*
X145524283Y-126815380D01*
X145617646Y-126706360D01*
X145670593Y-126663233D01*
X145746146Y-126623412D01*
X145836234Y-126607964D01*
X145871409Y-126607126D01*
X145988801Y-126626229D01*
G37*
G36*
X147526483Y-128008105D02*
G01*
X147567462Y-128038752D01*
X147567019Y-128071671D01*
X147528059Y-128114974D01*
X147489186Y-128174157D01*
X147484333Y-128239514D01*
X147509211Y-128286963D01*
X147559525Y-128310853D01*
X147640736Y-128310118D01*
X147756576Y-128284507D01*
X147810780Y-128268115D01*
X147969108Y-128228408D01*
X148106280Y-128220986D01*
X148236542Y-128247018D01*
X148374097Y-128307664D01*
X148388003Y-128315236D01*
X148517625Y-128377477D01*
X148623596Y-128406024D01*
X148713807Y-128402192D01*
X148774284Y-128379679D01*
X148836710Y-128329997D01*
X148853404Y-128269053D01*
X148824358Y-128197106D01*
X148797063Y-128161997D01*
X148750755Y-128094927D01*
X148740119Y-128043687D01*
X148765187Y-128014008D01*
X148796394Y-128008957D01*
X148862343Y-128029557D01*
X148929907Y-128082873D01*
X148988292Y-128156153D01*
X149026688Y-128236667D01*
X149035909Y-128291675D01*
X149014099Y-128385492D01*
X148954804Y-128467566D01*
X148867229Y-128532450D01*
X148760602Y-128574725D01*
X148644137Y-128588947D01*
X148552170Y-128577022D01*
X148496457Y-128556585D01*
X148416668Y-128519749D01*
X148329259Y-128474152D01*
X148321919Y-128470068D01*
X148232837Y-128424398D01*
X148156090Y-128398341D01*
X148078668Y-128391208D01*
X147987535Y-128402338D01*
X147869658Y-128431062D01*
X147822562Y-128444318D01*
X147672694Y-128472987D01*
X147540361Y-128470163D01*
X147431224Y-128437498D01*
X147350975Y-128376672D01*
X147306553Y-128293919D01*
X147301163Y-128214978D01*
X147323476Y-128136163D01*
X147365980Y-128067208D01*
X147421200Y-128017823D01*
X147481639Y-127997757D01*
X147526483Y-128008105D01*
G37*
G36*
X148150935Y-124222044D02*
G01*
X148175964Y-124222851D01*
X148693310Y-124257326D01*
X149178526Y-124324813D01*
X149633677Y-124425881D01*
X150060841Y-124561127D01*
X150462086Y-124731142D01*
X150839479Y-124936522D01*
X150967843Y-125017865D01*
X151068295Y-125082794D01*
X151142962Y-125126205D01*
X151204825Y-125153399D01*
X151266855Y-125169647D01*
X151342020Y-125180243D01*
X151374947Y-125183711D01*
X151706722Y-125233236D01*
X152036482Y-125312664D01*
X152343994Y-125417096D01*
X152346118Y-125417940D01*
X152411486Y-125445751D01*
X152511807Y-125490614D01*
X152639616Y-125549114D01*
X152787407Y-125617767D01*
X152947738Y-125693157D01*
X153111818Y-125771196D01*
X153383756Y-125900649D01*
X153618903Y-126010891D01*
X153822499Y-126103999D01*
X153999780Y-126182061D01*
X154156012Y-126247141D01*
X154296420Y-126301322D01*
X154426265Y-126346675D01*
X154550784Y-126385281D01*
X154675223Y-126419222D01*
X154804816Y-126450572D01*
X154858029Y-126462577D01*
X154980590Y-126487762D01*
X155107171Y-126509329D01*
X155243623Y-126527774D01*
X155395739Y-126543604D01*
X155569360Y-126557307D01*
X155770310Y-126569387D01*
X156004411Y-126580334D01*
X156277488Y-126590672D01*
X156398469Y-126594729D01*
X156588703Y-126601588D01*
X156774561Y-126609528D01*
X156947752Y-126618109D01*
X157099970Y-126626873D01*
X157222926Y-126635389D01*
X157308302Y-126643186D01*
X157317313Y-126644262D01*
X157643185Y-126701075D01*
X157938157Y-126785530D01*
X158199997Y-126896582D01*
X158426433Y-127033155D01*
X158615258Y-127194195D01*
X158713400Y-127307094D01*
X158801538Y-127436350D01*
X158888215Y-127588881D01*
X158965929Y-127749356D01*
X159027141Y-127902424D01*
X159060810Y-128016223D01*
X159085524Y-128170082D01*
X159098005Y-128349354D01*
X159098459Y-128538287D01*
X159087093Y-128721093D01*
X159064150Y-128882020D01*
X159047945Y-128950974D01*
X158958899Y-129194179D01*
X158831998Y-129416611D01*
X158670584Y-129617842D01*
X158484052Y-129792253D01*
X158271955Y-129937197D01*
X158032065Y-130053337D01*
X157762166Y-130141334D01*
X157460041Y-130201837D01*
X157123470Y-130235532D01*
X156750214Y-130243071D01*
X156586952Y-130238781D01*
X156138856Y-130205548D01*
X155685189Y-130141296D01*
X155235347Y-130048327D01*
X154798731Y-129928970D01*
X154384765Y-129785512D01*
X154002860Y-129620271D01*
X153940566Y-129589566D01*
X153813492Y-129520754D01*
X153669662Y-129434664D01*
X153516104Y-129336299D01*
X153359826Y-129230666D01*
X153207814Y-129122760D01*
X153067100Y-129017572D01*
X152944681Y-128920114D01*
X152847563Y-128835375D01*
X152782767Y-128768361D01*
X152774329Y-128757563D01*
X152737639Y-128713627D01*
X152711751Y-128692519D01*
X152709905Y-128692203D01*
X152697982Y-128713314D01*
X152684983Y-128767379D01*
X152678012Y-128811333D01*
X152655601Y-128920703D01*
X152617482Y-129049541D01*
X152569996Y-129179834D01*
X152519509Y-129293584D01*
X152487437Y-129351135D01*
X152360650Y-129510069D01*
X152193997Y-129655536D01*
X151993696Y-129783688D01*
X151766039Y-129890648D01*
X151517251Y-129972548D01*
X151459227Y-129987078D01*
X151361289Y-130006700D01*
X151234477Y-130027213D01*
X151093090Y-130046793D01*
X150951424Y-130063648D01*
X150823781Y-130075963D01*
X150724458Y-130081935D01*
X150705129Y-130082230D01*
X150692858Y-130088806D01*
X150690505Y-130112308D01*
X150699460Y-130158425D01*
X150721119Y-130232830D01*
X150756838Y-130341232D01*
X150795471Y-130453321D01*
X150920592Y-130835229D01*
X151017255Y-131182041D01*
X151085655Y-131496084D01*
X151125932Y-131779695D01*
X151138267Y-132035224D01*
X151122811Y-132264992D01*
X151079731Y-132471355D01*
X151009177Y-132656648D01*
X150957023Y-132753289D01*
X150911459Y-132834320D01*
X150886222Y-132900415D01*
X150875449Y-132973077D01*
X150873252Y-133059572D01*
X150861816Y-133231704D01*
X150830608Y-133400073D01*
X150783194Y-133548952D01*
X150743155Y-133631651D01*
X150644801Y-133761230D01*
X150523923Y-133858913D01*
X150388490Y-133920348D01*
X150246492Y-133941195D01*
X150183753Y-133936354D01*
X150073414Y-133907362D01*
X149941319Y-133853534D01*
X149800567Y-133781778D01*
X149664236Y-133698986D01*
X149545400Y-133612076D01*
X149507118Y-133579017D01*
X149472250Y-133549976D01*
X149440028Y-133537338D01*
X149395175Y-133539549D01*
X149322398Y-133555090D01*
X149306848Y-133558781D01*
X149050792Y-133607587D01*
X148761078Y-133641952D01*
X148448944Y-133661859D01*
X148125555Y-133667327D01*
X147802136Y-133658382D01*
X147489882Y-133635008D01*
X147199993Y-133597227D01*
X146991632Y-133556631D01*
X146843945Y-133522515D01*
X146694150Y-133675286D01*
X146529000Y-133818257D01*
X146356894Y-133916069D01*
X146174100Y-133970586D01*
X146075431Y-133982308D01*
X145928536Y-133981050D01*
X145815803Y-133956183D01*
X145688217Y-133886036D01*
X145568077Y-133776486D01*
X145460885Y-133635223D01*
X145372094Y-133469923D01*
X145307203Y-133288262D01*
X145290763Y-133220452D01*
X145271208Y-133139112D01*
X145253501Y-133096414D01*
X145233460Y-133084268D01*
X145221580Y-133086996D01*
X145045386Y-133141097D01*
X144839797Y-133178610D01*
X144619872Y-133198568D01*
X144400666Y-133200053D01*
X144197207Y-133182115D01*
X144076493Y-133158589D01*
X143822964Y-133074266D01*
X143596426Y-132957061D01*
X143400601Y-132809768D01*
X143239186Y-132635172D01*
X143116989Y-132438268D01*
X143039346Y-132255889D01*
X142989373Y-132074630D01*
X142963544Y-131878315D01*
X142959449Y-131754839D01*
X143198104Y-131754839D01*
X143226950Y-131991017D01*
X143301237Y-132223961D01*
X143346712Y-132322814D01*
X143468989Y-132517396D01*
X143622836Y-132677030D01*
X143808157Y-132801630D01*
X144024883Y-132891139D01*
X144200493Y-132933865D01*
X144281127Y-132942461D01*
X144392427Y-132946266D01*
X144521166Y-132945716D01*
X144654109Y-132941232D01*
X144778007Y-132933231D01*
X144879610Y-132922127D01*
X144939600Y-132910279D01*
X145034643Y-132870472D01*
X145106164Y-132817125D01*
X145144547Y-132758354D01*
X145148478Y-132734201D01*
X145139570Y-132681758D01*
X145116846Y-132607511D01*
X145099672Y-132562706D01*
X145050855Y-132445260D01*
X144858175Y-132446137D01*
X144665234Y-132428952D01*
X144497359Y-132373783D01*
X144348537Y-132278079D01*
X144255865Y-132189323D01*
X144158085Y-132057480D01*
X144100543Y-131915474D01*
X144079162Y-131752095D01*
X144079007Y-131704623D01*
X144100729Y-131554604D01*
X144161990Y-131417048D01*
X144265960Y-131285650D01*
X144314694Y-131238418D01*
X144402687Y-131168926D01*
X144496968Y-131112240D01*
X144587691Y-131072427D01*
X144664981Y-131053578D01*
X144718975Y-131059768D01*
X144729024Y-131066983D01*
X144747729Y-131094282D01*
X144746386Y-131101783D01*
X144606136Y-131204640D01*
X144501080Y-131291127D01*
X144425257Y-131367785D01*
X144372678Y-131441186D01*
X144337395Y-131517865D01*
X144322337Y-131566966D01*
X144310247Y-131699678D01*
X144341589Y-131827695D01*
X144412694Y-131944453D01*
X144519913Y-132043336D01*
X144618205Y-132100148D01*
X144730677Y-132142583D01*
X144826427Y-132153851D01*
X144903808Y-132141522D01*
X144923559Y-132133520D01*
X144937728Y-132116849D01*
X144947648Y-132084025D01*
X144954678Y-132027527D01*
X144960173Y-131939889D01*
X144962867Y-131875477D01*
X145245940Y-131875477D01*
X145248269Y-131964409D01*
X145261735Y-132146174D01*
X145288299Y-132295560D01*
X145331982Y-132426429D01*
X145396752Y-132552629D01*
X145436007Y-132614827D01*
X145472374Y-132674711D01*
X145496415Y-132731538D01*
X145511995Y-132799663D01*
X145523022Y-132893426D01*
X145528006Y-132953969D01*
X145550969Y-133148918D01*
X145588889Y-133306964D01*
X145644950Y-133436876D01*
X145722407Y-133547396D01*
X145762696Y-133590750D01*
X145815817Y-133636268D01*
X145884415Y-133685648D01*
X145952650Y-133728403D01*
X146004665Y-133754056D01*
X146013432Y-133756601D01*
X146036283Y-133749623D01*
X146090148Y-133730528D01*
X146143616Y-133710801D01*
X146272025Y-133641954D01*
X146382093Y-133548945D01*
X146495386Y-133433921D01*
X146393266Y-133384427D01*
X146314151Y-133339221D01*
X146240380Y-133285459D01*
X146181596Y-133231659D01*
X146147459Y-133186335D01*
X146143450Y-133164068D01*
X146162157Y-133128801D01*
X146193759Y-133109987D01*
X146244852Y-133107987D01*
X146322051Y-133123203D01*
X146431978Y-133156000D01*
X146520744Y-133185775D01*
X146772606Y-133267369D01*
X147003940Y-133330496D01*
X147226918Y-133377108D01*
X147453720Y-133409108D01*
X147696550Y-133428405D01*
X147967564Y-133436954D01*
X148117067Y-133437785D01*
X148406061Y-133432901D01*
X148659385Y-133417701D01*
X148887712Y-133390321D01*
X149101746Y-133348855D01*
X149312162Y-133291430D01*
X149529653Y-133216149D01*
X149658114Y-133165653D01*
X149766743Y-133123164D01*
X149860992Y-133089514D01*
X149931683Y-133067767D01*
X149969641Y-133060969D01*
X149972026Y-133061466D01*
X150001160Y-133093278D01*
X149996952Y-133147474D01*
X149961873Y-133215782D01*
X149904862Y-133283665D01*
X149849162Y-133336044D01*
X149805372Y-133371269D01*
X149787063Y-133380679D01*
X149766309Y-133395517D01*
X149775464Y-133433225D01*
X149810892Y-133483581D01*
X149831065Y-133504455D01*
X149936991Y-133582301D01*
X150058933Y-133634738D01*
X150184742Y-133659259D01*
X150302249Y-133653357D01*
X150390636Y-133620113D01*
X150441604Y-133574972D01*
X150496659Y-133505309D01*
X150527860Y-133454752D01*
X150592328Y-133289881D01*
X150610207Y-133118285D01*
X150581423Y-132940900D01*
X150578669Y-132931607D01*
X150536089Y-132790971D01*
X150610486Y-132702970D01*
X150727512Y-132541011D01*
X150807768Y-132371710D01*
X150853862Y-132186313D01*
X150868353Y-131976156D01*
X150863953Y-131849260D01*
X150849800Y-131692392D01*
X150826506Y-131535572D01*
X150792035Y-131370075D01*
X150744335Y-131187187D01*
X150681365Y-130978177D01*
X150606561Y-130750501D01*
X150540897Y-130557776D01*
X150487563Y-130405373D01*
X150444515Y-130288735D01*
X150409750Y-130203291D01*
X150381231Y-130144488D01*
X150356905Y-130107773D01*
X150334781Y-130088581D01*
X150312793Y-130082343D01*
X150309205Y-130082252D01*
X150278855Y-130087399D01*
X150268655Y-130111377D01*
X150274048Y-130166965D01*
X150275553Y-130176493D01*
X150280029Y-130237138D01*
X150267928Y-130268655D01*
X150236875Y-130269791D01*
X150184491Y-130239309D01*
X150108372Y-130175958D01*
X150006150Y-130078498D01*
X149918874Y-129990436D01*
X149747768Y-129824510D01*
X149598248Y-129699709D01*
X149469594Y-129615680D01*
X149361046Y-129572062D01*
X149271849Y-129568510D01*
X149201280Y-129604655D01*
X149174789Y-129634608D01*
X149133858Y-129722786D01*
X149107872Y-129847877D01*
X149096901Y-130002094D01*
X149100982Y-130177632D01*
X149120157Y-130366730D01*
X149154486Y-130561581D01*
X149168863Y-130624638D01*
X149188841Y-130712479D01*
X149196544Y-130766935D01*
X149192175Y-130800077D01*
X149175959Y-130823932D01*
X149172565Y-130827422D01*
X149125231Y-130849754D01*
X149074688Y-130829662D01*
X149023122Y-130771536D01*
X148972706Y-130679765D01*
X148925613Y-130558734D01*
X148884019Y-130412834D01*
X148850107Y-130246457D01*
X148835530Y-130147855D01*
X148832180Y-130112596D01*
X148828848Y-130085077D01*
X148820238Y-130063794D01*
X148801053Y-130047203D01*
X148766027Y-130033800D01*
X148709867Y-130022041D01*
X148627299Y-130010423D01*
X148513051Y-129997410D01*
X148361809Y-129981472D01*
X148199524Y-129964430D01*
X148047763Y-129948240D01*
X147904989Y-129932876D01*
X147780486Y-129919343D01*
X147683555Y-129908657D01*
X147623476Y-129901830D01*
X147620659Y-129901496D01*
X147512997Y-129888596D01*
X147460774Y-130086305D01*
X147406437Y-130262397D01*
X147343793Y-130415094D01*
X147275857Y-130539444D01*
X147205677Y-130630489D01*
X147136266Y-130683282D01*
X147089013Y-130694818D01*
X147045359Y-130687648D01*
X147024495Y-130661982D01*
X147026207Y-130611568D01*
X147050281Y-130530171D01*
X147080751Y-130450331D01*
X147172235Y-130187243D01*
X147226656Y-129945724D01*
X147245317Y-129719955D01*
X147245340Y-129712226D01*
X147243997Y-129612705D01*
X147238096Y-129547717D01*
X147224785Y-129504741D01*
X147201234Y-129471207D01*
X147187511Y-129456837D01*
X147130748Y-129416708D01*
X147072830Y-129399045D01*
X147070581Y-129398997D01*
X146968816Y-129416654D01*
X146840096Y-129468252D01*
X146687930Y-129551824D01*
X146515801Y-129665343D01*
X146327243Y-129806835D01*
X146255892Y-129864320D01*
X146162502Y-129930735D01*
X146091509Y-129961508D01*
X146046264Y-129958443D01*
X146030097Y-129923358D01*
X146046375Y-129858070D01*
X146091420Y-129775133D01*
X146130361Y-129711027D01*
X146154455Y-129664581D01*
X146158709Y-129647788D01*
X146131367Y-129639170D01*
X146080329Y-129631004D01*
X146051479Y-129629607D01*
X146027144Y-129637403D01*
X146002321Y-129660802D01*
X145972061Y-129706208D01*
X145931350Y-129780039D01*
X145875248Y-129888696D01*
X145865840Y-129907113D01*
X145786262Y-130072005D01*
X145698806Y-130268293D01*
X145609074Y-130482219D01*
X145522645Y-130700023D01*
X145445127Y-130907954D01*
X145382113Y-131092256D01*
X145376449Y-131110066D01*
X145314425Y-131324558D01*
X145273528Y-131513435D01*
X145251465Y-131691983D01*
X145245940Y-131875477D01*
X144962867Y-131875477D01*
X144965457Y-131813594D01*
X144966187Y-131794337D01*
X144981995Y-131570163D01*
X145013752Y-131352460D01*
X145064086Y-131129342D01*
X145135617Y-130888892D01*
X145214533Y-130663283D01*
X145306340Y-130414378D01*
X145220290Y-130379955D01*
X145084055Y-130339311D01*
X144917508Y-130310887D01*
X144734520Y-130295165D01*
X144548976Y-130292620D01*
X144374772Y-130303766D01*
X144225783Y-130329070D01*
X144175882Y-130343425D01*
X143937842Y-130442694D01*
X143736805Y-130569421D01*
X143569829Y-130726085D01*
X143433965Y-130915128D01*
X143384807Y-131006135D01*
X143276969Y-131264484D01*
X143214754Y-131513358D01*
X143198104Y-131754839D01*
X142959449Y-131754839D01*
X142957894Y-131707903D01*
X142975088Y-131426245D01*
X143028235Y-131172571D01*
X143119020Y-130942519D01*
X143249124Y-130731711D01*
X143404777Y-130551258D01*
X143616497Y-130366438D01*
X143849340Y-130220756D01*
X144100049Y-130113064D01*
X144171998Y-130088685D01*
X144233891Y-130071208D01*
X144295776Y-130059538D01*
X144367686Y-130052561D01*
X144459685Y-130049187D01*
X144581809Y-130048310D01*
X144689061Y-130048590D01*
X144852345Y-130050356D01*
X144978830Y-130054700D01*
X145078818Y-130062511D01*
X145162584Y-130074659D01*
X145240437Y-130092051D01*
X145262543Y-130097972D01*
X145435512Y-130145674D01*
X145553203Y-129896036D01*
X145601743Y-129792390D01*
X145644251Y-129700414D01*
X145675810Y-129630786D01*
X145690724Y-129596285D01*
X145696131Y-129574389D01*
X145688189Y-129555912D01*
X145660080Y-129537188D01*
X145605014Y-129514511D01*
X145516187Y-129484208D01*
X145435398Y-129458132D01*
X145225711Y-129386248D01*
X145016435Y-129305753D01*
X144817621Y-129220995D01*
X144639290Y-129136400D01*
X144491458Y-129056343D01*
X144429788Y-129017854D01*
X144194448Y-128837323D01*
X144001851Y-128637762D01*
X143852256Y-128419485D01*
X143833698Y-128378210D01*
X144136117Y-128378210D01*
X144149374Y-128410473D01*
X144182062Y-128459122D01*
X144222000Y-128508627D01*
X144257028Y-128543440D01*
X144271174Y-128550837D01*
X144267294Y-128536009D01*
X144239008Y-128500103D01*
X144236958Y-128497823D01*
X144192233Y-128442239D01*
X144162885Y-128397697D01*
X144143057Y-128371744D01*
X144136117Y-128378210D01*
X143833698Y-128378210D01*
X143745859Y-128182829D01*
X143685054Y-127941530D01*
X143658530Y-127780883D01*
X143313847Y-127933282D01*
X142960358Y-128084314D01*
X142635868Y-128211443D01*
X142330909Y-128317962D01*
X142036021Y-128407199D01*
X141753056Y-128479812D01*
X141385207Y-128550476D01*
X141022548Y-128589356D01*
X140669343Y-128597130D01*
X140329874Y-128574488D01*
X140008389Y-128522108D01*
X139709157Y-128440688D01*
X139436451Y-128330877D01*
X139194547Y-128193375D01*
X139000123Y-128040484D01*
X138785781Y-127815260D01*
X138600765Y-127565365D01*
X138450358Y-127299322D01*
X138339894Y-127025662D01*
X138313258Y-126935698D01*
X138284863Y-126795207D01*
X138266340Y-126630233D01*
X138257843Y-126454228D01*
X138258315Y-126406856D01*
X138544974Y-126406856D01*
X138549727Y-126598116D01*
X138569038Y-126760253D01*
X138606501Y-126909974D01*
X138665726Y-127063992D01*
X138705196Y-127149005D01*
X138861361Y-127421845D01*
X139047284Y-127658470D01*
X139262058Y-127858145D01*
X139504759Y-128020158D01*
X139774461Y-128143779D01*
X140070243Y-128228291D01*
X140085048Y-128231344D01*
X140337188Y-128275768D01*
X140570099Y-128301064D01*
X140795479Y-128306895D01*
X141025019Y-128292932D01*
X141270419Y-128258828D01*
X141543360Y-128204236D01*
X141618769Y-128187003D01*
X142019414Y-128086187D01*
X142381852Y-127979020D01*
X142714879Y-127862484D01*
X143027304Y-127733536D01*
X143269769Y-127618688D01*
X143408286Y-127548342D01*
X143511338Y-127491980D01*
X143585953Y-127443132D01*
X143639137Y-127395344D01*
X143677901Y-127342150D01*
X143709252Y-127277097D01*
X143740214Y-127193741D01*
X143744500Y-127181428D01*
X143881818Y-126850102D01*
X144053750Y-126544928D01*
X144257293Y-126270823D01*
X144378551Y-126138208D01*
X144492645Y-126029487D01*
X144593575Y-125947472D01*
X144676791Y-125895261D01*
X144737783Y-125875995D01*
X144756032Y-125878596D01*
X144784376Y-125897263D01*
X144790235Y-125927059D01*
X144771167Y-125973253D01*
X144724713Y-126041101D01*
X144648422Y-126135928D01*
X144621968Y-126167331D01*
X144401496Y-126449465D01*
X144225970Y-126723397D01*
X144094382Y-126991297D01*
X144005702Y-127255336D01*
X143958934Y-127517694D01*
X143952784Y-127598987D01*
X143950610Y-127782380D01*
X143966978Y-127938920D01*
X144004777Y-128086212D01*
X144054989Y-128215105D01*
X144090549Y-128289528D01*
X144116209Y-128330516D01*
X144129101Y-128335160D01*
X144126361Y-128300562D01*
X144122346Y-128283243D01*
X144123896Y-128213547D01*
X144152082Y-128126542D01*
X144200317Y-128038294D01*
X144247001Y-127979568D01*
X144345214Y-127907394D01*
X144478311Y-127853777D01*
X144637725Y-127819074D01*
X144814887Y-127803673D01*
X145001197Y-127807902D01*
X145188117Y-127832126D01*
X145367037Y-127876728D01*
X145497597Y-127926827D01*
X145640647Y-128006418D01*
X145740971Y-128097299D01*
X145802607Y-128205091D01*
X145829616Y-128335429D01*
X145831634Y-128391047D01*
X145813784Y-128524801D01*
X145760010Y-128629334D01*
X145669750Y-128705111D01*
X145542372Y-128752585D01*
X145377308Y-128772235D01*
X145336962Y-128772858D01*
X145178496Y-128766760D01*
X145005229Y-128749819D01*
X144829059Y-128724111D01*
X144661868Y-128691707D01*
X144515567Y-128654676D01*
X144402043Y-128615095D01*
X144383814Y-128606815D01*
X144346584Y-128590184D01*
X144338772Y-128592432D01*
X144362394Y-128617909D01*
X144409410Y-128661726D01*
X144566877Y-128783328D01*
X144769416Y-128900965D01*
X145015071Y-129013852D01*
X145301900Y-129121204D01*
X145627954Y-129222250D01*
X145991287Y-129316194D01*
X146089671Y-129338921D01*
X146430083Y-129415763D01*
X146539728Y-129336988D01*
X146716256Y-129226736D01*
X146881860Y-129158643D01*
X147041944Y-129130669D01*
X147082108Y-129129701D01*
X147231959Y-129148727D01*
X147351341Y-129203665D01*
X147439875Y-129294172D01*
X147497168Y-129419928D01*
X147513957Y-129495813D01*
X147532071Y-129561479D01*
X147564090Y-129592846D01*
X147581285Y-129598311D01*
X147630501Y-129606525D01*
X147717470Y-129618473D01*
X147833108Y-129633121D01*
X147968279Y-129649378D01*
X148113876Y-129666221D01*
X148260787Y-129682612D01*
X148399899Y-129697474D01*
X148522114Y-129709771D01*
X148618290Y-129718452D01*
X148636006Y-129719840D01*
X148836886Y-129734981D01*
X148878889Y-129601729D01*
X148942486Y-129462734D01*
X149031852Y-129362225D01*
X149144219Y-129301209D01*
X149276789Y-129280698D01*
X149426772Y-129301690D01*
X149566012Y-129352986D01*
X149649175Y-129403657D01*
X149753866Y-129486903D01*
X149873549Y-129597445D01*
X149895846Y-129619503D01*
X150107898Y-129831296D01*
X150309732Y-129841645D01*
X150477228Y-129843864D01*
X150671144Y-129836175D01*
X150876097Y-129819997D01*
X151076733Y-129796776D01*
X151257682Y-129767935D01*
X151375006Y-129742521D01*
X151511309Y-129701755D01*
X151652593Y-129648970D01*
X151785796Y-129589917D01*
X151897803Y-129530333D01*
X151969161Y-129481465D01*
X152016272Y-129442279D01*
X151969161Y-129457696D01*
X151859781Y-129486967D01*
X151746864Y-129502039D01*
X151618383Y-129503398D01*
X151462258Y-129491521D01*
X151374615Y-129481346D01*
X151168065Y-129452542D01*
X150999522Y-129422061D01*
X150859896Y-129387781D01*
X150740077Y-129347599D01*
X150669452Y-129317761D01*
X150563931Y-129256341D01*
X150498734Y-129182217D01*
X150467097Y-129085009D01*
X150461305Y-128997679D01*
X150480196Y-128868635D01*
X150538293Y-128762166D01*
X150637690Y-128675324D01*
X150722996Y-128629105D01*
X150881047Y-128577636D01*
X151066453Y-128551050D01*
X151267236Y-128548279D01*
X151471450Y-128568248D01*
X151667084Y-128609889D01*
X151842183Y-128672132D01*
X151965733Y-128740289D01*
X152066211Y-128827146D01*
X152127530Y-128927714D01*
X152154945Y-129052390D01*
X152157636Y-129118474D01*
X152154183Y-129214780D01*
X152141079Y-129281736D01*
X152114154Y-129336769D01*
X152101177Y-129355798D01*
X152044709Y-129434346D01*
X152132753Y-129351886D01*
X152239475Y-129222026D01*
X152325003Y-129055705D01*
X152388536Y-128858946D01*
X152429300Y-128637766D01*
X152446489Y-128398175D01*
X152439311Y-128146200D01*
X152407000Y-127887861D01*
X152355928Y-127655553D01*
X152325408Y-127558902D01*
X152280416Y-127437935D01*
X152227765Y-127310318D01*
X152189505Y-127225371D01*
X152132813Y-127099156D01*
X152099320Y-127008629D01*
X152088318Y-126948893D01*
X152099095Y-126915038D01*
X152130939Y-126902150D01*
X152142683Y-126901625D01*
X152196260Y-126923621D01*
X152258990Y-126986296D01*
X152328368Y-127084658D01*
X152401908Y-127213731D01*
X152477105Y-127368511D01*
X152551478Y-127544021D01*
X152622532Y-127735283D01*
X152687773Y-127937295D01*
X152723644Y-128063650D01*
X152756986Y-128173013D01*
X152796113Y-128279536D01*
X152833927Y-128364316D01*
X152843387Y-128381712D01*
X152904930Y-128469233D01*
X152995919Y-128574805D01*
X153107177Y-128689531D01*
X153229476Y-128804480D01*
X153353660Y-128910745D01*
X153470534Y-128999392D01*
X153500568Y-129019742D01*
X153767880Y-129178469D01*
X154073783Y-129330264D01*
X154409886Y-129471907D01*
X154767816Y-129600235D01*
X155139180Y-129712031D01*
X155515588Y-129804104D01*
X155608126Y-129823386D01*
X155790616Y-129858891D01*
X155948211Y-129886197D01*
X156091831Y-129906205D01*
X156232367Y-129919838D01*
X156380714Y-129928004D01*
X156547779Y-129931629D01*
X156744457Y-129931623D01*
X156881460Y-129930249D01*
X157067191Y-129927438D01*
X157213905Y-129923712D01*
X157329687Y-129918460D01*
X157422632Y-129911054D01*
X157500829Y-129900875D01*
X157572373Y-129887300D01*
X157635378Y-129872278D01*
X157856609Y-129803921D01*
X158044994Y-129717597D01*
X158213559Y-129606041D01*
X158375341Y-129462010D01*
X158378177Y-129459176D01*
X158520133Y-129301694D01*
X158626610Y-129145620D01*
X158702101Y-128980378D01*
X158751073Y-128795374D01*
X158778004Y-128580055D01*
X158782690Y-128503124D01*
X158787383Y-128369421D01*
X158785606Y-128265619D01*
X158776035Y-128174781D01*
X158757331Y-128079980D01*
X158745683Y-128031914D01*
X158679920Y-127817647D01*
X158596698Y-127637583D01*
X158489827Y-127480157D01*
X158391170Y-127370740D01*
X158303560Y-127289193D01*
X158212097Y-127218219D01*
X158112729Y-127156897D01*
X158001422Y-127104285D01*
X157874118Y-127059457D01*
X157726791Y-127021474D01*
X157555396Y-126989414D01*
X157355869Y-126962341D01*
X157124201Y-126939319D01*
X156856325Y-126919425D01*
X156548213Y-126901708D01*
X156306239Y-126890114D01*
X156007050Y-126875800D01*
X155748653Y-126861217D01*
X155524745Y-126845462D01*
X155329006Y-126827595D01*
X155155098Y-126806714D01*
X154996732Y-126781904D01*
X154847574Y-126752247D01*
X154701308Y-126716834D01*
X154551623Y-126674734D01*
X154392184Y-126625045D01*
X154325172Y-126603136D01*
X154149378Y-126543258D01*
X153983688Y-126482498D01*
X153819610Y-126417221D01*
X153648681Y-126343786D01*
X153462418Y-126258531D01*
X153252362Y-126157811D01*
X153010029Y-126037987D01*
X152997256Y-126031605D01*
X152749755Y-125909097D01*
X152537729Y-125807176D01*
X152355493Y-125723375D01*
X152197429Y-125655246D01*
X152057882Y-125600332D01*
X151931209Y-125556183D01*
X151836690Y-125527354D01*
X151680487Y-125485364D01*
X151562677Y-125459578D01*
X151484799Y-125450222D01*
X151448413Y-125457509D01*
X151447031Y-125469717D01*
X151498038Y-125604129D01*
X151524211Y-125698794D01*
X151525241Y-125754171D01*
X151500801Y-125770791D01*
X151450558Y-125749115D01*
X151374204Y-125689644D01*
X151329120Y-125648712D01*
X151043527Y-125398619D01*
X150760991Y-125189047D01*
X150472851Y-125014834D01*
X150170482Y-124870855D01*
X149845229Y-124751959D01*
X149796716Y-124736817D01*
X149451772Y-124637880D01*
X149136138Y-124562358D01*
X148839061Y-124508844D01*
X148549795Y-124475927D01*
X148257597Y-124462200D01*
X147951719Y-124466240D01*
X147795077Y-124474205D01*
X147470748Y-124498818D01*
X147184607Y-124531522D01*
X146928081Y-124574401D01*
X146692624Y-124629540D01*
X146469689Y-124699027D01*
X146250686Y-124784962D01*
X146027096Y-124889436D01*
X145963866Y-124921580D01*
X145886153Y-124958620D01*
X145820408Y-124984508D01*
X145783805Y-124993250D01*
X145739825Y-124979261D01*
X145731868Y-124940895D01*
X145759440Y-124883567D01*
X145798054Y-124836720D01*
X145841097Y-124783817D01*
X145861840Y-124743205D01*
X145860325Y-124729700D01*
X145817487Y-124708413D01*
X145737564Y-124687443D01*
X145630582Y-124668283D01*
X145506575Y-124652409D01*
X145375538Y-124641295D01*
X145247523Y-124636452D01*
X145229323Y-124636354D01*
X145053567Y-124640713D01*
X144885693Y-124655229D01*
X144717470Y-124681835D01*
X144540650Y-124722397D01*
X144347000Y-124778832D01*
X144128269Y-124853037D01*
X143876225Y-124946916D01*
X143866417Y-124950699D01*
X143402017Y-125118211D01*
X142962606Y-125252608D01*
X142541157Y-125355311D01*
X142130660Y-125427786D01*
X141724077Y-125471467D01*
X141314407Y-125487812D01*
X141263580Y-125488012D01*
X141039353Y-125485546D01*
X140844579Y-125477016D01*
X140662454Y-125460750D01*
X140476189Y-125435060D01*
X140268982Y-125398268D01*
X140166690Y-125378084D01*
X139875724Y-125335350D01*
X139609109Y-125329033D01*
X139368373Y-125358911D01*
X139155044Y-125424710D01*
X138970669Y-125526178D01*
X138893208Y-125587215D01*
X138753244Y-125731453D01*
X138651773Y-125887065D01*
X138585561Y-126061575D01*
X138551443Y-126262495D01*
X138544974Y-126406856D01*
X138258315Y-126406856D01*
X138259570Y-126280673D01*
X138271675Y-126123055D01*
X138294334Y-125994839D01*
X138300816Y-125971709D01*
X138392105Y-125741530D01*
X138515069Y-125544965D01*
X138670598Y-125381295D01*
X138859610Y-125249810D01*
X139082989Y-125149802D01*
X139341646Y-125080544D01*
X139451646Y-125061822D01*
X139673740Y-125044903D01*
X139929510Y-125053380D01*
X140213195Y-125086870D01*
X140412874Y-125122510D01*
X140683079Y-125171166D01*
X140926287Y-125201755D01*
X141158565Y-125215451D01*
X141395931Y-125213387D01*
X141556639Y-125204424D01*
X141766969Y-125186495D01*
X141971654Y-125162321D01*
X142176673Y-125130530D01*
X142388030Y-125089712D01*
X142611726Y-125038470D01*
X142853762Y-124975401D01*
X143120139Y-124899131D01*
X143416840Y-124808239D01*
X143749888Y-124701332D01*
X143829109Y-124675368D01*
X144014144Y-124615063D01*
X144191096Y-124558391D01*
X144353387Y-124507383D01*
X144494410Y-124464080D01*
X144607571Y-124430516D01*
X144686290Y-124408719D01*
X144712616Y-124402466D01*
X144811160Y-124388979D01*
X144943736Y-124380064D01*
X145097460Y-124375727D01*
X145259483Y-124375984D01*
X145416918Y-124380821D01*
X145556894Y-124390255D01*
X145655025Y-124402284D01*
X145760598Y-124421683D01*
X145886634Y-124447694D01*
X146007968Y-124475106D01*
X146021978Y-124478474D01*
X146224005Y-124527455D01*
X146516741Y-124443012D01*
X146867219Y-124350556D01*
X147192712Y-124283984D01*
X147506371Y-124241530D01*
X147821386Y-124221476D01*
X148150935Y-124222044D01*
G37*
%TO.C,R10*%
D12*
X125269258Y-98664500D02*
X124794742Y-98664500D01*
X125269258Y-99709500D02*
X124794742Y-99709500D01*
%TO.C,C44*%
X150976420Y-116584000D02*
X151257580Y-116584000D01*
X150976420Y-117604000D02*
X151257580Y-117604000D01*
%TO.C,U8*%
D13*
X140736000Y-76732000D02*
X140736000Y-77287000D01*
X140736000Y-79177000D02*
X140736000Y-79732000D01*
X140791000Y-76732000D02*
X140736000Y-76732000D01*
X140791000Y-79732000D02*
X140736000Y-79732000D01*
X143236000Y-76732000D02*
X143181000Y-76732000D01*
X143236000Y-76732000D02*
X143236000Y-77287000D01*
X143236000Y-79177000D02*
X143236000Y-79732000D01*
X143236000Y-79732000D02*
X143181000Y-79732000D01*
D11*
X142961000Y-76232000D02*
G75*
G02*
X142811000Y-76232000I-75000J0D01*
G01*
X142811000Y-76232000D02*
G75*
G02*
X142961000Y-76232000I75000J0D01*
G01*
%TO.C,C33*%
D12*
X146966420Y-114074000D02*
X147247580Y-114074000D01*
X146966420Y-115094000D02*
X147247580Y-115094000D01*
%TO.C,C15*%
X136525580Y-72642000D02*
X136244420Y-72642000D01*
X136525580Y-73662000D02*
X136244420Y-73662000D01*
%TO.C,C20*%
X179170420Y-116808000D02*
X179451580Y-116808000D01*
X179170420Y-117828000D02*
X179451580Y-117828000D01*
%TO.C,U11*%
D13*
X102284000Y-117014000D02*
X103750000Y-117014000D01*
X103750000Y-107014000D02*
X102284000Y-107014000D01*
X103750000Y-117014000D02*
X103750000Y-107014000D01*
D14*
X106520000Y-116764000D02*
G75*
G02*
X106320000Y-116764000I-100000J0D01*
G01*
X106320000Y-116764000D02*
G75*
G02*
X106520000Y-116764000I100000J0D01*
G01*
%TO.C,C34*%
D12*
X146966420Y-116584000D02*
X147247580Y-116584000D01*
X146966420Y-117604000D02*
X147247580Y-117604000D01*
%TO.C,C32*%
X146966420Y-111564000D02*
X147247580Y-111564000D01*
X146966420Y-112584000D02*
X147247580Y-112584000D01*
%TO.C,U12*%
D13*
X127632000Y-107014000D02*
X127632000Y-117014000D01*
X127632000Y-117014000D02*
X129098000Y-117014000D01*
X129098000Y-107014000D02*
X127632000Y-107014000D01*
D14*
X125062000Y-107264000D02*
G75*
G02*
X124862000Y-107264000I-100000J0D01*
G01*
X124862000Y-107264000D02*
G75*
G02*
X125062000Y-107264000I100000J0D01*
G01*
%TO.C,C2*%
D12*
X182980420Y-101778000D02*
X183261580Y-101778000D01*
X182980420Y-102798000D02*
X183261580Y-102798000D01*
%TO.C,J10*%
X184044200Y-134256000D02*
X184044200Y-137016000D01*
X186694200Y-134256000D02*
X184044200Y-134256000D01*
X186694200Y-134256000D02*
X186694200Y-137016000D01*
X186694200Y-137016000D02*
X184044200Y-137016000D01*
X187964200Y-134256000D02*
X189344200Y-134256000D01*
X189344200Y-134256000D02*
X189344200Y-135636000D01*
%TO.C,C11*%
X182980420Y-114328000D02*
X183261580Y-114328000D01*
X182980420Y-115348000D02*
X183261580Y-115348000D01*
%TO.C,C9*%
X182980420Y-109308000D02*
X183261580Y-109308000D01*
X182980420Y-110328000D02*
X183261580Y-110328000D01*
%TO.C,C1*%
X183261580Y-99268000D02*
X182980420Y-99268000D01*
X183261580Y-100288000D02*
X182980420Y-100288000D01*
%TO.C,C4*%
X183261580Y-106798000D02*
X182980420Y-106798000D01*
X183261580Y-107818000D02*
X182980420Y-107818000D01*
%TO.C,R13*%
X124286742Y-119492500D02*
X124761258Y-119492500D01*
X124286742Y-120537500D02*
X124761258Y-120537500D01*
%TO.C,C26*%
X146966420Y-106544000D02*
X147247580Y-106544000D01*
X146966420Y-107564000D02*
X147247580Y-107564000D01*
%TO.C,C37*%
X150976420Y-104034000D02*
X151257580Y-104034000D01*
X150976420Y-105054000D02*
X151257580Y-105054000D01*
%TO.C,J15*%
X107459000Y-126255000D02*
X107459000Y-129015000D01*
X110109000Y-126255000D02*
X107459000Y-126255000D01*
X110109000Y-126255000D02*
X110109000Y-129015000D01*
X110109000Y-129015000D02*
X107459000Y-129015000D01*
X111379000Y-126255000D02*
X112759000Y-126255000D01*
X112759000Y-126255000D02*
X112759000Y-127635000D01*
%TO.C,U1*%
X139475000Y-53600000D02*
X139475000Y-56050000D01*
X139475000Y-53600000D02*
X141925000Y-53600000D01*
X139750000Y-53850000D02*
X155350000Y-53850000D01*
X139750000Y-74550000D02*
X139750000Y-53850000D01*
X155350000Y-53850000D02*
X155350000Y-74550000D01*
X155350000Y-74550000D02*
X139750000Y-74550000D01*
X139575000Y-60800000D02*
X139239000Y-61040000D01*
X139239000Y-60560000D01*
X139575000Y-60800000D01*
G36*
X139575000Y-60800000D02*
G01*
X139239000Y-61040000D01*
X139239000Y-60560000D01*
X139575000Y-60800000D01*
G37*
%TO.C,J7*%
X130464000Y-67708000D02*
X131844000Y-67708000D01*
X130464000Y-69088000D02*
X130464000Y-67708000D01*
X130464000Y-70358000D02*
X130464000Y-75548000D01*
X130464000Y-70358000D02*
X133224000Y-70358000D01*
X130464000Y-75548000D02*
X133224000Y-75548000D01*
X133224000Y-70358000D02*
X133224000Y-75548000D01*
%TO.C,C42*%
X150976420Y-111564000D02*
X151257580Y-111564000D01*
X150976420Y-112584000D02*
X151257580Y-112584000D01*
%TD*%
M02*
