%TF.GenerationSoftware,KiCad,Pcbnew,10.0.1*%
%TF.CreationDate,2026-05-31T11:58:53+05:30*%
%TF.ProjectId,rc-car,72632d63-6172-42e6-9b69-6361645f7063,rev?*%
%TF.SameCoordinates,Original*%
%TF.FileFunction,Copper,L1,Top*%
%TF.FilePolarity,Positive*%
%FSLAX46Y46*%
G04 Gerber Fmt 4.6, Leading zero omitted, Abs format (unit mm)*
G04 Created by KiCad (PCBNEW 10.0.1) date 2026-05-31 11:58:53*
%MOMM*%
%LPD*%
G01*
G04 APERTURE LIST*
G04 Aperture macros list*
%AMRoundRect*
0 Rectangle with rounded corners*
0 $1 Rounding radius*
0 $2 $3 $4 $5 $6 $7 $8 $9 X,Y pos of 4 corners*
0 Add a 4 corners polygon primitive as box body*
4,1,4,$2,$3,$4,$5,$6,$7,$8,$9,$2,$3,0*
0 Add four circle primitives for the rounded corners*
1,1,$1+$1,$2,$3*
1,1,$1+$1,$4,$5*
1,1,$1+$1,$6,$7*
1,1,$1+$1,$8,$9*
0 Add four rect primitives between the rounded corners*
20,1,$1+$1,$2,$3,$4,$5,0*
20,1,$1+$1,$4,$5,$6,$7,0*
20,1,$1+$1,$6,$7,$8,$9,0*
20,1,$1+$1,$8,$9,$2,$3,0*%
%AMOutline5P*
0 Free polygon, 5 corners , with rotation*
0 The origin of the aperture is its center*
0 number of corners: always 5*
0 $1 to $10 corner X, Y*
0 $11 Rotation angle, in degrees counterclockwise*
0 create outline with 5 corners*
4,1,5,$1,$2,$3,$4,$5,$6,$7,$8,$9,$10,$1,$2,$11*%
%AMOutline6P*
0 Free polygon, 6 corners , with rotation*
0 The origin of the aperture is its center*
0 number of corners: always 6*
0 $1 to $12 corner X, Y*
0 $13 Rotation angle, in degrees counterclockwise*
0 create outline with 6 corners*
4,1,6,$1,$2,$3,$4,$5,$6,$7,$8,$9,$10,$11,$12,$1,$2,$13*%
%AMOutline7P*
0 Free polygon, 7 corners , with rotation*
0 The origin of the aperture is its center*
0 number of corners: always 7*
0 $1 to $14 corner X, Y*
0 $15 Rotation angle, in degrees counterclockwise*
0 create outline with 7 corners*
4,1,7,$1,$2,$3,$4,$5,$6,$7,$8,$9,$10,$11,$12,$13,$14,$1,$2,$15*%
%AMOutline8P*
0 Free polygon, 8 corners , with rotation*
0 The origin of the aperture is its center*
0 number of corners: always 8*
0 $1 to $16 corner X, Y*
0 $17 Rotation angle, in degrees counterclockwise*
0 create outline with 8 corners*
4,1,8,$1,$2,$3,$4,$5,$6,$7,$8,$9,$10,$11,$12,$13,$14,$15,$16,$1,$2,$17*%
G04 Aperture macros list end*
%TA.AperFunction,SMDPad,CuDef*%
%ADD10RoundRect,0.087500X-0.162500X-0.087500X0.162500X-0.087500X0.162500X0.087500X-0.162500X0.087500X0*%
%TD*%
%TA.AperFunction,SMDPad,CuDef*%
%ADD11RoundRect,0.225000X-0.225000X-0.250000X0.225000X-0.250000X0.225000X0.250000X-0.225000X0.250000X0*%
%TD*%
%TA.AperFunction,SMDPad,CuDef*%
%ADD12RoundRect,0.200000X-0.200000X-0.275000X0.200000X-0.275000X0.200000X0.275000X-0.200000X0.275000X0*%
%TD*%
%TA.AperFunction,ComponentPad*%
%ADD13R,1.700000X1.700000*%
%TD*%
%TA.AperFunction,ComponentPad*%
%ADD14C,1.700000*%
%TD*%
%TA.AperFunction,SMDPad,CuDef*%
%ADD15RoundRect,0.150000X-0.512500X-0.150000X0.512500X-0.150000X0.512500X0.150000X-0.512500X0.150000X0*%
%TD*%
%TA.AperFunction,SMDPad,CuDef*%
%ADD16R,4.600000X0.800000*%
%TD*%
%TA.AperFunction,SMDPad,CuDef*%
%ADD17R,9.400000X10.800000*%
%TD*%
%TA.AperFunction,SMDPad,CuDef*%
%ADD18RoundRect,0.200000X0.200000X-0.700000X0.200000X0.700000X-0.200000X0.700000X-0.200000X-0.700000X0*%
%TD*%
%TA.AperFunction,SMDPad,CuDef*%
%ADD19RoundRect,0.225000X0.225000X0.250000X-0.225000X0.250000X-0.225000X-0.250000X0.225000X-0.250000X0*%
%TD*%
%TA.AperFunction,SMDPad,CuDef*%
%ADD20RoundRect,0.150000X0.575000X-0.150000X0.575000X0.150000X-0.575000X0.150000X-0.575000X-0.150000X0*%
%TD*%
%TA.AperFunction,SMDPad,CuDef*%
%ADD21RoundRect,0.075000X0.650000X-0.075000X0.650000X0.075000X-0.650000X0.075000X-0.650000X-0.075000X0*%
%TD*%
%TA.AperFunction,ComponentPad*%
%ADD22O,2.100000X1.000000*%
%TD*%
%TA.AperFunction,ComponentPad*%
%ADD23O,1.600000X1.000000*%
%TD*%
%TA.AperFunction,SMDPad,CuDef*%
%ADD24RoundRect,0.200000X0.200000X0.275000X-0.200000X0.275000X-0.200000X-0.275000X0.200000X-0.275000X0*%
%TD*%
%TA.AperFunction,SMDPad,CuDef*%
%ADD25R,0.250000X0.475000*%
%TD*%
%TA.AperFunction,SMDPad,CuDef*%
%ADD26R,0.475000X0.250000*%
%TD*%
%TA.AperFunction,SMDPad,CuDef*%
%ADD27R,0.800000X0.400000*%
%TD*%
%TA.AperFunction,SMDPad,CuDef*%
%ADD28R,0.400000X0.800000*%
%TD*%
%TA.AperFunction,HeatsinkPad*%
%ADD29Outline5P,-0.600000X0.204000X-0.204000X0.600000X0.600000X0.600000X0.600000X-0.600000X-0.600000X-0.600000X0.000000*%
%TD*%
%TA.AperFunction,HeatsinkPad*%
%ADD30R,1.200000X1.200000*%
%TD*%
%TA.AperFunction,SMDPad,CuDef*%
%ADD31R,0.800000X0.800000*%
%TD*%
%TA.AperFunction,ComponentPad*%
%ADD32RoundRect,0.250000X0.600000X0.725000X-0.600000X0.725000X-0.600000X-0.725000X0.600000X-0.725000X0*%
%TD*%
%TA.AperFunction,ComponentPad*%
%ADD33O,1.700000X1.950000*%
%TD*%
%TA.AperFunction,ComponentPad*%
%ADD34C,2.550000*%
%TD*%
%TA.AperFunction,ComponentPad*%
%ADD35R,2.550000X2.550000*%
%TD*%
%TA.AperFunction,ComponentPad*%
%ADD36C,1.508000*%
%TD*%
%TA.AperFunction,HeatsinkPad*%
%ADD37C,0.600000*%
%TD*%
%TA.AperFunction,HeatsinkPad*%
%ADD38R,1.600000X1.600000*%
%TD*%
%TA.AperFunction,ViaPad*%
%ADD39C,0.600000*%
%TD*%
%TA.AperFunction,Conductor*%
%ADD40C,0.200000*%
%TD*%
G04 APERTURE END LIST*
D10*
%TO.P,U7,1,VDD_1*%
%TO.N,3v3*%
X135800000Y-63246000D03*
%TO.P,U7,2,GND_2*%
%TO.N,GND*%
X135800000Y-64066000D03*
%TO.P,U7,3,GPIO0_3*%
%TO.N,/IO0*%
X135800000Y-64886000D03*
%TO.P,U7,4,INT_4*%
%TO.N,/INT*%
X135800000Y-65706000D03*
%TO.P,U7,5,SCL_5*%
%TO.N,/SCL*%
X135800000Y-66526000D03*
%TO.P,U7,6,SDA_6*%
%TO.N,/SDA*%
X135800000Y-67346000D03*
%TO.P,U7,7,VDD_7*%
%TO.N,3v3*%
X137160000Y-67346000D03*
%TO.P,U7,8,GND_8*%
%TO.N,GND*%
X137160000Y-66526000D03*
%TO.P,U7,9,EN_9*%
%TO.N,3v3*%
X137160000Y-65706000D03*
%TO.P,U7,10,GPIO1_10*%
%TO.N,/IO1*%
X137160000Y-64886000D03*
%TO.P,U7,11,GND_11*%
%TO.N,GND*%
X137160000Y-64066000D03*
%TO.P,U7,12,VDD_12*%
%TO.N,3v3*%
X137160000Y-63246000D03*
%TD*%
D11*
%TO.P,C43,1*%
%TO.N,VBAT_12V*%
X150342000Y-114584000D03*
%TO.P,C43,2*%
%TO.N,GND*%
X151892000Y-114584000D03*
%TD*%
D12*
%TO.P,R12,1*%
%TO.N,Net-(U11-SR)*%
X105460800Y-105206800D03*
%TO.P,R12,2*%
%TO.N,GND*%
X107110800Y-105206800D03*
%TD*%
D13*
%TO.P,J6,1,Pin_1_1*%
%TO.N,GND*%
X127254000Y-69088000D03*
D14*
%TO.P,J6,2,Pin_2_2*%
%TO.N,VBAT_5V*%
X127254000Y-71628000D03*
%TO.P,J6,3,Pin_3_3*%
%TO.N,/servo*%
X127254000Y-74168000D03*
%TD*%
D11*
%TO.P,C23,1*%
%TO.N,3v3*%
X178549000Y-110012000D03*
%TO.P,C23,2*%
%TO.N,GND*%
X180099000Y-110012000D03*
%TD*%
D15*
%TO.P,U2,1,VIN_1*%
%TO.N,VBAT_5V*%
X135209700Y-77383600D03*
%TO.P,U2,2,GND_2*%
%TO.N,GND*%
X135209700Y-78333600D03*
%TO.P,U2,3,EN_3*%
%TO.N,unconnected-(U2-EN-Pad3)*%
X135209700Y-79283600D03*
%TO.P,U2,4,NC_4*%
%TO.N,unconnected-(U2-NC-Pad4)*%
X137484700Y-79283600D03*
%TO.P,U2,5,VOUT_5*%
%TO.N,3v3*%
X137484700Y-77383600D03*
%TD*%
D11*
%TO.P,C27,1*%
%TO.N,VBAT_12V*%
X146332000Y-109564000D03*
%TO.P,C27,2*%
%TO.N,GND*%
X147882000Y-109564000D03*
%TD*%
D13*
%TO.P,J3,1,Pin_1_1*%
%TO.N,GND*%
X141020800Y-83007200D03*
D14*
%TO.P,J3,2,Pin_2_2*%
%TO.N,3v3*%
X143560800Y-83007200D03*
%TO.P,J3,3,Pin_3_3*%
%TO.N,/SCL*%
X146100800Y-83007200D03*
%TO.P,J3,4,Pin_4_4*%
%TO.N,/SDA*%
X148640800Y-83007200D03*
%TD*%
D11*
%TO.P,C24,1*%
%TO.N,3v3*%
X178549000Y-112522000D03*
%TO.P,C24,2*%
%TO.N,GND*%
X180099000Y-112522000D03*
%TD*%
D16*
%TO.P,U9,1,GND_1*%
%TO.N,GND*%
X125476000Y-87089100D03*
%TO.P,U9,2,IN_2*%
%TO.N,/AIN1*%
X125476000Y-88359100D03*
%TO.P,U9,3,INH_3*%
%TO.N,/PWMA*%
X125476000Y-89629100D03*
%TO.P,U9,4,OUT_4*%
%TO.N,/Motor driver/M1AO1*%
X125476000Y-90899100D03*
%TO.P,U9,5,SR_5*%
%TO.N,Net-(U9-SR)*%
X125476000Y-92169100D03*
%TO.P,U9,6,IS_6*%
%TO.N,unconnected-(U9-IS-Pad6)*%
X125476000Y-93439100D03*
%TO.P,U9,7,VS_7*%
%TO.N,VBAT_12V*%
X125476000Y-94709100D03*
D17*
%TO.P,U9,8,OUT_8*%
%TO.N,/Motor driver/M1AO1*%
X134626000Y-90899100D03*
%TD*%
D12*
%TO.P,R11,1*%
%TO.N,Net-(U10-SR)*%
X106871000Y-83058000D03*
%TO.P,R11,2*%
%TO.N,GND*%
X108521000Y-83058000D03*
%TD*%
D18*
%TO.P,U3,1,~{SAFEBOOT}_1*%
%TO.N,/SB*%
X167556000Y-73700000D03*
%TO.P,U3,2,D_SEL_2*%
%TO.N,GND*%
X168656000Y-73700000D03*
%TO.P,U3,3,TIMEPULSE_3*%
%TO.N,/TP*%
X169756000Y-73700000D03*
%TO.P,U3,4,EXTINT_4*%
%TO.N,/EXTINT*%
X170856000Y-73700000D03*
%TO.P,U3,5,USB_DM_5*%
%TO.N,unconnected-(U3-USB_DM-Pad5)*%
X171956000Y-73700000D03*
%TO.P,U3,6,USB_DP_6*%
%TO.N,unconnected-(U3-USB_DP-Pad6)*%
X173056000Y-73700000D03*
%TO.P,U3,7,VDD_USB_7*%
%TO.N,3v3*%
X174156000Y-73700000D03*
%TO.P,U3,8,~{RESET}_8*%
%TO.N,/RESET*%
X177156000Y-73700000D03*
%TO.P,U3,9,VCC_RF_9*%
%TO.N,3v3*%
X178256000Y-73700000D03*
%TO.P,U3,10,GND_10*%
%TO.N,GND*%
X179356000Y-73700000D03*
%TO.P,U3,11,RF_IN_11*%
%TO.N,unconnected-(U3-RF_IN-Pad11)*%
X180456000Y-73700000D03*
%TO.P,U3,12,GND_12*%
%TO.N,GND*%
X181556000Y-73700000D03*
%TO.P,U3,13,GND_13*%
X181556000Y-61700000D03*
%TO.P,U3,14,RESERVED_14*%
%TO.N,unconnected-(U3-RESERVED-Pad14)*%
X180456000Y-61700000D03*
%TO.P,U3,15,RESERVED_15*%
%TO.N,unconnected-(U3-RESERVED-Pad15)*%
X179356000Y-61700000D03*
%TO.P,U3,16,RESERVED_16*%
%TO.N,unconnected-(U3-RESERVED-Pad16)*%
X178256000Y-61700000D03*
%TO.P,U3,17,RESERVED_17*%
%TO.N,unconnected-(U3-RESERVED-Pad17)*%
X177156000Y-61700000D03*
%TO.P,U3,18,SDA/~{SPI_CS}_18*%
%TO.N,/SDA*%
X174156000Y-61700000D03*
%TO.P,U3,19,SCL/SPI_CLK_19*%
%TO.N,/SCL*%
X173056000Y-61700000D03*
%TO.P,U3,20,TXD/SPI_MISO_20*%
%TO.N,/RX*%
X171956000Y-61700000D03*
%TO.P,U3,21,RXD/SPI_MOSI_21*%
%TO.N,/TX*%
X170856000Y-61700000D03*
%TO.P,U3,22,V_BCKP_22*%
%TO.N,3v3*%
X169756000Y-61700000D03*
%TO.P,U3,23,VCC_23*%
X168656000Y-61700000D03*
%TO.P,U3,24,GND_24*%
%TO.N,GND*%
X167556000Y-61700000D03*
%TD*%
D19*
%TO.P,C12,1*%
%TO.N,3v3*%
X183896000Y-117348000D03*
%TO.P,C12,2*%
%TO.N,GND*%
X182346000Y-117348000D03*
%TD*%
D11*
%TO.P,C14,1*%
%TO.N,VBAT_5V*%
X135610000Y-70642000D03*
%TO.P,C14,2*%
%TO.N,GND*%
X137160000Y-70642000D03*
%TD*%
D13*
%TO.P,J1,1,Pin_1_1*%
%TO.N,/TX*%
X159512000Y-66040000D03*
D14*
%TO.P,J1,2,Pin_2_2*%
%TO.N,/RX*%
X159512000Y-63500000D03*
%TO.P,J1,3,Pin_3_3*%
%TO.N,GND*%
X159512000Y-60960000D03*
%TD*%
D11*
%TO.P,C25,1*%
%TO.N,VBAT_12V*%
X146332000Y-104544000D03*
%TO.P,C25,2*%
%TO.N,GND*%
X147882000Y-104544000D03*
%TD*%
%TO.P,C3,1*%
%TO.N,GND*%
X182346000Y-104798000D03*
%TO.P,C3,2*%
%TO.N,3v3*%
X183896000Y-104798000D03*
%TD*%
D13*
%TO.P,J14,1,Pin_1_1*%
%TO.N,/Motor driver/M1AO2*%
X185923000Y-60579000D03*
D14*
%TO.P,J14,2,Pin_2_2*%
%TO.N,/Motor driver/M1AO1*%
X188463000Y-60579000D03*
%TD*%
D19*
%TO.P,C10,1*%
%TO.N,3v3*%
X183896000Y-112328000D03*
%TO.P,C10,2*%
%TO.N,GND*%
X182346000Y-112328000D03*
%TD*%
D11*
%TO.P,C39,1*%
%TO.N,VBAT_12V*%
X150342000Y-109564000D03*
%TO.P,C39,2*%
%TO.N,GND*%
X151892000Y-109564000D03*
%TD*%
%TO.P,C38,1*%
%TO.N,VBAT_12V*%
X150342000Y-107054000D03*
%TO.P,C38,2*%
%TO.N,GND*%
X151892000Y-107054000D03*
%TD*%
D13*
%TO.P,J2,1,Pin_1_1*%
%TO.N,3v3*%
X158714000Y-85852000D03*
D14*
%TO.P,J2,2,Pin_2_2*%
%TO.N,/trig1*%
X158714000Y-88392000D03*
%TO.P,J2,3,Pin_3_3*%
%TO.N,/Echo1*%
X158714000Y-90932000D03*
%TO.P,J2,4,Pin_4_4*%
%TO.N,GND*%
X158714000Y-93472000D03*
%TD*%
D20*
%TO.P,J13,A1,GND_A1*%
%TO.N,GND*%
X207724000Y-99674000D03*
%TO.P,J13,A4,VBUS_A4*%
%TO.N,Net-(U4-VIN)*%
X207724000Y-98874000D03*
D21*
%TO.P,J13,A5,CC1_A5*%
%TO.N,/Battery/CC1*%
X207724000Y-97674000D03*
%TO.P,J13,A6,D+_A6*%
%TO.N,unconnected-(J13-D+-PadA6)*%
X207724000Y-96674000D03*
%TO.P,J13,A7,D-_A7*%
%TO.N,unconnected-(J13-D--PadA7)*%
X207724000Y-96174000D03*
%TO.P,J13,A8*%
%TO.N,N/C*%
X207724000Y-95174000D03*
D20*
%TO.P,J13,A9,VBUS_A9*%
%TO.N,Net-(U4-VIN)*%
X207724000Y-93974000D03*
%TO.P,J13,A12,GND_A12*%
%TO.N,GND*%
X207724000Y-93174000D03*
%TO.P,J13,B1,GND_B1*%
X207724000Y-93174000D03*
%TO.P,J13,B4,VBUS_B4*%
%TO.N,Net-(U4-VIN)*%
X207724000Y-93974000D03*
D21*
%TO.P,J13,B5,CC2_B5*%
%TO.N,/Battery/CC2*%
X207724000Y-94674000D03*
%TO.P,J13,B6,D+_B6*%
%TO.N,unconnected-(J13-D+-PadB6)*%
X207724000Y-95674000D03*
%TO.P,J13,B7,D-_B7*%
%TO.N,unconnected-(J13-D--PadB7)*%
X207724000Y-97174000D03*
%TO.P,J13,B8*%
%TO.N,N/C*%
X207724000Y-98174000D03*
D20*
%TO.P,J13,B9,VBUS_B9*%
%TO.N,Net-(U4-VIN)*%
X207724000Y-98874000D03*
%TO.P,J13,B12,GND_B12*%
%TO.N,GND*%
X207724000Y-99674000D03*
D22*
%TO.P,J13,SH,SHIELD_SH*%
X208639000Y-100744000D03*
D23*
X212819000Y-100744000D03*
D22*
X208639000Y-92104000D03*
D23*
X212819000Y-92104000D03*
%TD*%
D11*
%TO.P,C19,1*%
%TO.N,3v3*%
X178536000Y-114808000D03*
%TO.P,C19,2*%
%TO.N,GND*%
X180086000Y-114808000D03*
%TD*%
D13*
%TO.P,J4,1,Pin_1_1*%
%TO.N,3v3*%
X163304000Y-85852000D03*
D14*
%TO.P,J4,2,Pin_2_2*%
%TO.N,/trig2*%
X163304000Y-88392000D03*
%TO.P,J4,3,Pin_3_3*%
%TO.N,/Echo2*%
X163304000Y-90932000D03*
%TO.P,J4,4,Pin_4_4*%
%TO.N,GND*%
X163304000Y-93472000D03*
%TD*%
D16*
%TO.P,U10,1,GND_1*%
%TO.N,GND*%
X106934000Y-94709100D03*
%TO.P,U10,2,IN_2*%
%TO.N,/AIN2*%
X106934000Y-93439100D03*
%TO.P,U10,3,INH_3*%
%TO.N,/PWMB*%
X106934000Y-92169100D03*
%TO.P,U10,4,OUT_4*%
%TO.N,/Motor driver/M1AO2*%
X106934000Y-90899100D03*
%TO.P,U10,5,SR_5*%
%TO.N,Net-(U10-SR)*%
X106934000Y-89629100D03*
%TO.P,U10,6,IS_6*%
%TO.N,unconnected-(U10-IS-Pad6)*%
X106934000Y-88359100D03*
%TO.P,U10,7,VS_7*%
%TO.N,VBAT_12V*%
X106934000Y-87089100D03*
D17*
%TO.P,U10,8,OUT_8*%
%TO.N,/Motor driver/M1AO2*%
X97784000Y-90899100D03*
%TD*%
D13*
%TO.P,J9,1,Pin_1_1*%
%TO.N,/Motor driver/M1AO2*%
X109474000Y-69596000D03*
D14*
%TO.P,J9,2,Pin_2_2*%
%TO.N,/Motor driver/M1AO1*%
X112014000Y-69596000D03*
%TD*%
D13*
%TO.P,J5,1,Pin_1_1*%
%TO.N,3v3*%
X167894000Y-85852000D03*
D14*
%TO.P,J5,2,Pin_2_2*%
%TO.N,/trig3*%
X167894000Y-88392000D03*
%TO.P,J5,3,Pin_3_3*%
%TO.N,/Echo3*%
X167894000Y-90932000D03*
%TO.P,J5,4,Pin_4_4*%
%TO.N,GND*%
X167894000Y-93472000D03*
%TD*%
D24*
%TO.P,R10,1*%
%TO.N,Net-(U9-SR)*%
X125857000Y-99187000D03*
%TO.P,R10,2*%
%TO.N,GND*%
X124207000Y-99187000D03*
%TD*%
D11*
%TO.P,C44,1*%
%TO.N,VBAT_12V*%
X150342000Y-117094000D03*
%TO.P,C44,2*%
%TO.N,GND*%
X151892000Y-117094000D03*
%TD*%
D25*
%TO.P,U8,1,SDO_1*%
%TO.N,unconnected-(U8-SDO-Pad1)*%
X142736000Y-77069500D03*
%TO.P,U8,2,ASDX_2*%
%TO.N,unconnected-(U8-ASDX-Pad2)*%
X142236000Y-77069500D03*
%TO.P,U8,3,ASCX_3*%
%TO.N,unconnected-(U8-ASCX-Pad3)*%
X141736000Y-77069500D03*
%TO.P,U8,4,INT1_4*%
%TO.N,/INT*%
X141236000Y-77069500D03*
D26*
%TO.P,U8,5,VDDIO_5*%
%TO.N,3v3*%
X141073500Y-77732000D03*
%TO.P,U8,6,GNDIO_6*%
%TO.N,GND*%
X141073500Y-78232000D03*
%TO.P,U8,7,GND_7*%
X141073500Y-78732000D03*
D25*
%TO.P,U8,8,VDD_8*%
%TO.N,3v3*%
X141236000Y-79394500D03*
%TO.P,U8,9,INT2_9*%
%TO.N,/INT*%
X141736000Y-79394500D03*
%TO.P,U8,10,OSCB_10*%
%TO.N,unconnected-(U8-OSCB-Pad10)*%
X142236000Y-79394500D03*
%TO.P,U8,11,OSDO_11*%
%TO.N,unconnected-(U8-OSDO-Pad11)*%
X142736000Y-79394500D03*
D26*
%TO.P,U8,12,CSB_12*%
%TO.N,3v3*%
X142898500Y-78732000D03*
%TO.P,U8,13,SCX_13*%
%TO.N,/SCL*%
X142898500Y-78232000D03*
%TO.P,U8,14,SDX_14*%
%TO.N,/SDA*%
X142898500Y-77732000D03*
%TD*%
D11*
%TO.P,C33,1*%
%TO.N,VBAT_12V*%
X146332000Y-114584000D03*
%TO.P,C33,2*%
%TO.N,GND*%
X147882000Y-114584000D03*
%TD*%
D19*
%TO.P,C15,1*%
%TO.N,GND*%
X137160000Y-73152000D03*
%TO.P,C15,2*%
%TO.N,VBAT_5V*%
X135610000Y-73152000D03*
%TD*%
D11*
%TO.P,C20,1*%
%TO.N,3v3*%
X178536000Y-117318000D03*
%TO.P,C20,2*%
%TO.N,GND*%
X180086000Y-117318000D03*
%TD*%
D16*
%TO.P,U11,1,GND_1*%
%TO.N,GND*%
X106420000Y-115824000D03*
%TO.P,U11,2,IN_2*%
%TO.N,/BIN1*%
X106420000Y-114554000D03*
%TO.P,U11,3,INH_3*%
%TO.N,/PWMA*%
X106420000Y-113284000D03*
%TO.P,U11,4,OUT_4*%
%TO.N,/Motor driver/M1BO1*%
X106420000Y-112014000D03*
%TO.P,U11,5,SR_5*%
%TO.N,Net-(U11-SR)*%
X106420000Y-110744000D03*
%TO.P,U11,6,IS_6*%
%TO.N,unconnected-(U11-IS-Pad6)*%
X106420000Y-109474000D03*
%TO.P,U11,7,VS_7*%
%TO.N,VBAT_12V*%
X106420000Y-108204000D03*
D17*
%TO.P,U11,8,OUT_8*%
%TO.N,/Motor driver/M1BO1*%
X97270000Y-112014000D03*
%TD*%
D11*
%TO.P,C34,1*%
%TO.N,VBAT_12V*%
X146332000Y-117094000D03*
%TO.P,C34,2*%
%TO.N,GND*%
X147882000Y-117094000D03*
%TD*%
%TO.P,C32,1*%
%TO.N,VBAT_12V*%
X146332000Y-112074000D03*
%TO.P,C32,2*%
%TO.N,GND*%
X147882000Y-112074000D03*
%TD*%
D16*
%TO.P,U12,1,GND_1*%
%TO.N,GND*%
X124962000Y-108204000D03*
%TO.P,U12,2,IN_2*%
%TO.N,/BIN2*%
X124962000Y-109474000D03*
%TO.P,U12,3,INH_3*%
%TO.N,/PWMB*%
X124962000Y-110744000D03*
%TO.P,U12,4,OUT_4*%
%TO.N,/Motor driver/M1BO2*%
X124962000Y-112014000D03*
%TO.P,U12,5,SR_5*%
%TO.N,Net-(U12-SR)*%
X124962000Y-113284000D03*
%TO.P,U12,6,IS_6*%
%TO.N,unconnected-(U12-IS-Pad6)*%
X124962000Y-114554000D03*
%TO.P,U12,7,VS_7*%
%TO.N,VBAT_12V*%
X124962000Y-115824000D03*
D17*
%TO.P,U12,8,OUT_8*%
%TO.N,/Motor driver/M1BO2*%
X134112000Y-112014000D03*
%TD*%
D11*
%TO.P,C2,1*%
%TO.N,GND*%
X182346000Y-102288000D03*
%TO.P,C2,2*%
%TO.N,3v3*%
X183896000Y-102288000D03*
%TD*%
D13*
%TO.P,J10,1,Pin_1_1*%
%TO.N,/Motor driver/M1BO2*%
X187964200Y-135636000D03*
D14*
%TO.P,J10,2,Pin_2_2*%
%TO.N,/Motor driver/M1BO1*%
X185424200Y-135636000D03*
%TD*%
D11*
%TO.P,C11,1*%
%TO.N,GND*%
X182346000Y-114838000D03*
%TO.P,C11,2*%
%TO.N,3v3*%
X183896000Y-114838000D03*
%TD*%
%TO.P,C9,1*%
%TO.N,GND*%
X182346000Y-109818000D03*
%TO.P,C9,2*%
%TO.N,3v3*%
X183896000Y-109818000D03*
%TD*%
D19*
%TO.P,C1,1*%
%TO.N,3v3*%
X183896000Y-99778000D03*
%TO.P,C1,2*%
%TO.N,GND*%
X182346000Y-99778000D03*
%TD*%
%TO.P,C4,1*%
%TO.N,3v3*%
X183896000Y-107308000D03*
%TO.P,C4,2*%
%TO.N,GND*%
X182346000Y-107308000D03*
%TD*%
D12*
%TO.P,R13,1*%
%TO.N,Net-(U12-SR)*%
X123699000Y-120015000D03*
%TO.P,R13,2*%
%TO.N,GND*%
X125349000Y-120015000D03*
%TD*%
D11*
%TO.P,C26,1*%
%TO.N,VBAT_12V*%
X146332000Y-107054000D03*
%TO.P,C26,2*%
%TO.N,GND*%
X147882000Y-107054000D03*
%TD*%
%TO.P,C37,1*%
%TO.N,VBAT_12V*%
X150342000Y-104544000D03*
%TO.P,C37,2*%
%TO.N,GND*%
X151892000Y-104544000D03*
%TD*%
D13*
%TO.P,J15,1,Pin_1_1*%
%TO.N,/Motor driver/M1BO2*%
X111379000Y-127635000D03*
D14*
%TO.P,J15,2,Pin_2_2*%
%TO.N,/Motor driver/M1BO1*%
X108839000Y-127635000D03*
%TD*%
D27*
%TO.P,U1,1,GND_1*%
%TO.N,GND*%
X140550000Y-60800000D03*
%TO.P,U1,2,GND_2*%
X140550000Y-61650000D03*
%TO.P,U1,3,3V3_3*%
%TO.N,3v3*%
X140550000Y-62500000D03*
%TO.P,U1,4,IO0_4*%
%TO.N,/IO0*%
X140550000Y-63350000D03*
%TO.P,U1,5,IO1_5*%
%TO.N,/IO1*%
X140550000Y-64200000D03*
%TO.P,U1,6,IO2_6*%
%TO.N,/INT*%
X140550000Y-65050000D03*
%TO.P,U1,7,IO3_7*%
%TO.N,/servo*%
X140550000Y-65900000D03*
%TO.P,U1,8,IO4_8*%
%TO.N,unconnected-(U1-IO4-Pad8)*%
X140550000Y-66750000D03*
%TO.P,U1,9,IO5_9*%
%TO.N,unconnected-(U1-IO5-Pad9)*%
X140550000Y-67600000D03*
%TO.P,U1,10,IO6_10*%
%TO.N,unconnected-(U1-IO6-Pad10)*%
X140550000Y-68450000D03*
%TO.P,U1,11,IO7_11*%
%TO.N,unconnected-(U1-IO7-Pad11)*%
X140550000Y-69300000D03*
%TO.P,U1,12,IO8_12*%
%TO.N,/SDA*%
X140550000Y-70150000D03*
%TO.P,U1,13,IO9_13*%
%TO.N,/SCL*%
X140550000Y-71000000D03*
%TO.P,U1,14,IO10_14*%
%TO.N,/PWMA*%
X140550000Y-71850000D03*
%TO.P,U1,15,IO11_15*%
%TO.N,/PWMB*%
X140550000Y-72700000D03*
D28*
%TO.P,U1,16,IO12_16*%
%TO.N,unconnected-(U1-IO12-Pad16)*%
X141600000Y-73750000D03*
%TO.P,U1,17,IO13_17*%
%TO.N,/AIN1*%
X142450000Y-73750000D03*
%TO.P,U1,18,IO14_18*%
%TO.N,/BIN1*%
X143300000Y-73750000D03*
%TO.P,U1,19,IO15_19*%
%TO.N,/AIN2*%
X144150000Y-73750000D03*
%TO.P,U1,20,IO16_20*%
%TO.N,/BIN2*%
X145000000Y-73750000D03*
%TO.P,U1,21,IO17_21*%
%TO.N,unconnected-(U1-IO17-Pad21)*%
X145850000Y-73750000D03*
%TO.P,U1,22,IO18_22*%
%TO.N,unconnected-(U1-IO18-Pad22)*%
X146700000Y-73750000D03*
%TO.P,U1,23,USB_D-_23*%
%TO.N,unconnected-(U1-USB_D--Pad23)*%
X147550000Y-73750000D03*
%TO.P,U1,24,USB_D+_24*%
%TO.N,unconnected-(U1-USB_D+-Pad24)*%
X148400000Y-73750000D03*
%TO.P,U1,25,IO21_25*%
%TO.N,unconnected-(U1-IO21-Pad25)*%
X149250000Y-73750000D03*
%TO.P,U1,26,IO26_26*%
%TO.N,unconnected-(U1-IO26-Pad26)*%
X150100000Y-73750000D03*
%TO.P,U1,27,IO47_27*%
%TO.N,unconnected-(U1-IO47-Pad27)*%
X150950000Y-73750000D03*
%TO.P,U1,28,IO33_28*%
%TO.N,unconnected-(U1-IO33-Pad28)*%
X151800000Y-73750000D03*
%TO.P,U1,29,IO34_29*%
%TO.N,unconnected-(U1-IO34-Pad29)*%
X152650000Y-73750000D03*
%TO.P,U1,30,IO48_30*%
%TO.N,unconnected-(U1-IO48-Pad30)*%
X153500000Y-73750000D03*
D27*
%TO.P,U1,31,IO35_31*%
%TO.N,/trig1*%
X154550000Y-72700000D03*
%TO.P,U1,32,IO36_32*%
%TO.N,/eout1*%
X154550000Y-71850000D03*
%TO.P,U1,33,IO37_33*%
%TO.N,/trig2*%
X154550000Y-71000000D03*
%TO.P,U1,34,IO38_34*%
%TO.N,/eout2*%
X154550000Y-70150000D03*
%TO.P,U1,35,IO39_35*%
%TO.N,/trig3*%
X154550000Y-69300000D03*
%TO.P,U1,36,IO40_36*%
%TO.N,/eout3*%
X154550000Y-68450000D03*
%TO.P,U1,37,IO41_37*%
%TO.N,/TP*%
X154550000Y-67600000D03*
%TO.P,U1,38,IO42_38*%
%TO.N,/EXTINT*%
X154550000Y-66750000D03*
%TO.P,U1,39,TXD0_39*%
%TO.N,/TX*%
X154550000Y-65900000D03*
%TO.P,U1,40,RXD0_40*%
%TO.N,/RX*%
X154550000Y-65050000D03*
%TO.P,U1,41,IO45_41*%
%TO.N,/SB*%
X154550000Y-64200000D03*
%TO.P,U1,42,GND_42*%
%TO.N,GND*%
X154550000Y-63350000D03*
%TO.P,U1,43,GND_43*%
X154550000Y-62500000D03*
%TO.P,U1,44,IO46_44*%
%TO.N,/RESET*%
X154550000Y-61650000D03*
%TO.P,U1,45,EN_45*%
%TO.N,unconnected-(U1-EN-Pad45)*%
X154550000Y-60800000D03*
D28*
%TO.P,U1,46,GND_46*%
%TO.N,GND*%
X153500000Y-59750000D03*
%TO.P,U1,47,GND_47*%
X152650000Y-59750000D03*
%TO.P,U1,48,GND_48*%
X151800000Y-59750000D03*
%TO.P,U1,49,GND_49*%
X150950000Y-59750000D03*
%TO.P,U1,50,GND_50*%
X150100000Y-59750000D03*
%TO.P,U1,51,GND_51*%
X149250000Y-59750000D03*
%TO.P,U1,52,GND_52*%
X148400000Y-59750000D03*
%TO.P,U1,53,GND_53*%
X147550000Y-59750000D03*
%TO.P,U1,54,GND_54*%
X146700000Y-59750000D03*
%TO.P,U1,55,GND_55*%
X145850000Y-59750000D03*
%TO.P,U1,56,GND_56*%
X145000000Y-59750000D03*
%TO.P,U1,57,GND_57*%
X144150000Y-59750000D03*
%TO.P,U1,58,GND_58*%
X143300000Y-59750000D03*
%TO.P,U1,59,GND_59*%
X142450000Y-59750000D03*
%TO.P,U1,60,GND_60*%
X141600000Y-59750000D03*
D29*
%TO.P,U1,61,GND_61*%
X145900000Y-65100000D03*
D30*
X145900000Y-66750000D03*
X145900000Y-68400000D03*
X147550000Y-65100000D03*
X147550000Y-66750000D03*
X147550000Y-68400000D03*
X149200000Y-65100000D03*
X149200000Y-66750000D03*
X149200000Y-68400000D03*
D31*
%TO.P,U1,62,GND_62*%
X140550000Y-59750000D03*
%TO.P,U1,63,GND_63*%
X140550000Y-73750000D03*
%TO.P,U1,64,GND_64*%
X154550000Y-73750000D03*
%TO.P,U1,65,GND_65*%
X154550000Y-59750000D03*
%TD*%
D13*
%TO.P,J7,1,Pin_1_1*%
%TO.N,GND*%
X131844000Y-69088000D03*
D14*
%TO.P,J7,2,Pin_2_2*%
%TO.N,VBAT_5V*%
X131844000Y-71628000D03*
%TO.P,J7,3,Pin_3_3*%
%TO.N,/servo*%
X131844000Y-74168000D03*
%TD*%
D11*
%TO.P,C42,1*%
%TO.N,VBAT_12V*%
X150342000Y-112074000D03*
%TO.P,C42,2*%
%TO.N,GND*%
X151892000Y-112074000D03*
%TD*%
D13*
%TO.P,J8,1,Pin_1_1*%
%TO.N,/Battery/B-*%
X199136000Y-131572000D03*
D14*
%TO.P,J8,2,Pin_2_2*%
%TO.N,/Battery/B1*%
X196596000Y-131572000D03*
%TO.P,J8,3,Pin_3_3*%
%TO.N,/Battery/B2*%
X194056000Y-131572000D03*
%TO.P,J8,4,Pin_4_4*%
%TO.N,/Battery/B+*%
X191516000Y-131572000D03*
%TO.P,J8,5,Pin_5_5*%
%TO.N,GND*%
X188976000Y-131572000D03*
%TO.P,J8,6,Pin_6_6*%
%TO.N,VBAT_12V*%
X186436000Y-131572000D03*
%TD*%
D32*
%TO.P,J11,1,Pin_1_1*%
%TO.N,/Battery/B-*%
X198374000Y-124206000D03*
D33*
%TO.P,J11,2,Pin_2_2*%
%TO.N,/Battery/B1*%
X195874000Y-124206000D03*
%TO.P,J11,3,Pin_3_3*%
%TO.N,/Battery/B2*%
X193374000Y-124206000D03*
%TO.P,J11,4,Pin_4_4*%
%TO.N,/Battery/B+*%
X190874000Y-124206000D03*
%TD*%
D34*
%TO.P,J12,N,N_N*%
%TO.N,GND*%
X177038000Y-132588000D03*
D35*
%TO.P,J12,P,P_P*%
%TO.N,VBAT_12V*%
X177038000Y-127588000D03*
D36*
%TO.P,J12,S1*%
%TO.N,N/C*%
X167038000Y-135588000D03*
%TO.P,J12,S2*%
X167038000Y-124588000D03*
%TD*%
D37*
%TO.P,U5,17,GND_17*%
%TO.N,GND*%
X194568000Y-110706300D03*
X194568000Y-109706300D03*
D38*
X194068000Y-110206300D03*
D37*
X193568000Y-110706300D03*
X193568000Y-109706300D03*
%TD*%
D39*
%TO.N,3v3*%
X138176000Y-63144400D03*
X178562000Y-108610400D03*
X178256000Y-73700000D03*
X172001638Y-86759238D03*
X169756000Y-61700000D03*
X184556400Y-99263200D03*
X138176000Y-67411600D03*
X151130000Y-85953600D03*
X174156000Y-73700000D03*
%TO.N,GND*%
X125476000Y-87089100D03*
X181556000Y-61700000D03*
X138277600Y-64109600D03*
X108521000Y-83058000D03*
X175920400Y-80975200D03*
X106934000Y-94709100D03*
X125349000Y-120015000D03*
X161442400Y-77470000D03*
X147550000Y-66750000D03*
X166522400Y-77266800D03*
X147980400Y-118516400D03*
X207724000Y-93174000D03*
X200406000Y-109524800D03*
X106420000Y-115824000D03*
X124962000Y-108204000D03*
X190754000Y-114858800D03*
X189230000Y-106172000D03*
X124207000Y-99187000D03*
X190220000Y-104394000D03*
X207724000Y-99674000D03*
X181556000Y-73700000D03*
X191008000Y-109778800D03*
X107137200Y-105206800D03*
X168656000Y-73700000D03*
X180086000Y-108762800D03*
X164944000Y-105664000D03*
X141630400Y-61671200D03*
X135209700Y-78333600D03*
X198128200Y-66686100D03*
X198756000Y-112318800D03*
X161544000Y-105664000D03*
X179356000Y-73700000D03*
X140550000Y-73750000D03*
X137160000Y-70642000D03*
X151892000Y-118618000D03*
X161544000Y-114814000D03*
X136550400Y-66548000D03*
X140208000Y-78790800D03*
X137160000Y-73152000D03*
%TO.N,/IO0*%
X139090400Y-61874400D03*
X139141200Y-63100000D03*
%TO.N,/INT*%
X138887200Y-65532000D03*
X136410859Y-65580572D03*
X141884400Y-80416400D03*
X141110998Y-77069500D03*
%TO.N,/SCL*%
X144110800Y-78332000D03*
X139090400Y-71221600D03*
X173056000Y-61700000D03*
X150571200Y-75082400D03*
X140550000Y-71000000D03*
X139097445Y-75001085D03*
X135991600Y-68580000D03*
%TO.N,/SDA*%
X137464800Y-69291200D03*
X174156000Y-61700000D03*
X140450000Y-74901472D03*
X152886962Y-74648633D03*
X140550000Y-70150000D03*
%TO.N,VBAT_12V*%
X156667200Y-105714800D03*
X103428800Y-91846400D03*
X150266400Y-103276400D03*
X124968000Y-117144800D03*
X146304000Y-103327200D03*
X106934000Y-87089100D03*
X146332000Y-117094000D03*
%TO.N,VBAT_5V*%
X159844000Y-105664000D03*
X135585200Y-70642000D03*
X135610000Y-73202800D03*
%TO.N,/servo*%
X140550000Y-65900000D03*
X137414000Y-71882000D03*
%TO.N,/AIN1*%
X137576000Y-75895200D03*
X142450000Y-73750000D03*
%TO.N,/PWMA*%
X109728000Y-110998000D03*
X140563600Y-71882000D03*
X125476000Y-89629100D03*
X128727200Y-84378800D03*
%TO.N,/SB*%
X156718000Y-64058800D03*
X167556000Y-73700000D03*
%TO.N,/TX*%
X170484800Y-64100000D03*
X170856000Y-61700000D03*
%TO.N,Net-(U4-VIN)*%
X207724000Y-93974000D03*
%TO.N,/Battery/CC1*%
X205536800Y-97586800D03*
%TO.N,/Battery/CC2*%
X205892400Y-94691200D03*
%TO.N,/AIN2*%
X110642400Y-94843600D03*
X144150000Y-73750000D03*
%TO.N,/PWMB*%
X128981200Y-91897200D03*
X140550000Y-72700000D03*
%TO.N,/BIN1*%
X143300000Y-73750000D03*
X111912400Y-112805157D03*
%TO.N,/BIN2*%
X145310800Y-75082400D03*
X124962000Y-109474000D03*
%TO.N,/eout1*%
X154550000Y-71850000D03*
%TO.N,/eout2*%
X154550000Y-70150000D03*
%TO.N,/eout3*%
X154550000Y-68450000D03*
%TO.N,/Battery/12v_PD*%
X207278200Y-81576100D03*
X198754000Y-114808000D03*
X203352400Y-114350800D03*
X190449200Y-83667600D03*
%TO.N,/Battery/vfb*%
X189484000Y-102768400D03*
X191160400Y-111709200D03*
%TO.N,/Battery/ph*%
X201726800Y-79248000D03*
X194189690Y-103254885D03*
%TO.N,Net-(D1-A)*%
X200406000Y-106680000D03*
X201930000Y-110845600D03*
%TO.N,/Battery/lodrv*%
X198128200Y-71766100D03*
X193141600Y-105816400D03*
%TO.N,/Battery/hidrv*%
X198128200Y-84267600D03*
X197951964Y-92018894D03*
%TD*%
%TO.N,3v3*%
D40*
X179341000Y-118123000D02*
X183121000Y-118123000D01*
X138176000Y-66722000D02*
X138176000Y-67411600D01*
X168656000Y-61700000D02*
X169756000Y-61700000D01*
X137160000Y-65706000D02*
X138176000Y-66722000D01*
X184556400Y-99263200D02*
X184505600Y-99263200D01*
X183121000Y-118123000D02*
X183896000Y-117348000D01*
X138176000Y-78282800D02*
X138176000Y-76692300D01*
X137484700Y-77383600D02*
X138176000Y-76692300D01*
X143560800Y-83007200D02*
X141236000Y-80682400D01*
X143560800Y-85394800D02*
X143560800Y-83007200D01*
X141236000Y-80682400D02*
X141236000Y-79394500D01*
X141236000Y-79394500D02*
X139287700Y-79394500D01*
X138820400Y-62500000D02*
X140550000Y-62500000D01*
X141536800Y-77732000D02*
X142536800Y-78732000D01*
X142536800Y-78732000D02*
X142898500Y-78732000D01*
X178536000Y-108636400D02*
X178536000Y-117318000D01*
X141536800Y-77732000D02*
X141073500Y-77732000D01*
X137225600Y-67411600D02*
X137160000Y-67346000D01*
X183896000Y-99778000D02*
X184041600Y-99778000D01*
X139287700Y-79394500D02*
X138176000Y-78282800D01*
X184041600Y-99778000D02*
X184556400Y-99263200D01*
X138176000Y-76692300D02*
X138176000Y-67411600D01*
X178518000Y-117336000D02*
X178536000Y-117318000D01*
X167894000Y-85852000D02*
X174156000Y-79590000D01*
X178536000Y-117318000D02*
X179341000Y-118123000D01*
X139215700Y-77732000D02*
X141073500Y-77732000D01*
X138074400Y-63246000D02*
X135800000Y-63246000D01*
X138176000Y-63144400D02*
X138074400Y-63246000D01*
X183896000Y-117348000D02*
X183896000Y-107308000D01*
X138176000Y-76692300D02*
X139215700Y-77732000D01*
X183896000Y-107308000D02*
X183896000Y-99778000D01*
X151130000Y-85953600D02*
X144119600Y-85953600D01*
X138176000Y-63144400D02*
X138820400Y-62500000D01*
X184505600Y-99263200D02*
X172001638Y-86759238D01*
X138176000Y-67411600D02*
X137225600Y-67411600D01*
X178562000Y-108610400D02*
X178536000Y-108636400D01*
X174156000Y-79590000D02*
X174156000Y-73700000D01*
X144119600Y-85953600D02*
X143560800Y-85394800D01*
%TO.N,GND*%
X180099000Y-110012000D02*
X180099000Y-108775800D01*
X140266800Y-78732000D02*
X140208000Y-78790800D01*
X135800000Y-64066000D02*
X138234000Y-64066000D01*
X180086000Y-114808000D02*
X180086000Y-110025000D01*
X147882000Y-118418000D02*
X147980400Y-118516400D01*
X182346000Y-99778000D02*
X182346000Y-114838000D01*
X189230000Y-105384000D02*
X190220000Y-104394000D01*
X154550000Y-73750000D02*
X149200000Y-68400000D01*
X154550000Y-62500000D02*
X154350000Y-62500000D01*
X149200000Y-65100000D02*
X145900000Y-65100000D01*
X180086000Y-117318000D02*
X180086000Y-114808000D01*
X145900000Y-68400000D02*
X149200000Y-68400000D01*
X166816000Y-60960000D02*
X167556000Y-61700000D01*
X180116000Y-114838000D02*
X180086000Y-114808000D01*
X180086000Y-110025000D02*
X180099000Y-110012000D01*
X147882000Y-104544000D02*
X147882000Y-117094000D01*
X137160000Y-66526000D02*
X136572400Y-66526000D01*
X136572400Y-66526000D02*
X136550400Y-66548000D01*
X153500000Y-61650000D02*
X153500000Y-59750000D01*
X151892000Y-117094000D02*
X151892000Y-118618000D01*
X180116000Y-117348000D02*
X180086000Y-117318000D01*
X149200000Y-68400000D02*
X149200000Y-65100000D01*
X182346000Y-114838000D02*
X182346000Y-117348000D01*
X140550000Y-59750000D02*
X140550000Y-61650000D01*
X182346000Y-117348000D02*
X180116000Y-117348000D01*
X141609200Y-61650000D02*
X141630400Y-61671200D01*
X151892000Y-104544000D02*
X151892000Y-117094000D01*
X140550000Y-61650000D02*
X141609200Y-61650000D01*
X138234000Y-64066000D02*
X138277600Y-64109600D01*
X180099000Y-108775800D02*
X180086000Y-108762800D01*
X141073500Y-78232000D02*
X141073500Y-78732000D01*
X154550000Y-59750000D02*
X140550000Y-59750000D01*
X141073500Y-78732000D02*
X140266800Y-78732000D01*
X147550000Y-66750000D02*
X145900000Y-66750000D01*
X154550000Y-62500000D02*
X154550000Y-63350000D01*
X159512000Y-60960000D02*
X166816000Y-60960000D01*
X189230000Y-106172000D02*
X189230000Y-105384000D01*
X147882000Y-117094000D02*
X147882000Y-118418000D01*
X154350000Y-62500000D02*
X153500000Y-61650000D01*
X145900000Y-65100000D02*
X145900000Y-66750000D01*
%TO.N,/IO0*%
X136371168Y-61874400D02*
X139090400Y-61874400D01*
X135250000Y-62995568D02*
X136371168Y-61874400D01*
X140300000Y-63100000D02*
X140550000Y-63350000D01*
X139141200Y-63100000D02*
X140300000Y-63100000D01*
X135800000Y-64886000D02*
X135250000Y-64336000D01*
X135250000Y-64336000D02*
X135250000Y-62995568D01*
%TO.N,/INT*%
X138887200Y-65532000D02*
X139868000Y-65532000D01*
X140350000Y-65050000D02*
X140550000Y-65050000D01*
X139850000Y-75683500D02*
X139850000Y-65550000D01*
X135800000Y-65706000D02*
X136285431Y-65706000D01*
X139868000Y-65532000D02*
X140350000Y-65050000D01*
X141736000Y-79394500D02*
X141736000Y-80268000D01*
X141736000Y-80268000D02*
X141884400Y-80416400D01*
X141236000Y-77069500D02*
X139850000Y-75683500D01*
X136285431Y-65706000D02*
X136410859Y-65580572D01*
X139850000Y-65550000D02*
X140350000Y-65050000D01*
%TO.N,/SCL*%
X139097445Y-75001085D02*
X139090400Y-74994040D01*
X146100800Y-83007200D02*
X146100800Y-80971800D01*
X135250000Y-67838400D02*
X135991600Y-68580000D01*
X144010800Y-78232000D02*
X144110800Y-78332000D01*
X146100800Y-80971800D02*
X143361000Y-78232000D01*
X135250000Y-67076000D02*
X135250000Y-67838400D01*
X139090400Y-74994040D02*
X139090400Y-71221600D01*
X146100800Y-83007200D02*
X147250800Y-84157200D01*
X147250800Y-84157200D02*
X149117146Y-84157200D01*
X150571200Y-82703146D02*
X150571200Y-75082400D01*
X135800000Y-66526000D02*
X135250000Y-67076000D01*
X149117146Y-84157200D02*
X150571200Y-82703146D01*
X142898500Y-78232000D02*
X144010800Y-78232000D01*
X143361000Y-78232000D02*
X142898500Y-78232000D01*
%TO.N,/SDA*%
X142898500Y-77732000D02*
X143161000Y-77469500D01*
X144567681Y-77732000D02*
X142898500Y-77732000D01*
X143161000Y-76532000D02*
X141530472Y-74901472D01*
X152711129Y-74472800D02*
X152886962Y-74648633D01*
X148640800Y-81805119D02*
X148640800Y-76164271D01*
X148640800Y-81805119D02*
X144567681Y-77732000D01*
X135800000Y-67346000D02*
X137464800Y-69010800D01*
X141530472Y-74901472D02*
X140450000Y-74901472D01*
X150332271Y-74472800D02*
X152711129Y-74472800D01*
X143161000Y-77469500D02*
X143161000Y-76532000D01*
X137464800Y-69010800D02*
X137464800Y-69291200D01*
X148640800Y-76164271D02*
X150332271Y-74472800D01*
X148640800Y-83007200D02*
X148640800Y-81805119D01*
%TO.N,/IO1*%
X137160000Y-64886000D02*
X139664000Y-64886000D01*
X140350000Y-64200000D02*
X140550000Y-64200000D01*
X139664000Y-64886000D02*
X140350000Y-64200000D01*
%TO.N,VBAT_12V*%
X186436000Y-131572000D02*
X182452000Y-127588000D01*
X107810800Y-98885900D02*
X103428800Y-94503900D01*
X106420000Y-108204000D02*
X108320000Y-108204000D01*
X124962000Y-115824000D02*
X124962000Y-117138800D01*
X106934000Y-87089100D02*
X108834000Y-87089100D01*
X150342000Y-117916529D02*
X160013471Y-127588000D01*
X182452000Y-127588000D02*
X177038000Y-127588000D01*
X108834000Y-87089100D02*
X116454000Y-94709100D01*
X160013471Y-127588000D02*
X177038000Y-127588000D01*
X115940000Y-115824000D02*
X124962000Y-115824000D01*
X150342000Y-103352000D02*
X150266400Y-103276400D01*
X107810800Y-106813200D02*
X107810800Y-98885900D01*
X124962000Y-117138800D02*
X124968000Y-117144800D01*
X146332000Y-104544000D02*
X146332000Y-103355200D01*
X106420000Y-108204000D02*
X107810800Y-106813200D01*
X150342000Y-104544000D02*
X150342000Y-103352000D01*
X146332000Y-117094000D02*
X146332000Y-104544000D01*
X146332000Y-103355200D02*
X146304000Y-103327200D01*
X150342000Y-117094000D02*
X150342000Y-104544000D01*
X150342000Y-117094000D02*
X150342000Y-117916529D01*
X108320000Y-108204000D02*
X115940000Y-115824000D01*
X103428800Y-94503900D02*
X103428800Y-91846400D01*
X116454000Y-94709100D02*
X125476000Y-94709100D01*
%TO.N,Net-(U11-SR)*%
X104520000Y-110744000D02*
X103820000Y-110044000D01*
X103820000Y-110044000D02*
X103820000Y-106847600D01*
X103820000Y-106847600D02*
X105460800Y-105206800D01*
X106420000Y-110744000D02*
X104520000Y-110744000D01*
%TO.N,VBAT_5V*%
X135610000Y-73202800D02*
X135610000Y-73152000D01*
X135585200Y-70642000D02*
X135610000Y-70642000D01*
X132830000Y-70642000D02*
X135585200Y-70642000D01*
X135610000Y-76983300D02*
X135610000Y-73202800D01*
X131844000Y-71628000D02*
X132830000Y-70642000D01*
X135209700Y-77383600D02*
X135610000Y-76983300D01*
%TO.N,/servo*%
X127254000Y-74168000D02*
X131844000Y-74168000D01*
X131844000Y-74168000D02*
X134130000Y-71882000D01*
X134130000Y-71882000D02*
X137414000Y-71882000D01*
%TO.N,/AIN1*%
X132373871Y-79883600D02*
X135912752Y-79883600D01*
X136362271Y-79434081D02*
X136362271Y-77108929D01*
X127506000Y-88359100D02*
X128076000Y-87789100D01*
X128076000Y-84181471D02*
X132373871Y-79883600D01*
X128076000Y-87789100D02*
X128076000Y-84181471D01*
X135912752Y-79883600D02*
X136362271Y-79434081D01*
X136362271Y-77108929D02*
X137576000Y-75895200D01*
X125476000Y-88359100D02*
X127506000Y-88359100D01*
%TO.N,/PWMA*%
X108320000Y-113284000D02*
X109728000Y-111876000D01*
X109728000Y-111876000D02*
X109728000Y-110998000D01*
X125476000Y-89629100D02*
X127376000Y-89629100D01*
X127376000Y-89629100D02*
X128727200Y-88277900D01*
X106420000Y-113284000D02*
X108320000Y-113284000D01*
X128727200Y-88277900D02*
X128727200Y-84378800D01*
%TO.N,/Motor driver/M1AO1*%
X134626000Y-90899100D02*
X125476000Y-90899100D01*
X122976000Y-90899100D02*
X125476000Y-90899100D01*
X168370346Y-89542000D02*
X188463000Y-69449346D01*
X188463000Y-69449346D02*
X188463000Y-60579000D01*
X112014000Y-79937100D02*
X122976000Y-90899100D01*
X134626000Y-90899100D02*
X135983100Y-89542000D01*
X112014000Y-69596000D02*
X112014000Y-79937100D01*
X135983100Y-89542000D02*
X168370346Y-89542000D01*
%TO.N,Net-(U9-SR)*%
X127376000Y-92169100D02*
X125476000Y-92169100D01*
X128076000Y-92869100D02*
X127376000Y-92169100D01*
X128076000Y-96968000D02*
X128076000Y-92869100D01*
X125857000Y-99187000D02*
X128076000Y-96968000D01*
%TO.N,Net-(U10-SR)*%
X104334000Y-85595000D02*
X104334000Y-88929100D01*
X104334000Y-88929100D02*
X105034000Y-89629100D01*
X105034000Y-89629100D02*
X106934000Y-89629100D01*
X106871000Y-83058000D02*
X104334000Y-85595000D01*
%TO.N,/SB*%
X154691200Y-64058800D02*
X156718000Y-64058800D01*
X154550000Y-64200000D02*
X154691200Y-64058800D01*
%TO.N,/TP*%
X169756000Y-74212648D02*
X169756000Y-73700000D01*
X169068648Y-74900000D02*
X169756000Y-74212648D01*
X162050000Y-74900000D02*
X169068648Y-74900000D01*
X154550000Y-67600000D02*
X154750000Y-67600000D01*
X154750000Y-67600000D02*
X162050000Y-74900000D01*
%TO.N,/EXTINT*%
X154750000Y-66750000D02*
X160500000Y-72500000D01*
X170168648Y-72500000D02*
X170856000Y-73187352D01*
X160500000Y-72500000D02*
X170168648Y-72500000D01*
X154550000Y-66750000D02*
X154750000Y-66750000D01*
X170856000Y-73187352D02*
X170856000Y-73700000D01*
%TO.N,/RESET*%
X156590000Y-59810000D02*
X173878648Y-59810000D01*
X176456000Y-73000000D02*
X177156000Y-73700000D01*
X154750000Y-61650000D02*
X156590000Y-59810000D01*
X173878648Y-59810000D02*
X176456000Y-62387352D01*
X176456000Y-62387352D02*
X176456000Y-73000000D01*
X154550000Y-61650000D02*
X154750000Y-61650000D01*
%TO.N,/RX*%
X157962000Y-65050000D02*
X154550000Y-65050000D01*
X159512000Y-63500000D02*
X171056000Y-63500000D01*
X171056000Y-63500000D02*
X171956000Y-62600000D01*
X159512000Y-63500000D02*
X157962000Y-65050000D01*
X171956000Y-62600000D02*
X171956000Y-61700000D01*
%TO.N,/TX*%
X154690000Y-66040000D02*
X154550000Y-65900000D01*
X159512000Y-66040000D02*
X154690000Y-66040000D01*
X159512000Y-66040000D02*
X161652000Y-63900000D01*
X161652000Y-63900000D02*
X170284800Y-63900000D01*
X170284800Y-63900000D02*
X170484800Y-64100000D01*
%TO.N,/Motor driver/M1AO2*%
X97784000Y-90899100D02*
X106934000Y-90899100D01*
X109474000Y-69596000D02*
X109474000Y-79209100D01*
X109474000Y-79209100D02*
X97784000Y-90899100D01*
%TO.N,/trig1*%
X155250000Y-73050000D02*
X154900000Y-72700000D01*
X158714000Y-88392000D02*
X155250000Y-84928000D01*
X154900000Y-72700000D02*
X154550000Y-72700000D01*
X155250000Y-84928000D02*
X155250000Y-73050000D01*
%TO.N,Net-(U4-VIN)*%
X207910000Y-99060000D02*
X207724000Y-98874000D01*
X208483200Y-99045206D02*
X208483200Y-99060000D01*
X208281410Y-93974000D02*
X208889406Y-94581996D01*
X208889406Y-98639000D02*
X208483200Y-99045206D01*
X208889406Y-94581996D02*
X208889406Y-98639000D01*
X208483200Y-99060000D02*
X207910000Y-99060000D01*
X207724000Y-93974000D02*
X208281410Y-93974000D01*
%TO.N,/Battery/CC1*%
X205624000Y-97674000D02*
X207724000Y-97674000D01*
X205536800Y-97586800D02*
X205624000Y-97674000D01*
%TO.N,/Battery/CC2*%
X205892400Y-94691200D02*
X207706800Y-94691200D01*
X207706800Y-94691200D02*
X207724000Y-94674000D01*
%TO.N,/trig2*%
X154900000Y-71000000D02*
X154550000Y-71000000D01*
X163304000Y-88392000D02*
X164454000Y-87242000D01*
X164454000Y-87242000D02*
X164454000Y-81688314D01*
X164454000Y-81688314D02*
X155250000Y-72484314D01*
X155250000Y-71350000D02*
X154900000Y-71000000D01*
X155250000Y-72484314D02*
X155250000Y-71350000D01*
%TO.N,/AIN2*%
X109237900Y-93439100D02*
X110642400Y-94843600D01*
X106934000Y-93439100D02*
X109237900Y-93439100D01*
%TO.N,/PWMB*%
X108834000Y-92169100D02*
X122362000Y-105697100D01*
X128981200Y-108624800D02*
X128981200Y-91897200D01*
X122362000Y-110174000D02*
X122932000Y-110744000D01*
X106934000Y-92169100D02*
X108834000Y-92169100D01*
X124962000Y-110744000D02*
X126862000Y-110744000D01*
X122362000Y-105697100D02*
X122362000Y-110174000D01*
X122932000Y-110744000D02*
X124962000Y-110744000D01*
X126862000Y-110744000D02*
X128981200Y-108624800D01*
%TO.N,/trig3*%
X164854000Y-85352000D02*
X164854000Y-79404000D01*
X154750000Y-69300000D02*
X154550000Y-69300000D01*
X167894000Y-88392000D02*
X164854000Y-85352000D01*
X164854000Y-79404000D02*
X154750000Y-69300000D01*
%TO.N,/BIN1*%
X110163557Y-114554000D02*
X111912400Y-112805157D01*
X106420000Y-114554000D02*
X110163557Y-114554000D01*
%TO.N,/Motor driver/M1BO1*%
X108839000Y-127635000D02*
X97270000Y-116066000D01*
X97270000Y-112014000D02*
X106420000Y-112014000D01*
X97270000Y-116066000D02*
X97270000Y-112014000D01*
%TO.N,/BIN2*%
X145000000Y-74771600D02*
X145310800Y-75082400D01*
X145000000Y-73750000D02*
X145000000Y-74771600D01*
%TO.N,/Motor driver/M1BO2*%
X143449600Y-102676400D02*
X161107871Y-102676400D01*
X111379000Y-127635000D02*
X119191000Y-127635000D01*
X190366000Y-130371200D02*
X190366000Y-133234200D01*
X161107871Y-102676400D02*
X186193471Y-127762000D01*
X187756800Y-127762000D02*
X190366000Y-130371200D01*
X119191000Y-127635000D02*
X134112000Y-112714000D01*
X124962000Y-112014000D02*
X134112000Y-112014000D01*
X134112000Y-112714000D02*
X134112000Y-112014000D01*
X190366000Y-133234200D02*
X187964200Y-135636000D01*
X134112000Y-112014000D02*
X143449600Y-102676400D01*
X186193471Y-127762000D02*
X187756800Y-127762000D01*
%TO.N,Net-(U12-SR)*%
X127562000Y-116524000D02*
X127562000Y-113854000D01*
X123699000Y-120015000D02*
X124071000Y-120015000D01*
X126992000Y-113284000D02*
X124962000Y-113284000D01*
X127562000Y-113854000D02*
X126992000Y-113284000D01*
X124071000Y-120015000D02*
X127562000Y-116524000D01*
%TO.N,/Battery/12v_PD*%
X205186700Y-83667600D02*
X207278200Y-81576100D01*
X203352400Y-114350800D02*
X199211200Y-114350800D01*
X199211200Y-114350800D02*
X198754000Y-114808000D01*
X190449200Y-83667600D02*
X205186700Y-83667600D01*
%TO.N,/Battery/vfb*%
X191160400Y-111709200D02*
X190408000Y-110956800D01*
X190408000Y-110956800D02*
X190408000Y-105054529D01*
X190408000Y-105054529D02*
X190820000Y-104642529D01*
X190820000Y-104642529D02*
X190820000Y-104104400D01*
X190820000Y-104104400D02*
X189484000Y-102768400D01*
%TO.N,/Battery/ph*%
X201726800Y-79248000D02*
X205798629Y-79248000D01*
X207878200Y-81327571D02*
X207878200Y-89566375D01*
X207878200Y-89566375D02*
X194189690Y-103254885D01*
X205798629Y-79248000D02*
X207878200Y-81327571D01*
%TO.N,Net-(D1-A)*%
X201930000Y-110845600D02*
X201930000Y-108204000D01*
X201930000Y-108204000D02*
X200406000Y-106680000D01*
%TO.N,/Battery/lodrv*%
X193141600Y-105816400D02*
X193141600Y-87208529D01*
X193141600Y-87208529D02*
X189849200Y-83916129D01*
X189849200Y-80045100D02*
X198128200Y-71766100D01*
X189849200Y-83916129D02*
X189849200Y-80045100D01*
%TO.N,/Battery/B-*%
X199136000Y-131572000D02*
X198374000Y-130810000D01*
X198374000Y-130810000D02*
X198374000Y-124206000D01*
%TO.N,/Battery/B1*%
X196596000Y-131572000D02*
X196596000Y-124928000D01*
X196596000Y-124928000D02*
X195874000Y-124206000D01*
%TO.N,/Battery/B2*%
X194056000Y-124888000D02*
X193374000Y-124206000D01*
X194056000Y-131572000D02*
X194056000Y-124888000D01*
%TO.N,/Battery/B+*%
X191516000Y-124848000D02*
X190874000Y-124206000D01*
X191516000Y-131572000D02*
X191516000Y-124848000D01*
%TO.N,/Battery/hidrv*%
X197951964Y-84443836D02*
X198128200Y-84267600D01*
X197951964Y-92018894D02*
X197951964Y-84443836D01*
%TD*%
M02*
