M48
; DRILL file KiCad 10.0.3 date 2026-06-10T11:11:07
; FORMAT={-:-/ absolute / metric / decimal}
; #@! TF.CreationDate,2026-06-10T11:11:07+05:30
; #@! TF.GenerationSoftware,Kicad,Pcbnew,10.0.3
; #@! TF.FileFunction,Plated,1,4,PTH
FMAT,2
METRIC
; #@! TA.AperFunction,Plated,PTH,ViaDrill
T1C0.300
; #@! TA.AperFunction,Plated,PTH,ComponentDrill
T2C0.300
; #@! TA.AperFunction,Plated,PTH,ComponentDrill
T3C0.600
; #@! TA.AperFunction,Plated,PTH,ComponentDrill
T4C0.950
; #@! TA.AperFunction,Plated,PTH,ComponentDrill
T5C1.000
; #@! TA.AperFunction,Plated,PTH,ComponentDrill
T6C1.700
%
G90
G05
T1
X103.429Y-91.846
X106.42Y-115.824
X106.934Y-87.089
X106.934Y-94.709
X107.137Y-105.207
X108.521Y-83.058
X109.728Y-110.998
X110.642Y-94.844
X111.912Y-112.805
X124.207Y-99.187
X124.962Y-108.204
X124.962Y-109.474
X124.968Y-117.145
X125.349Y-120.015
X125.476Y-87.089
X125.476Y-89.629
X128.727Y-84.379
X128.981Y-91.897
X135.21Y-78.334
X135.585Y-70.642
X135.61Y-73.203
X135.992Y-68.58
X136.411Y-65.581
X136.55Y-66.548
X137.16Y-70.642
X137.16Y-73.152
X137.414Y-71.882
X137.465Y-69.291
X137.576Y-75.895
X138.176Y-63.144
X138.176Y-67.412
X138.278Y-64.11
X138.887Y-65.532
X139.09Y-61.874
X139.09Y-71.222
X139.097Y-75.001
X139.141Y-63.1
X140.208Y-78.791
X140.45Y-74.901
X140.55Y-65.9
X140.55Y-70.15
X140.55Y-71.0
X140.55Y-72.7
X140.55Y-73.75
X140.564Y-71.882
X141.111Y-77.069
X141.63Y-61.671
X141.884Y-80.416
X142.45Y-73.75
X143.3Y-73.75
X144.111Y-78.332
X144.15Y-73.75
X145.311Y-75.082
X146.304Y-103.327
X146.332Y-117.094
X147.55Y-66.75
X147.98Y-118.516
X150.266Y-103.276
X150.571Y-75.082
X151.13Y-85.954
X151.892Y-118.618
X152.887Y-74.649
X154.55Y-68.45
X154.55Y-70.15
X154.55Y-71.85
X156.667Y-105.715
X156.718Y-64.059
X159.844Y-105.664
X161.442Y-77.47
X161.544Y-105.664
X161.544Y-114.814
X164.944Y-105.664
X166.522Y-77.267
X167.556Y-73.7
X168.656Y-73.7
X169.756Y-61.7
X170.485Y-64.1
X170.856Y-61.7
X172.002Y-86.759
X173.056Y-61.7
X174.156Y-61.7
X174.156Y-73.7
X175.92Y-80.975
X178.256Y-73.7
X178.562Y-108.61
X179.356Y-73.7
X180.086Y-108.763
X181.556Y-61.7
X181.556Y-73.7
X184.556Y-99.263
X189.23Y-106.172
X189.484Y-102.768
X190.22Y-104.394
X190.449Y-83.668
X190.754Y-114.859
X191.008Y-109.779
X191.16Y-111.709
X193.142Y-105.816
X194.19Y-103.255
X197.952Y-92.019
X198.128Y-66.686
X198.128Y-71.766
X198.128Y-84.268
X198.754Y-114.808
X198.756Y-112.319
X200.406Y-106.68
X200.406Y-109.525
X201.727Y-79.248
X201.93Y-110.846
X203.352Y-114.351
X205.537Y-97.587
X205.892Y-94.691
X207.278Y-81.576
X207.724Y-93.174
X207.724Y-93.974
X207.724Y-99.674
T2
X193.568Y-109.706
X193.568Y-110.706
X194.568Y-109.706
X194.568Y-110.706
T4
X190.874Y-124.206
X193.374Y-124.206
X195.874Y-124.206
X198.374Y-124.206
T5
X108.839Y-127.635
X109.474Y-69.596
X111.379Y-127.635
X112.014Y-69.596
X127.254Y-69.088
X127.254Y-71.628
X127.254Y-74.168
X131.844Y-69.088
X131.844Y-71.628
X131.844Y-74.168
X141.021Y-83.007
X143.561Y-83.007
X146.101Y-83.007
X148.641Y-83.007
X158.714Y-85.852
X158.714Y-88.392
X158.714Y-90.932
X158.714Y-93.472
X159.512Y-60.96
X159.512Y-63.5
X159.512Y-66.04
X163.304Y-85.852
X163.304Y-88.392
X163.304Y-90.932
X163.304Y-93.472
X167.038Y-124.588
X167.038Y-135.588
X167.894Y-85.852
X167.894Y-88.392
X167.894Y-90.932
X167.894Y-93.472
X185.424Y-135.636
X185.923Y-60.579
X186.436Y-131.572
X187.964Y-135.636
X188.463Y-60.579
X188.976Y-131.572
X191.516Y-131.572
X194.056Y-131.572
X196.596Y-131.572
X199.136Y-131.572
T6
X177.038Y-127.588
X177.038Y-132.588
T3
G00X208.089Y-92.104
M15
G01X209.189Y-92.104
M16
G05
G00X208.089Y-100.744
M15
G01X209.189Y-100.744
M16
G05
G00X212.519Y-92.104
M15
G01X213.119Y-92.104
M16
G05
G00X212.519Y-100.744
M15
G01X213.119Y-100.744
M16
G05
M30
