%TF.GenerationSoftware,KiCad,Pcbnew,10.0.1*%
%TF.CreationDate,2026-05-31T11:58:53+05:30*%
%TF.ProjectId,rc-car,72632d63-6172-42e6-9b69-6361645f7063,rev?*%
%TF.SameCoordinates,Original*%
%TF.FileFunction,Copper,L4,Bot*%
%TF.FilePolarity,Positive*%
%FSLAX46Y46*%
G04 Gerber Fmt 4.6, Leading zero omitted, Abs format (unit mm)*
G04 Created by KiCad (PCBNEW 10.0.1) date 2026-05-31 11:58:53*
%MOMM*%
%LPD*%
G01*
G04 APERTURE LIST*
G04 Aperture macros list*
%AMRoundRect*
0 Rectangle with rounded corners*
0 $1 Rounding radius*
0 $2 $3 $4 $5 $6 $7 $8 $9 X,Y pos of 4 corners*
0 Add a 4 corners polygon primitive as box body*
4,1,4,$2,$3,$4,$5,$6,$7,$8,$9,$2,$3,0*
0 Add four circle primitives for the rounded corners*
1,1,$1+$1,$2,$3*
1,1,$1+$1,$4,$5*
1,1,$1+$1,$6,$7*
1,1,$1+$1,$8,$9*
0 Add four rect primitives between the rounded corners*
20,1,$1+$1,$2,$3,$4,$5,0*
20,1,$1+$1,$4,$5,$6,$7,0*
20,1,$1+$1,$6,$7,$8,$9,0*
20,1,$1+$1,$8,$9,$2,$3,0*%
G04 Aperture macros list end*
%TA.AperFunction,ComponentPad*%
%ADD10R,1.700000X1.700000*%
%TD*%
%TA.AperFunction,ComponentPad*%
%ADD11C,1.700000*%
%TD*%
%TA.AperFunction,ComponentPad*%
%ADD12O,2.100000X1.000000*%
%TD*%
%TA.AperFunction,ComponentPad*%
%ADD13O,1.600000X1.000000*%
%TD*%
%TA.AperFunction,SMDPad,CuDef*%
%ADD14RoundRect,0.237500X-0.237500X0.250000X-0.237500X-0.250000X0.237500X-0.250000X0.237500X0.250000X0*%
%TD*%
%TA.AperFunction,SMDPad,CuDef*%
%ADD15RoundRect,0.200000X-0.275000X0.200000X-0.275000X-0.200000X0.275000X-0.200000X0.275000X0.200000X0*%
%TD*%
%TA.AperFunction,SMDPad,CuDef*%
%ADD16RoundRect,0.225000X0.225000X0.250000X-0.225000X0.250000X-0.225000X-0.250000X0.225000X-0.250000X0*%
%TD*%
%TA.AperFunction,SMDPad,CuDef*%
%ADD17RoundRect,0.100000X-0.637500X-0.100000X0.637500X-0.100000X0.637500X0.100000X-0.637500X0.100000X0*%
%TD*%
%TA.AperFunction,SMDPad,CuDef*%
%ADD18RoundRect,0.200000X0.200000X0.275000X-0.200000X0.275000X-0.200000X-0.275000X0.200000X-0.275000X0*%
%TD*%
%TA.AperFunction,SMDPad,CuDef*%
%ADD19RoundRect,0.250000X-0.300000X2.050000X-0.300000X-2.050000X0.300000X-2.050000X0.300000X2.050000X0*%
%TD*%
%TA.AperFunction,SMDPad,CuDef*%
%ADD20RoundRect,0.250002X-5.149998X4.449998X-5.149998X-4.449998X5.149998X-4.449998X5.149998X4.449998X0*%
%TD*%
%TA.AperFunction,SMDPad,CuDef*%
%ADD21RoundRect,0.100000X-0.100000X0.130000X-0.100000X-0.130000X0.100000X-0.130000X0.100000X0.130000X0*%
%TD*%
%TA.AperFunction,SMDPad,CuDef*%
%ADD22RoundRect,0.250000X-2.050000X-0.300000X2.050000X-0.300000X2.050000X0.300000X-2.050000X0.300000X0*%
%TD*%
%TA.AperFunction,SMDPad,CuDef*%
%ADD23RoundRect,0.250002X-4.449998X-5.149998X4.449998X-5.149998X4.449998X5.149998X-4.449998X5.149998X0*%
%TD*%
%TA.AperFunction,SMDPad,CuDef*%
%ADD24RoundRect,0.200000X-0.200000X-0.275000X0.200000X-0.275000X0.200000X0.275000X-0.200000X0.275000X0*%
%TD*%
%TA.AperFunction,SMDPad,CuDef*%
%ADD25RoundRect,0.250000X-0.262500X-0.450000X0.262500X-0.450000X0.262500X0.450000X-0.262500X0.450000X0*%
%TD*%
%TA.AperFunction,SMDPad,CuDef*%
%ADD26RoundRect,0.225000X-0.250000X0.225000X-0.250000X-0.225000X0.250000X-0.225000X0.250000X0.225000X0*%
%TD*%
%TA.AperFunction,ComponentPad*%
%ADD27RoundRect,0.250000X0.600000X0.725000X-0.600000X0.725000X-0.600000X-0.725000X0.600000X-0.725000X0*%
%TD*%
%TA.AperFunction,ComponentPad*%
%ADD28O,1.700000X1.950000*%
%TD*%
%TA.AperFunction,SMDPad,CuDef*%
%ADD29RoundRect,0.237500X0.237500X-0.250000X0.237500X0.250000X-0.237500X0.250000X-0.237500X-0.250000X0*%
%TD*%
%TA.AperFunction,ComponentPad*%
%ADD30C,2.550000*%
%TD*%
%TA.AperFunction,ComponentPad*%
%ADD31R,2.550000X2.550000*%
%TD*%
%TA.AperFunction,ComponentPad*%
%ADD32C,1.508000*%
%TD*%
%TA.AperFunction,SMDPad,CuDef*%
%ADD33RoundRect,0.062500X0.365000X0.062500X-0.365000X0.062500X-0.365000X-0.062500X0.365000X-0.062500X0*%
%TD*%
%TA.AperFunction,SMDPad,CuDef*%
%ADD34RoundRect,0.062500X0.062500X0.365000X-0.062500X0.365000X-0.062500X-0.365000X0.062500X-0.365000X0*%
%TD*%
%TA.AperFunction,HeatsinkPad*%
%ADD35C,0.600000*%
%TD*%
%TA.AperFunction,HeatsinkPad*%
%ADD36R,2.140000X2.140000*%
%TD*%
%TA.AperFunction,ViaPad*%
%ADD37C,0.600000*%
%TD*%
%TA.AperFunction,Conductor*%
%ADD38C,0.200000*%
%TD*%
G04 APERTURE END LIST*
D10*
%TO.P,J6,1,Pin_1_1*%
%TO.N,GND*%
X127254000Y-69088000D03*
D11*
%TO.P,J6,2,Pin_2_2*%
%TO.N,VBAT_5V*%
X127254000Y-71628000D03*
%TO.P,J6,3,Pin_3_3*%
%TO.N,/servo*%
X127254000Y-74168000D03*
%TD*%
D10*
%TO.P,J3,1,Pin_1_1*%
%TO.N,GND*%
X141020800Y-83007200D03*
D11*
%TO.P,J3,2,Pin_2_2*%
%TO.N,3v3*%
X143560800Y-83007200D03*
%TO.P,J3,3,Pin_3_3*%
%TO.N,/SCL*%
X146100800Y-83007200D03*
%TO.P,J3,4,Pin_4_4*%
%TO.N,/SDA*%
X148640800Y-83007200D03*
%TD*%
D10*
%TO.P,J1,1,Pin_1_1*%
%TO.N,/TX*%
X159512000Y-66040000D03*
D11*
%TO.P,J1,2,Pin_2_2*%
%TO.N,/RX*%
X159512000Y-63500000D03*
%TO.P,J1,3,Pin_3_3*%
%TO.N,GND*%
X159512000Y-60960000D03*
%TD*%
D10*
%TO.P,J14,1,Pin_1_1*%
%TO.N,/Motor driver/M1AO2*%
X185923000Y-60579000D03*
D11*
%TO.P,J14,2,Pin_2_2*%
%TO.N,/Motor driver/M1AO1*%
X188463000Y-60579000D03*
%TD*%
D10*
%TO.P,J2,1,Pin_1_1*%
%TO.N,3v3*%
X158714000Y-85852000D03*
D11*
%TO.P,J2,2,Pin_2_2*%
%TO.N,/trig1*%
X158714000Y-88392000D03*
%TO.P,J2,3,Pin_3_3*%
%TO.N,/Echo1*%
X158714000Y-90932000D03*
%TO.P,J2,4,Pin_4_4*%
%TO.N,GND*%
X158714000Y-93472000D03*
%TD*%
D12*
%TO.P,J13,SH,SHIELD_SH*%
%TO.N,GND*%
X208639000Y-100744000D03*
D13*
X212819000Y-100744000D03*
D12*
X208639000Y-92104000D03*
D13*
X212819000Y-92104000D03*
%TD*%
D10*
%TO.P,J4,1,Pin_1_1*%
%TO.N,3v3*%
X163304000Y-85852000D03*
D11*
%TO.P,J4,2,Pin_2_2*%
%TO.N,/trig2*%
X163304000Y-88392000D03*
%TO.P,J4,3,Pin_3_3*%
%TO.N,/Echo2*%
X163304000Y-90932000D03*
%TO.P,J4,4,Pin_4_4*%
%TO.N,GND*%
X163304000Y-93472000D03*
%TD*%
D10*
%TO.P,J9,1,Pin_1_1*%
%TO.N,/Motor driver/M1AO2*%
X109474000Y-69596000D03*
D11*
%TO.P,J9,2,Pin_2_2*%
%TO.N,/Motor driver/M1AO1*%
X112014000Y-69596000D03*
%TD*%
D10*
%TO.P,J5,1,Pin_1_1*%
%TO.N,3v3*%
X167894000Y-85852000D03*
D11*
%TO.P,J5,2,Pin_2_2*%
%TO.N,/trig3*%
X167894000Y-88392000D03*
%TO.P,J5,3,Pin_3_3*%
%TO.N,/Echo3*%
X167894000Y-90932000D03*
%TO.P,J5,4,Pin_4_4*%
%TO.N,GND*%
X167894000Y-93472000D03*
%TD*%
D10*
%TO.P,J10,1,Pin_1_1*%
%TO.N,/Motor driver/M1BO2*%
X187964200Y-135636000D03*
D11*
%TO.P,J10,2,Pin_2_2*%
%TO.N,/Motor driver/M1BO1*%
X185424200Y-135636000D03*
%TD*%
D10*
%TO.P,J15,1,Pin_1_1*%
%TO.N,/Motor driver/M1BO2*%
X111379000Y-127635000D03*
D11*
%TO.P,J15,2,Pin_2_2*%
%TO.N,/Motor driver/M1BO1*%
X108839000Y-127635000D03*
%TD*%
D10*
%TO.P,J7,1,Pin_1_1*%
%TO.N,GND*%
X131844000Y-69088000D03*
D11*
%TO.P,J7,2,Pin_2_2*%
%TO.N,VBAT_5V*%
X131844000Y-71628000D03*
%TO.P,J7,3,Pin_3_3*%
%TO.N,/servo*%
X131844000Y-74168000D03*
%TD*%
D14*
%TO.P,R3,1*%
%TO.N,GND*%
X161380000Y-78439000D03*
%TO.P,R3,2*%
%TO.N,/Echo2*%
X161380000Y-80264000D03*
%TD*%
D15*
%TO.P,R18,1*%
%TO.N,/Battery/srp*%
X189230000Y-110794800D03*
%TO.P,R18,2*%
%TO.N,VBAT_12V*%
X189230000Y-112444800D03*
%TD*%
D16*
%TO.P,C5,1*%
%TO.N,Net-(U5-TERM_EN)*%
X192304000Y-114858800D03*
%TO.P,C5,2*%
%TO.N,GND*%
X190754000Y-114858800D03*
%TD*%
D17*
%TO.P,U4,1,VBUSG_1*%
%TO.N,unconnected-(U4-VBUSG-Pad1)*%
X177477500Y-83555000D03*
%TO.P,U4,2,VIN_2*%
%TO.N,Net-(U4-VIN)*%
X177477500Y-82905000D03*
%TO.P,U4,3,NC_3*%
%TO.N,unconnected-(U4-NC-Pad3)*%
X177477500Y-82255000D03*
%TO.P,U4,4,NC_4*%
%TO.N,unconnected-(U4-NC-Pad4)*%
X177477500Y-81605000D03*
%TO.P,U4,5,GND_5*%
%TO.N,GND*%
X177477500Y-80955000D03*
%TO.P,U4,6,NC_6*%
%TO.N,unconnected-(U4-NC-Pad6)*%
X177477500Y-80305000D03*
%TO.P,U4,7,NC_7*%
%TO.N,unconnected-(U4-NC-Pad7)*%
X177477500Y-79655000D03*
%TO.P,U4,8,NC_8*%
%TO.N,unconnected-(U4-NC-Pad8)*%
X177477500Y-79005000D03*
%TO.P,U4,9,NC_9*%
%TO.N,unconnected-(U4-NC-Pad9)*%
X183202500Y-79005000D03*
%TO.P,U4,10,NC_10*%
%TO.N,unconnected-(U4-NC-Pad10)*%
X183202500Y-79655000D03*
%TO.P,U4,11,SEL_11*%
%TO.N,unconnected-(U4-SEL-Pad11)*%
X183202500Y-80305000D03*
%TO.P,U4,12,CC2_12*%
%TO.N,/Battery/CC2*%
X183202500Y-80955000D03*
%TO.P,U4,13,CC1_13*%
%TO.N,/Battery/CC1*%
X183202500Y-81605000D03*
%TO.P,U4,14,NC_14*%
%TO.N,unconnected-(U4-NC-Pad14)*%
X183202500Y-82255000D03*
%TO.P,U4,15,NC_15*%
%TO.N,unconnected-(U4-NC-Pad15)*%
X183202500Y-82905000D03*
%TO.P,U4,16,VBUS_16*%
%TO.N,/Battery/12v_PD*%
X183202500Y-83555000D03*
%TD*%
D18*
%TO.P,R20,1*%
%TO.N,GND*%
X191770000Y-101600000D03*
%TO.P,R20,2*%
%TO.N,/Battery/vfb*%
X190120000Y-101600000D03*
%TD*%
D19*
%TO.P,U6,1,VIN_1*%
%TO.N,VBAT_12V*%
X158144000Y-105664000D03*
%TO.P,U6,2,OUT_2*%
%TO.N,VBAT_5V*%
X159844000Y-105664000D03*
%TO.P,U6,3,GND_3*%
%TO.N,GND*%
X161544000Y-105664000D03*
D20*
X161544000Y-114814000D03*
D19*
%TO.P,U6,4,FB_4*%
%TO.N,unconnected-(U6-FB-Pad4)*%
X163244000Y-105664000D03*
%TO.P,U6,5,~{ON}/OFF_5*%
%TO.N,GND*%
X164944000Y-105664000D03*
%TD*%
D21*
%TO.P,L1,1,1_1*%
%TO.N,/Battery/ph*%
X189230000Y-109016800D03*
%TO.P,L1,2,2_2*%
%TO.N,/Battery/srp*%
X189230000Y-109656800D03*
%TD*%
D18*
%TO.P,R14,1*%
%TO.N,Net-(D1-A)*%
X200406000Y-106680000D03*
%TO.P,R14,2*%
%TO.N,/Battery/12v_PD*%
X198756000Y-106680000D03*
%TD*%
D22*
%TO.P,Q2,1,G_1*%
%TO.N,/Battery/lodrv*%
X198128200Y-71766100D03*
D23*
%TO.P,Q2,2,D_2*%
%TO.N,/Battery/ph*%
X207278200Y-69226100D03*
D22*
%TO.P,Q2,3,S_3*%
%TO.N,GND*%
X198128200Y-66686100D03*
%TD*%
D21*
%TO.P,D1,1,K_1*%
%TO.N,Net-(D1-K)*%
X197358000Y-111048800D03*
%TO.P,D1,2,A_2*%
%TO.N,Net-(D1-A)*%
X197358000Y-111688800D03*
%TD*%
D10*
%TO.P,J8,1,Pin_1_1*%
%TO.N,/Battery/B-*%
X199136000Y-131572000D03*
D11*
%TO.P,J8,2,Pin_2_2*%
%TO.N,/Battery/B1*%
X196596000Y-131572000D03*
%TO.P,J8,3,Pin_3_3*%
%TO.N,/Battery/B2*%
X194056000Y-131572000D03*
%TO.P,J8,4,Pin_4_4*%
%TO.N,/Battery/B+*%
X191516000Y-131572000D03*
%TO.P,J8,5,Pin_5_5*%
%TO.N,GND*%
X188976000Y-131572000D03*
%TO.P,J8,6,Pin_6_6*%
%TO.N,VBAT_12V*%
X186436000Y-131572000D03*
%TD*%
D22*
%TO.P,Q1,1,G_1*%
%TO.N,/Battery/hidrv*%
X198128200Y-84116100D03*
D23*
%TO.P,Q1,2,D_2*%
%TO.N,/Battery/12v_PD*%
X207278200Y-81576100D03*
D22*
%TO.P,Q1,3,S_3*%
%TO.N,/Battery/ph*%
X198128200Y-79036100D03*
%TD*%
D16*
%TO.P,C6,1*%
%TO.N,/Battery/12v_PD*%
X180848000Y-86868000D03*
%TO.P,C6,2*%
%TO.N,GND*%
X179298000Y-86868000D03*
%TD*%
D24*
%TO.P,R16,1*%
%TO.N,Net-(U5-TERM_EN)*%
X192786000Y-117602000D03*
%TO.P,R16,2*%
%TO.N,/Battery/vref*%
X194436000Y-117602000D03*
%TD*%
D25*
%TO.P,TH1,1*%
%TO.N,/Battery/vref*%
X196850000Y-118110000D03*
%TO.P,TH1,2*%
%TO.N,Net-(U5-TS)*%
X198675000Y-118110000D03*
%TD*%
D14*
%TO.P,R9,1*%
%TO.N,/Battery/CC2*%
X173736000Y-89408000D03*
%TO.P,R9,2*%
%TO.N,GND*%
X173736000Y-91233000D03*
%TD*%
%TO.P,R2,1*%
%TO.N,GND*%
X158870000Y-78439000D03*
%TO.P,R2,2*%
%TO.N,/Echo1*%
X158870000Y-80264000D03*
%TD*%
D18*
%TO.P,R19,1*%
%TO.N,/Battery/vfb*%
X191770000Y-98552000D03*
%TO.P,R19,2*%
%TO.N,VBAT_12V*%
X190120000Y-98552000D03*
%TD*%
D16*
%TO.P,C7,1*%
%TO.N,Net-(U5-REGN)*%
X191770000Y-104394000D03*
%TO.P,C7,2*%
%TO.N,GND*%
X190220000Y-104394000D03*
%TD*%
D24*
%TO.P,R15,1*%
%TO.N,Net-(D2-A)*%
X197104000Y-114808000D03*
%TO.P,R15,2*%
%TO.N,/Battery/12v_PD*%
X198754000Y-114808000D03*
%TD*%
D18*
%TO.P,R22,1*%
%TO.N,GND*%
X200406000Y-109524800D03*
%TO.P,R22,2*%
%TO.N,/Battery/mppset*%
X198756000Y-109524800D03*
%TD*%
D14*
%TO.P,R5,1*%
%TO.N,GND*%
X166400000Y-78439000D03*
%TO.P,R5,2*%
%TO.N,/Echo3*%
X166400000Y-80264000D03*
%TD*%
D26*
%TO.P,C8,1*%
%TO.N,GND*%
X189230000Y-106172000D03*
%TO.P,C8,2*%
%TO.N,VBAT_12V*%
X189230000Y-107722000D03*
%TD*%
D14*
%TO.P,R1,1*%
%TO.N,/Echo1*%
X156360000Y-78439000D03*
%TO.P,R1,2*%
%TO.N,/eout1*%
X156360000Y-80264000D03*
%TD*%
D18*
%TO.P,R17,1*%
%TO.N,Net-(U5-TS)*%
X200406000Y-112318800D03*
%TO.P,R17,2*%
%TO.N,GND*%
X198756000Y-112318800D03*
%TD*%
D27*
%TO.P,J11,1,Pin_1_1*%
%TO.N,/Battery/B-*%
X198374000Y-124206000D03*
D28*
%TO.P,J11,2,Pin_2_2*%
%TO.N,/Battery/B1*%
X195874000Y-124206000D03*
%TO.P,J11,3,Pin_3_3*%
%TO.N,/Battery/B2*%
X193374000Y-124206000D03*
%TO.P,J11,4,Pin_4_4*%
%TO.N,/Battery/B+*%
X190874000Y-124206000D03*
%TD*%
D29*
%TO.P,R7,1*%
%TO.N,/Battery/CC1*%
X171450000Y-91233000D03*
%TO.P,R7,2*%
%TO.N,GND*%
X171450000Y-89408000D03*
%TD*%
D30*
%TO.P,J12,N,N_N*%
%TO.N,GND*%
X177038000Y-132588000D03*
D31*
%TO.P,J12,P,P_P*%
%TO.N,VBAT_12V*%
X177038000Y-127588000D03*
D32*
%TO.P,J12,S1*%
%TO.N,N/C*%
X167038000Y-135588000D03*
%TO.P,J12,S2*%
X167038000Y-124588000D03*
%TD*%
D14*
%TO.P,R4,1*%
%TO.N,/Echo2*%
X163890000Y-78439000D03*
%TO.P,R4,2*%
%TO.N,/eout2*%
X163890000Y-80264000D03*
%TD*%
D21*
%TO.P,D2,1,K_1*%
%TO.N,Net-(D2-K)*%
X195072000Y-114883800D03*
%TO.P,D2,2,A_2*%
%TO.N,Net-(D2-A)*%
X195072000Y-115523800D03*
%TD*%
D18*
%TO.P,R21,1*%
%TO.N,/Battery/mppset*%
X202692000Y-118110000D03*
%TO.P,R21,2*%
%TO.N,/Battery/vref*%
X201042000Y-118110000D03*
%TD*%
D33*
%TO.P,U5,1,VCC_1*%
%TO.N,/Battery/12v_PD*%
X195765500Y-109456300D03*
%TO.P,U5,2,MPPSET_2*%
%TO.N,/Battery/mppset*%
X195765500Y-109956300D03*
%TO.P,U5,3,STAT1_3*%
%TO.N,Net-(D1-K)*%
X195765500Y-110456300D03*
%TO.P,U5,4,TS_4*%
%TO.N,Net-(U5-TS)*%
X195765500Y-110956300D03*
D34*
%TO.P,U5,5,STAT2_5*%
%TO.N,Net-(D2-K)*%
X194818000Y-111903800D03*
%TO.P,U5,6,VREF_6*%
%TO.N,Net-(U5-TERM_EN)*%
X194318000Y-111903800D03*
%TO.P,U5,7,TERM_EN_7*%
X193818000Y-111903800D03*
%TO.P,U5,8,VFB_8*%
%TO.N,/Battery/vfb*%
X193318000Y-111903800D03*
D33*
%TO.P,U5,9,SRN_9*%
%TO.N,VBAT_12V*%
X192370500Y-110956300D03*
%TO.P,U5,10,SRP_10*%
%TO.N,/Battery/srp*%
X192370500Y-110456300D03*
%TO.P,U5,11,GND_11*%
%TO.N,GND*%
X192370500Y-109956300D03*
%TO.P,U5,12,REGN_12*%
%TO.N,Net-(U5-REGN)*%
X192370500Y-109456300D03*
D34*
%TO.P,U5,13,LODRV_13*%
%TO.N,/Battery/lodrv*%
X193318000Y-108508800D03*
%TO.P,U5,14,PH_14*%
%TO.N,/Battery/ph*%
X193818000Y-108508800D03*
%TO.P,U5,15,HIDRV_15*%
%TO.N,/Battery/hidrv*%
X194318000Y-108508800D03*
%TO.P,U5,16,BTST_16*%
%TO.N,/Battery/btst*%
X194818000Y-108508800D03*
D35*
%TO.P,U5,17,GND_17*%
%TO.N,GND*%
X194568000Y-110706300D03*
X194568000Y-109706300D03*
D36*
X194068000Y-110206300D03*
D35*
X193568000Y-110706300D03*
X193568000Y-109706300D03*
%TD*%
D14*
%TO.P,R6,1*%
%TO.N,/Echo3*%
X168910000Y-78439000D03*
%TO.P,R6,2*%
%TO.N,/eout3*%
X168910000Y-80264000D03*
%TD*%
D16*
%TO.P,C13,1*%
%TO.N,/Battery/btst*%
X195072000Y-104444800D03*
%TO.P,C13,2*%
%TO.N,/Battery/ph*%
X193522000Y-104444800D03*
%TD*%
D37*
%TO.N,3v3*%
X138176000Y-63144400D03*
X178562000Y-108610400D03*
X178256000Y-73700000D03*
X172001638Y-86759238D03*
X169756000Y-61700000D03*
X184556400Y-99263200D03*
X138176000Y-67411600D03*
X151130000Y-85953600D03*
X174156000Y-73700000D03*
%TO.N,GND*%
X125476000Y-87089100D03*
X181556000Y-61700000D03*
X138277600Y-64109600D03*
X108521000Y-83058000D03*
X175920400Y-80975200D03*
X106934000Y-94709100D03*
X125349000Y-120015000D03*
X161442400Y-77470000D03*
X147550000Y-66750000D03*
X166522400Y-77266800D03*
X147980400Y-118516400D03*
X207724000Y-93174000D03*
X200406000Y-109524800D03*
X106420000Y-115824000D03*
X124962000Y-108204000D03*
X190754000Y-114858800D03*
X189230000Y-106172000D03*
X124207000Y-99187000D03*
X190220000Y-104394000D03*
X207724000Y-99674000D03*
X181556000Y-73700000D03*
X191008000Y-109778800D03*
X107137200Y-105206800D03*
X168656000Y-73700000D03*
X180086000Y-108762800D03*
X164944000Y-105664000D03*
X141630400Y-61671200D03*
X135209700Y-78333600D03*
X198128200Y-66686100D03*
X198756000Y-112318800D03*
X161544000Y-105664000D03*
X179356000Y-73700000D03*
X140550000Y-73750000D03*
X137160000Y-70642000D03*
X151892000Y-118618000D03*
X161544000Y-114814000D03*
X136550400Y-66548000D03*
X140208000Y-78790800D03*
X137160000Y-73152000D03*
%TO.N,/IO0*%
X139090400Y-61874400D03*
X139141200Y-63100000D03*
%TO.N,/INT*%
X138887200Y-65532000D03*
X136410859Y-65580572D03*
X141884400Y-80416400D03*
X141110998Y-77069500D03*
%TO.N,/SCL*%
X144110800Y-78332000D03*
X139090400Y-71221600D03*
X173056000Y-61700000D03*
X150571200Y-75082400D03*
X140550000Y-71000000D03*
X139097445Y-75001085D03*
X135991600Y-68580000D03*
%TO.N,/SDA*%
X137464800Y-69291200D03*
X174156000Y-61700000D03*
X140450000Y-74901472D03*
X152886962Y-74648633D03*
X140550000Y-70150000D03*
%TO.N,VBAT_12V*%
X156667200Y-105714800D03*
X103428800Y-91846400D03*
X150266400Y-103276400D03*
X124968000Y-117144800D03*
X146304000Y-103327200D03*
X106934000Y-87089100D03*
X146332000Y-117094000D03*
%TO.N,VBAT_5V*%
X159844000Y-105664000D03*
X135585200Y-70642000D03*
X135610000Y-73202800D03*
%TO.N,/servo*%
X140550000Y-65900000D03*
X137414000Y-71882000D03*
%TO.N,/AIN1*%
X137576000Y-75895200D03*
X142450000Y-73750000D03*
%TO.N,/PWMA*%
X109728000Y-110998000D03*
X140563600Y-71882000D03*
X125476000Y-89629100D03*
X128727200Y-84378800D03*
%TO.N,/SB*%
X156718000Y-64058800D03*
X167556000Y-73700000D03*
%TO.N,/TX*%
X170484800Y-64100000D03*
X170856000Y-61700000D03*
%TO.N,Net-(U4-VIN)*%
X207724000Y-93974000D03*
%TO.N,/Battery/CC1*%
X205536800Y-97586800D03*
%TO.N,/Battery/CC2*%
X205892400Y-94691200D03*
%TO.N,/AIN2*%
X110642400Y-94843600D03*
X144150000Y-73750000D03*
%TO.N,/PWMB*%
X128981200Y-91897200D03*
X140550000Y-72700000D03*
%TO.N,/BIN1*%
X143300000Y-73750000D03*
X111912400Y-112805157D03*
%TO.N,/BIN2*%
X145310800Y-75082400D03*
X124962000Y-109474000D03*
%TO.N,/eout1*%
X154550000Y-71850000D03*
%TO.N,/eout2*%
X154550000Y-70150000D03*
%TO.N,/eout3*%
X154550000Y-68450000D03*
%TO.N,/Battery/12v_PD*%
X207278200Y-81576100D03*
X198754000Y-114808000D03*
X203352400Y-114350800D03*
X190449200Y-83667600D03*
%TO.N,/Battery/vfb*%
X189484000Y-102768400D03*
X191160400Y-111709200D03*
%TO.N,/Battery/ph*%
X201726800Y-79248000D03*
X194189690Y-103254885D03*
%TO.N,Net-(D1-A)*%
X200406000Y-106680000D03*
X201930000Y-110845600D03*
%TO.N,/Battery/lodrv*%
X198128200Y-71766100D03*
X193141600Y-105816400D03*
%TO.N,/Battery/hidrv*%
X198128200Y-84267600D03*
X197951964Y-92018894D03*
%TD*%
%TO.N,3v3*%
D38*
X158714000Y-85852000D02*
X151231600Y-85852000D01*
X166744000Y-87002000D02*
X167894000Y-85852000D01*
X172001638Y-87498016D02*
X169044000Y-90455654D01*
X167417654Y-92082000D02*
X166744000Y-91408346D01*
X169044000Y-90455654D02*
X169044000Y-91408346D01*
X151231600Y-85852000D02*
X151130000Y-85953600D01*
X169044000Y-91408346D02*
X168370346Y-92082000D01*
X168370346Y-92082000D02*
X167417654Y-92082000D01*
X166744000Y-91408346D02*
X166744000Y-87002000D01*
X172001638Y-86759238D02*
X172001638Y-87498016D01*
%TO.N,GND*%
X173275000Y-91233000D02*
X171450000Y-89408000D01*
X192370500Y-109956300D02*
X191185500Y-109956300D01*
X177477500Y-80955000D02*
X175940600Y-80955000D01*
X173736000Y-91233000D02*
X174933000Y-91233000D01*
X190220000Y-104394000D02*
X190220000Y-103150000D01*
X174933000Y-91233000D02*
X179298000Y-86868000D01*
X166400000Y-78439000D02*
X166400000Y-77389200D01*
X191185500Y-109956300D02*
X191008000Y-109778800D01*
X171450000Y-89408000D02*
X171450000Y-89916000D01*
X161380000Y-78439000D02*
X161380000Y-77532400D01*
X173736000Y-91233000D02*
X173275000Y-91233000D01*
X158870000Y-78439000D02*
X161380000Y-78439000D01*
X171450000Y-89916000D02*
X167894000Y-93472000D01*
X190220000Y-103150000D02*
X191770000Y-101600000D01*
X166400000Y-77389200D02*
X166522400Y-77266800D01*
X175940600Y-80955000D02*
X175920400Y-80975200D01*
X161380000Y-77532400D02*
X161442400Y-77470000D01*
%TO.N,/IO0*%
X139090400Y-61874400D02*
X139090400Y-63049200D01*
X139090400Y-63049200D02*
X139141200Y-63100000D01*
%TO.N,/INT*%
X141884400Y-80416400D02*
X141110998Y-79642998D01*
X141110998Y-79642998D02*
X141110998Y-77069500D01*
X136410859Y-65580572D02*
X136459431Y-65532000D01*
X136459431Y-65532000D02*
X138887200Y-65532000D01*
%TO.N,/SCL*%
X139022530Y-75076000D02*
X139097445Y-75001085D01*
X137216271Y-69891200D02*
X139441200Y-69891200D01*
X156445654Y-64700000D02*
X170733329Y-64700000D01*
X144110800Y-78332000D02*
X142074000Y-76295200D01*
X137546671Y-75076000D02*
X139022530Y-75076000D01*
X136976000Y-76143729D02*
X136976000Y-75646671D01*
X138024529Y-76295200D02*
X137824529Y-76495200D01*
X150571200Y-70574454D02*
X156445654Y-64700000D01*
X135991600Y-68580000D02*
X135991600Y-68666529D01*
X140328400Y-71221600D02*
X140550000Y-71000000D01*
X137327471Y-76495200D02*
X136976000Y-76143729D01*
X135991600Y-68666529D02*
X137216271Y-69891200D01*
X137824529Y-76495200D02*
X137327471Y-76495200D01*
X150571200Y-75082400D02*
X150571200Y-70574454D01*
X139090400Y-71221600D02*
X140328400Y-71221600D01*
X142074000Y-76295200D02*
X138024529Y-76295200D01*
X136976000Y-75646671D02*
X137546671Y-75076000D01*
X170733329Y-64700000D02*
X173056000Y-62377329D01*
X139441200Y-69891200D02*
X140550000Y-71000000D01*
X173056000Y-62377329D02*
X173056000Y-61700000D01*
%TO.N,/SDA*%
X168809014Y-67190000D02*
X174156000Y-61843014D01*
X140450000Y-74901472D02*
X141166800Y-74184672D01*
X141166800Y-70766800D02*
X140550000Y-70150000D01*
X152886962Y-69264509D02*
X154961471Y-67190000D01*
X141166800Y-74184672D02*
X141166800Y-70766800D01*
X154961471Y-67190000D02*
X168809014Y-67190000D01*
X174156000Y-61843014D02*
X174156000Y-61700000D01*
X152886962Y-74648633D02*
X152886962Y-69264509D01*
X139691200Y-69291200D02*
X140550000Y-70150000D01*
X137464800Y-69291200D02*
X139691200Y-69291200D01*
%TO.N,VBAT_12V*%
X188455000Y-106947000D02*
X189230000Y-107722000D01*
X158093200Y-105714800D02*
X158144000Y-105664000D01*
X189230000Y-112444800D02*
X189230000Y-128778000D01*
X190120000Y-98552000D02*
X188455000Y-100217000D01*
X146230400Y-117195600D02*
X146332000Y-117094000D01*
X156667200Y-105714800D02*
X158093200Y-105714800D01*
X103428800Y-90594300D02*
X106934000Y-87089100D01*
X124968000Y-117144800D02*
X125018800Y-117195600D01*
X190718500Y-110956300D02*
X189230000Y-112444800D01*
X188455000Y-100217000D02*
X188455000Y-106947000D01*
X189230000Y-128778000D02*
X186436000Y-131572000D01*
X192370500Y-110956300D02*
X190718500Y-110956300D01*
X189230000Y-107722000D02*
X188455000Y-108497000D01*
X103428800Y-91846400D02*
X103428800Y-90594300D01*
X188455000Y-111669800D02*
X189230000Y-112444800D01*
X188455000Y-108497000D02*
X188455000Y-111669800D01*
X125018800Y-117195600D02*
X146230400Y-117195600D01*
%TO.N,VBAT_5V*%
X150190800Y-94576056D02*
X150190800Y-78376585D01*
X140430529Y-64932000D02*
X136210902Y-64932000D01*
X132994000Y-68148902D02*
X132994000Y-70478000D01*
X159844000Y-104229256D02*
X150190800Y-94576056D01*
X141150000Y-65651471D02*
X140430529Y-64932000D01*
X141150000Y-69335785D02*
X141150000Y-65651471D01*
X132994000Y-70478000D02*
X131844000Y-71628000D01*
X159844000Y-105664000D02*
X159844000Y-104229256D01*
X136210902Y-64932000D02*
X132994000Y-68148902D01*
X150190800Y-78376585D02*
X141150000Y-69335785D01*
%TO.N,/servo*%
X137414000Y-71882000D02*
X136560000Y-71028000D01*
X135391600Y-68331471D02*
X136575071Y-67148000D01*
X140318000Y-66132000D02*
X140550000Y-65900000D01*
X138607071Y-66132000D02*
X140318000Y-66132000D01*
X136560000Y-71028000D02*
X136560000Y-69996929D01*
X136503729Y-69996929D02*
X135391600Y-68884800D01*
X136560000Y-69996929D02*
X136503729Y-69996929D01*
X136575071Y-67148000D02*
X137591071Y-67148000D01*
X135391600Y-68884800D02*
X135391600Y-68331471D01*
X137591071Y-67148000D02*
X138607071Y-66132000D01*
%TO.N,/AIN1*%
X137576000Y-75895200D02*
X140304800Y-75895200D01*
X140304800Y-75895200D02*
X142450000Y-73750000D01*
%TO.N,/PWMA*%
X131438346Y-76200000D02*
X135156346Y-72482000D01*
X109728000Y-110998000D02*
X109728000Y-94909471D01*
X128727200Y-77571600D02*
X130098800Y-76200000D01*
X130098800Y-76200000D02*
X131438346Y-76200000D01*
X140766800Y-71882000D02*
X140665200Y-71882000D01*
X109728000Y-94909471D02*
X115008371Y-89629100D01*
X115008371Y-89629100D02*
X125476000Y-89629100D01*
X138439600Y-72482000D02*
X139039600Y-71882000D01*
X135156346Y-72482000D02*
X138439600Y-72482000D01*
X128727200Y-84378800D02*
X128727200Y-77571600D01*
X139039600Y-71882000D02*
X140766800Y-71882000D01*
%TO.N,/SB*%
X156718000Y-64058800D02*
X158426800Y-62350000D01*
X174404529Y-61100000D02*
X174756000Y-61451471D01*
X174756000Y-66500000D02*
X167556000Y-73700000D01*
X174756000Y-61451471D02*
X174756000Y-66500000D01*
X159988346Y-62350000D02*
X161238346Y-61100000D01*
X158426800Y-62350000D02*
X159988346Y-62350000D01*
X161238346Y-61100000D02*
X174404529Y-61100000D01*
%TO.N,/TX*%
X170484800Y-62071200D02*
X170856000Y-61700000D01*
X170484800Y-64100000D02*
X170484800Y-62071200D01*
%TO.N,/Motor driver/M1AO2*%
X185154000Y-59810000D02*
X185923000Y-60579000D01*
X140306271Y-59810000D02*
X185154000Y-59810000D01*
X132178271Y-67938000D02*
X140306271Y-59810000D01*
X111132000Y-67938000D02*
X132178271Y-67938000D01*
X109474000Y-69596000D02*
X111132000Y-67938000D01*
%TO.N,/Echo1*%
X156360000Y-78439000D02*
X157045000Y-78439000D01*
X157045000Y-78439000D02*
X158870000Y-80264000D01*
X158870000Y-80264000D02*
X159864000Y-81258000D01*
X159864000Y-89782000D02*
X158714000Y-90932000D01*
X159864000Y-81258000D02*
X159864000Y-89782000D01*
%TO.N,Net-(U4-VIN)*%
X182396544Y-78505000D02*
X189382356Y-78505000D01*
X179673314Y-81446685D02*
X179673314Y-81228230D01*
X179673314Y-81228230D02*
X182396544Y-78505000D01*
X204851356Y-93974000D02*
X207724000Y-93974000D01*
X178214999Y-82905000D02*
X179673314Y-81446685D01*
X189382356Y-78505000D02*
X204851356Y-93974000D01*
X177477500Y-82905000D02*
X178214999Y-82905000D01*
%TO.N,/Battery/CC1*%
X180048000Y-87341696D02*
X180048000Y-84103544D01*
X189555000Y-81605000D02*
X205536800Y-97586800D01*
X172237500Y-92020500D02*
X175369196Y-92020500D01*
X183202500Y-81605000D02*
X189555000Y-81605000D01*
X180048000Y-84103544D02*
X182546544Y-81605000D01*
X182546544Y-81605000D02*
X183202500Y-81605000D01*
X175369196Y-92020500D02*
X180048000Y-87341696D01*
X171450000Y-91233000D02*
X172237500Y-92020500D01*
%TO.N,/Battery/CC2*%
X204774800Y-94691200D02*
X205892400Y-94691200D01*
X191038600Y-80955000D02*
X204774800Y-94691200D01*
X183202500Y-80955000D02*
X191038600Y-80955000D01*
X182189000Y-80955000D02*
X183202500Y-80955000D01*
X173736000Y-89408000D02*
X182189000Y-80955000D01*
%TO.N,/Echo2*%
X161380000Y-89008000D02*
X163304000Y-90932000D01*
X161380000Y-80264000D02*
X162065000Y-80264000D01*
X161380000Y-80264000D02*
X161380000Y-89008000D01*
X162065000Y-80264000D02*
X163890000Y-78439000D01*
%TO.N,/AIN2*%
X144710800Y-83483546D02*
X144710800Y-74310800D01*
X133350746Y-94843600D02*
X144710800Y-83483546D01*
X110642400Y-94843600D02*
X133350746Y-94843600D01*
X144710800Y-74310800D02*
X144150000Y-73750000D01*
%TO.N,/PWMB*%
X138574000Y-74676000D02*
X140550000Y-72700000D01*
X134609700Y-75346700D02*
X135280400Y-74676000D01*
X134609700Y-86268700D02*
X134609700Y-75346700D01*
X128981200Y-91897200D02*
X134609700Y-86268700D01*
X135280400Y-74676000D02*
X138574000Y-74676000D01*
%TO.N,/Echo3*%
X166400000Y-80264000D02*
X169044000Y-82908000D01*
X168225000Y-78439000D02*
X166400000Y-80264000D01*
X169044000Y-89782000D02*
X167894000Y-90932000D01*
X169044000Y-82908000D02*
X169044000Y-89782000D01*
X168910000Y-78439000D02*
X168225000Y-78439000D01*
%TO.N,/BIN1*%
X143900000Y-73150000D02*
X143300000Y-73750000D01*
X149790800Y-78542271D02*
X144398529Y-73150000D01*
X122479372Y-112805157D02*
X149790800Y-85493729D01*
X149790800Y-85493729D02*
X149790800Y-78542271D01*
X111912400Y-112805157D02*
X122479372Y-112805157D01*
X144398529Y-73150000D02*
X143900000Y-73150000D01*
%TO.N,/Motor driver/M1BO1*%
X185166000Y-130759200D02*
X185166000Y-135377800D01*
X175666400Y-121259600D02*
X185166000Y-130759200D01*
X109989000Y-128785000D02*
X131158600Y-128785000D01*
X185166000Y-135377800D02*
X185424200Y-135636000D01*
X108839000Y-127635000D02*
X109989000Y-128785000D01*
X138684000Y-121259600D02*
X175666400Y-121259600D01*
X131158600Y-128785000D02*
X138684000Y-121259600D01*
%TO.N,/BIN2*%
X147250800Y-87185200D02*
X124962000Y-109474000D01*
X145310800Y-75082400D02*
X147250800Y-77022400D01*
X147250800Y-77022400D02*
X147250800Y-87185200D01*
%TO.N,/eout1*%
X154550000Y-78454000D02*
X154550000Y-71850000D01*
X156360000Y-80264000D02*
X154550000Y-78454000D01*
%TO.N,/eout2*%
X156855222Y-70150000D02*
X154550000Y-70150000D01*
X164665000Y-77959778D02*
X156855222Y-70150000D01*
X164665000Y-79489000D02*
X164665000Y-77959778D01*
X163890000Y-80264000D02*
X164665000Y-79489000D01*
%TO.N,/eout3*%
X169685000Y-79489000D02*
X169685000Y-77959778D01*
X169685000Y-77959778D02*
X160175222Y-68450000D01*
X160175222Y-68450000D02*
X154550000Y-68450000D01*
X168910000Y-80264000D02*
X169685000Y-79489000D01*
%TO.N,/Battery/srp*%
X192370500Y-110456300D02*
X189568500Y-110456300D01*
X189568500Y-110456300D02*
X189230000Y-110794800D01*
X189230000Y-109656800D02*
X189230000Y-110794800D01*
%TO.N,Net-(U5-TERM_EN)*%
X192304000Y-114858800D02*
X193818000Y-113344800D01*
X192304000Y-114858800D02*
X192304000Y-117120000D01*
X193818000Y-113344800D02*
X193818000Y-111903800D01*
X194318000Y-111903800D02*
X193818000Y-111903800D01*
X192304000Y-117120000D02*
X192786000Y-117602000D01*
%TO.N,/Battery/12v_PD*%
X203352400Y-110717866D02*
X203352400Y-114350800D01*
X180848000Y-86868000D02*
X180848000Y-85909500D01*
X198756000Y-106680000D02*
X199531000Y-107455000D01*
X200089534Y-107455000D02*
X203352400Y-110717866D01*
X198756000Y-91974400D02*
X198756000Y-106680000D01*
X190336600Y-83555000D02*
X190449200Y-83667600D01*
X183202500Y-83555000D02*
X190336600Y-83555000D01*
X195765500Y-109456300D02*
X198541800Y-106680000D01*
X190449200Y-83667600D02*
X198756000Y-91974400D01*
X198541800Y-106680000D02*
X198756000Y-106680000D01*
X199531000Y-107455000D02*
X200089534Y-107455000D01*
X180848000Y-85909500D02*
X183202500Y-83555000D01*
%TO.N,/Battery/vfb*%
X193318000Y-111903800D02*
X193123400Y-111709200D01*
X190120000Y-100202000D02*
X191770000Y-98552000D01*
X189484000Y-102236000D02*
X190120000Y-101600000D01*
X189484000Y-102768400D02*
X189484000Y-102236000D01*
X193123400Y-111709200D02*
X191160400Y-111709200D01*
X190120000Y-101600000D02*
X190120000Y-100202000D01*
%TO.N,/Battery/ph*%
X193818000Y-108508800D02*
X193818000Y-104740800D01*
X189230000Y-109016800D02*
X191020000Y-107226800D01*
X191321304Y-103619000D02*
X192696200Y-103619000D01*
X193522000Y-103922575D02*
X193522000Y-104444800D01*
X194189690Y-103254885D02*
X193522000Y-103922575D01*
X192696200Y-103619000D02*
X193522000Y-104444800D01*
X191020000Y-107226800D02*
X191020000Y-103920304D01*
X201514900Y-79036100D02*
X201726800Y-79248000D01*
X193818000Y-104740800D02*
X193522000Y-104444800D01*
X191020000Y-103920304D02*
X191321304Y-103619000D01*
X198128200Y-79036100D02*
X201514900Y-79036100D01*
X207278200Y-69886100D02*
X207278200Y-69226100D01*
X198128200Y-79036100D02*
X207278200Y-69886100D01*
%TO.N,Net-(D1-A)*%
X198475600Y-110845600D02*
X201930000Y-110845600D01*
X197632400Y-111688800D02*
X198475600Y-110845600D01*
X197358000Y-111688800D02*
X197632400Y-111688800D01*
%TO.N,/Battery/lodrv*%
X193318000Y-105992800D02*
X193141600Y-105816400D01*
X193318000Y-108508800D02*
X193318000Y-105992800D01*
%TO.N,Net-(D1-K)*%
X195765500Y-110456300D02*
X196765500Y-110456300D01*
X196765500Y-110456300D02*
X197358000Y-111048800D01*
%TO.N,/Battery/hidrv*%
X194318000Y-103975104D02*
X198356000Y-99937104D01*
X198356000Y-92422930D02*
X197951964Y-92018894D01*
X194318000Y-108508800D02*
X194318000Y-103975104D01*
X198356000Y-99937104D02*
X198356000Y-92422930D01*
%TO.N,/Battery/vref*%
X196342000Y-117602000D02*
X196850000Y-118110000D01*
X200042000Y-119110000D02*
X201042000Y-118110000D01*
X194436000Y-117602000D02*
X196342000Y-117602000D01*
X197850000Y-119110000D02*
X200042000Y-119110000D01*
X196850000Y-118110000D02*
X197850000Y-119110000D01*
%TO.N,Net-(U5-TS)*%
X198675000Y-118110000D02*
X200406000Y-116379000D01*
X197903000Y-113093800D02*
X199631000Y-113093800D01*
X199631000Y-113093800D02*
X200406000Y-112318800D01*
X195765500Y-110956300D02*
X197903000Y-113093800D01*
X200406000Y-116379000D02*
X200406000Y-112318800D01*
%TO.N,Net-(U5-REGN)*%
X191770000Y-108855800D02*
X191770000Y-104394000D01*
X192370500Y-109456300D02*
X191770000Y-108855800D01*
%TO.N,Net-(D2-A)*%
X196388200Y-115523800D02*
X197104000Y-114808000D01*
X195072000Y-115523800D02*
X196388200Y-115523800D01*
%TO.N,/Battery/mppset*%
X195765500Y-109956300D02*
X198324500Y-109956300D01*
X198324500Y-109956300D02*
X198756000Y-109524800D01*
X199531000Y-108749800D02*
X198756000Y-109524800D01*
X200818648Y-108749800D02*
X199531000Y-108749800D01*
X202692000Y-110623152D02*
X200818648Y-108749800D01*
X202692000Y-118110000D02*
X202692000Y-110623152D01*
%TO.N,Net-(D2-K)*%
X194818000Y-111903800D02*
X194818000Y-114629800D01*
X194818000Y-114629800D02*
X195072000Y-114883800D01*
%TO.N,/Battery/btst*%
X194818000Y-108508800D02*
X194818000Y-104698800D01*
X194818000Y-104698800D02*
X195072000Y-104444800D01*
%TD*%
M02*
