%TF.GenerationSoftware,KiCad,Pcbnew,10.0.1*%
%TF.CreationDate,2026-05-31T11:58:53+05:30*%
%TF.ProjectId,rc-car,72632d63-6172-42e6-9b69-6361645f7063,rev?*%
%TF.SameCoordinates,Original*%
%TF.FileFunction,Profile,NP*%
%FSLAX46Y46*%
G04 Gerber Fmt 4.6, Leading zero omitted, Abs format (unit mm)*
G04 Created by KiCad (PCBNEW 10.0.1) date 2026-05-31 11:58:53*
%MOMM*%
%LPD*%
G01*
G04 APERTURE LIST*
%TA.AperFunction,Profile*%
%ADD10C,0.050000*%
%TD*%
G04 APERTURE END LIST*
D10*
X90932000Y-74207068D02*
X90932000Y-123258549D01*
X90932000Y-74207068D02*
G75*
G02*
X92396441Y-70671509I5000200J-32D01*
G01*
X92268032Y-126660804D02*
G75*
G02*
X90932020Y-123258549I3664168J3402304D01*
G01*
X92396466Y-70671534D02*
X97087534Y-65980466D01*
X96052380Y-130736256D02*
X92268032Y-126660804D01*
X97087534Y-65980466D02*
G75*
G02*
X100623068Y-64515977I3535566J-3535534D01*
G01*
X99716348Y-132334000D02*
G75*
G02*
X96052355Y-130736279I-48J5000000D01*
G01*
X99716348Y-132334000D02*
X104164000Y-132334000D01*
X100623068Y-64516000D02*
X105180000Y-64516000D01*
X105180000Y-64516000D02*
G75*
G02*
X106680000Y-66016000I0J-1500000D01*
G01*
X105664000Y-130556000D02*
X105664000Y-130834000D01*
X105664000Y-130556000D02*
X114808000Y-130556000D01*
X105664000Y-130834000D02*
G75*
G02*
X104164000Y-132334000I-1500000J0D01*
G01*
X106680000Y-66016000D02*
X106680000Y-66294000D01*
X106680000Y-66294000D02*
X115824000Y-66294000D01*
X114808000Y-130834000D02*
X114808000Y-130556000D01*
X115824000Y-66016000D02*
G75*
G02*
X117324000Y-64516000I1500000J0D01*
G01*
X115824000Y-66294000D02*
X115824000Y-66016000D01*
X116308000Y-132334000D02*
G75*
G02*
X114808000Y-130834000I0J1500000D01*
G01*
X116308000Y-132334000D02*
X119488789Y-132334000D01*
X117324000Y-64516000D02*
X120504789Y-64516000D01*
X120504789Y-64516000D02*
G75*
G02*
X123125279Y-65257703I11J-5000000D01*
G01*
X122109277Y-131592291D02*
G75*
G02*
X119488789Y-132333979I-2620477J4258391D01*
G01*
X122109277Y-131592291D02*
X123000724Y-131043708D01*
X123000724Y-131043708D02*
G75*
G02*
X125621211Y-130302020I2620476J-4258392D01*
G01*
X123125276Y-65257708D02*
X124016723Y-65806291D01*
X125621211Y-130302000D02*
X128500924Y-130302000D01*
X126637211Y-66548000D02*
G75*
G02*
X124016720Y-65806296I-11J5000000D01*
G01*
X126637211Y-66548000D02*
X129571922Y-66548000D01*
X128500924Y-130302000D02*
G75*
G02*
X133111932Y-133368352I-24J-5000100D01*
G01*
X133842104Y-135109633D02*
X133111896Y-133368367D01*
X134152709Y-63552094D02*
G75*
G02*
X129571922Y-66547929I-4580709J2004094D01*
G01*
X134152709Y-63552094D02*
X135087291Y-61415906D01*
X135087291Y-61415906D02*
G75*
G02*
X139668078Y-58419980I4580809J-2004094D01*
G01*
X138453076Y-138176000D02*
G75*
G02*
X133842124Y-135109624I24J5000000D01*
G01*
X138453076Y-138176000D02*
X201787333Y-138176000D01*
X139668078Y-58420000D02*
X202224000Y-58420000D01*
X202224000Y-58420000D02*
G75*
G02*
X206224000Y-60420000I0J-5000000D01*
G01*
X204787333Y-137176000D02*
G75*
G02*
X201787333Y-138176020I-3000033J4000000D01*
G01*
X206224000Y-60420000D02*
X206272000Y-60484000D01*
X206718000Y-135728000D02*
X204787333Y-137176000D01*
X206718000Y-135728000D02*
G75*
G02*
X208518000Y-135128000I1800000J-2400000D01*
G01*
X208518000Y-135128000D02*
X210649658Y-135128000D01*
X210272000Y-62484000D02*
G75*
G02*
X206272000Y-60484000I0J5000000D01*
G01*
X210272000Y-62484000D02*
X211440152Y-62484000D01*
X211440152Y-62484000D02*
G75*
G02*
X212534483Y-62958064I48J-1500000D01*
G01*
X212534458Y-62958088D02*
X215455542Y-66073912D01*
X212701481Y-134316612D02*
G75*
G02*
X210649658Y-135127986I-2051881J2188812D01*
G01*
X215323013Y-131858926D02*
X212701481Y-134316612D01*
X215323013Y-131858926D02*
G75*
G02*
X216690895Y-131317997I1367887J-1459074D01*
G01*
X215900000Y-75676000D02*
X215900000Y-121568680D01*
X215900000Y-75676000D02*
G75*
G02*
X216900000Y-74676000I1000000J0D01*
G01*
X216339340Y-122629340D02*
G75*
G02*
X215900014Y-121568680I1060660J1060640D01*
G01*
X216339340Y-122629340D02*
X216900000Y-123190000D01*
X216549848Y-66548000D02*
G75*
G02*
X215455563Y-66073892I-48J1499800D01*
G01*
X216549848Y-66548000D02*
X216964000Y-66548000D01*
X216964000Y-66548000D02*
G75*
G02*
X219964000Y-69548000I0J-3000000D01*
G01*
X216964000Y-74676000D02*
X216900000Y-74676000D01*
X216964000Y-123190000D02*
X216900000Y-123190000D01*
X216964000Y-123190000D02*
G75*
G02*
X219964000Y-126190000I0J-3000000D01*
G01*
X216964000Y-131318000D02*
X216690895Y-131318000D01*
X219964000Y-69548000D02*
X219964000Y-71676000D01*
X219964000Y-71676000D02*
G75*
G02*
X216964000Y-74676000I-3000000J0D01*
G01*
X219964000Y-126190000D02*
X219964000Y-128318000D01*
X219964000Y-128318000D02*
G75*
G02*
X216964000Y-131318000I-3000000J0D01*
G01*
M02*
