%TF.GenerationSoftware,KiCad,Pcbnew,10.0.1*%
%TF.CreationDate,2026-05-31T11:58:53+05:30*%
%TF.ProjectId,rc-car,72632d63-6172-42e6-9b69-6361645f7063,rev?*%
%TF.SameCoordinates,Original*%
%TF.FileFunction,Soldermask,Top*%
%TF.FilePolarity,Negative*%
%FSLAX46Y46*%
G04 Gerber Fmt 4.6, Leading zero omitted, Abs format (unit mm)*
G04 Created by KiCad (PCBNEW 10.0.1) date 2026-05-31 11:58:53*
%MOMM*%
%LPD*%
G01*
G04 APERTURE LIST*
G04 Aperture macros list*
%AMRoundRect*
0 Rectangle with rounded corners*
0 $1 Rounding radius*
0 $2 $3 $4 $5 $6 $7 $8 $9 X,Y pos of 4 corners*
0 Add a 4 corners polygon primitive as box body*
4,1,4,$2,$3,$4,$5,$6,$7,$8,$9,$2,$3,0*
0 Add four circle primitives for the rounded corners*
1,1,$1+$1,$2,$3*
1,1,$1+$1,$4,$5*
1,1,$1+$1,$6,$7*
1,1,$1+$1,$8,$9*
0 Add four rect primitives between the rounded corners*
20,1,$1+$1,$2,$3,$4,$5,0*
20,1,$1+$1,$4,$5,$6,$7,0*
20,1,$1+$1,$6,$7,$8,$9,0*
20,1,$1+$1,$8,$9,$2,$3,0*%
%AMOutline5P*
0 Free polygon, 5 corners , with rotation*
0 The origin of the aperture is its center*
0 number of corners: always 5*
0 $1 to $10 corner X, Y*
0 $11 Rotation angle, in degrees counterclockwise*
0 create outline with 5 corners*
4,1,5,$1,$2,$3,$4,$5,$6,$7,$8,$9,$10,$1,$2,$11*%
%AMOutline6P*
0 Free polygon, 6 corners , with rotation*
0 The origin of the aperture is its center*
0 number of corners: always 6*
0 $1 to $12 corner X, Y*
0 $13 Rotation angle, in degrees counterclockwise*
0 create outline with 6 corners*
4,1,6,$1,$2,$3,$4,$5,$6,$7,$8,$9,$10,$11,$12,$1,$2,$13*%
%AMOutline7P*
0 Free polygon, 7 corners , with rotation*
0 The origin of the aperture is its center*
0 number of corners: always 7*
0 $1 to $14 corner X, Y*
0 $15 Rotation angle, in degrees counterclockwise*
0 create outline with 7 corners*
4,1,7,$1,$2,$3,$4,$5,$6,$7,$8,$9,$10,$11,$12,$13,$14,$1,$2,$15*%
%AMOutline8P*
0 Free polygon, 8 corners , with rotation*
0 The origin of the aperture is its center*
0 number of corners: always 8*
0 $1 to $16 corner X, Y*
0 $17 Rotation angle, in degrees counterclockwise*
0 create outline with 8 corners*
4,1,8,$1,$2,$3,$4,$5,$6,$7,$8,$9,$10,$11,$12,$13,$14,$15,$16,$1,$2,$17*%
G04 Aperture macros list end*
%ADD10RoundRect,0.087500X-0.162500X-0.087500X0.162500X-0.087500X0.162500X0.087500X-0.162500X0.087500X0*%
%ADD11RoundRect,0.225000X-0.225000X-0.250000X0.225000X-0.250000X0.225000X0.250000X-0.225000X0.250000X0*%
%ADD12RoundRect,0.200000X-0.200000X-0.275000X0.200000X-0.275000X0.200000X0.275000X-0.200000X0.275000X0*%
%ADD13R,1.700000X1.700000*%
%ADD14C,1.700000*%
%ADD15RoundRect,0.150000X-0.512500X-0.150000X0.512500X-0.150000X0.512500X0.150000X-0.512500X0.150000X0*%
%ADD16RoundRect,0.102000X-2.300000X-0.400000X2.300000X-0.400000X2.300000X0.400000X-2.300000X0.400000X0*%
%ADD17RoundRect,0.102000X-4.700000X-5.400000X4.700000X-5.400000X4.700000X5.400000X-4.700000X5.400000X0*%
%ADD18RoundRect,0.200000X0.200000X-0.700000X0.200000X0.700000X-0.200000X0.700000X-0.200000X-0.700000X0*%
%ADD19RoundRect,0.225000X0.225000X0.250000X-0.225000X0.250000X-0.225000X-0.250000X0.225000X-0.250000X0*%
%ADD20C,0.650000*%
%ADD21RoundRect,0.150000X0.575000X-0.150000X0.575000X0.150000X-0.575000X0.150000X-0.575000X-0.150000X0*%
%ADD22RoundRect,0.075000X0.650000X-0.075000X0.650000X0.075000X-0.650000X0.075000X-0.650000X-0.075000X0*%
%ADD23O,2.100000X1.000000*%
%ADD24O,1.600000X1.000000*%
%ADD25RoundRect,0.102000X2.300000X0.400000X-2.300000X0.400000X-2.300000X-0.400000X2.300000X-0.400000X0*%
%ADD26RoundRect,0.102000X4.700000X5.400000X-4.700000X5.400000X-4.700000X-5.400000X4.700000X-5.400000X0*%
%ADD27RoundRect,0.200000X0.200000X0.275000X-0.200000X0.275000X-0.200000X-0.275000X0.200000X-0.275000X0*%
%ADD28RoundRect,0.102000X-0.125000X0.237500X-0.125000X-0.237500X0.125000X-0.237500X0.125000X0.237500X0*%
%ADD29RoundRect,0.102000X-0.237500X0.125000X-0.237500X-0.125000X0.237500X-0.125000X0.237500X0.125000X0*%
%ADD30R,0.800000X0.400000*%
%ADD31R,0.400000X0.800000*%
%ADD32Outline5P,-0.600000X0.204000X-0.204000X0.600000X0.600000X0.600000X0.600000X-0.600000X-0.600000X-0.600000X0.000000*%
%ADD33R,1.200000X1.200000*%
%ADD34R,0.800000X0.800000*%
%ADD35C,1.200000*%
%ADD36RoundRect,0.250000X0.600000X0.725000X-0.600000X0.725000X-0.600000X-0.725000X0.600000X-0.725000X0*%
%ADD37O,1.700000X1.950000*%
%ADD38C,2.754000*%
%ADD39RoundRect,0.102000X-1.275000X1.275000X-1.275000X-1.275000X1.275000X-1.275000X1.275000X1.275000X0*%
%ADD40C,1.712000*%
G04 APERTURE END LIST*
D10*
%TO.C,U7*%
X135800000Y-63246000D03*
X135800000Y-64066000D03*
X135800000Y-64886000D03*
X135800000Y-65706000D03*
X135800000Y-66526000D03*
X135800000Y-67346000D03*
X137160000Y-67346000D03*
X137160000Y-66526000D03*
X137160000Y-65706000D03*
X137160000Y-64886000D03*
X137160000Y-64066000D03*
X137160000Y-63246000D03*
%TD*%
D11*
%TO.C,C43*%
X150342000Y-114584000D03*
X151892000Y-114584000D03*
%TD*%
D12*
%TO.C,R12*%
X105460800Y-105206800D03*
X107110800Y-105206800D03*
%TD*%
D13*
%TO.C,J6*%
X127254000Y-69088000D03*
D14*
X127254000Y-71628000D03*
X127254000Y-74168000D03*
%TD*%
D11*
%TO.C,C23*%
X178549000Y-110012000D03*
X180099000Y-110012000D03*
%TD*%
D15*
%TO.C,U2*%
X135209700Y-77383600D03*
X135209700Y-78333600D03*
X135209700Y-79283600D03*
X137484700Y-79283600D03*
X137484700Y-77383600D03*
%TD*%
D11*
%TO.C,C27*%
X146332000Y-109564000D03*
X147882000Y-109564000D03*
%TD*%
D13*
%TO.C,J3*%
X141020800Y-83007200D03*
D14*
X143560800Y-83007200D03*
X146100800Y-83007200D03*
X148640800Y-83007200D03*
%TD*%
D11*
%TO.C,C24*%
X178549000Y-112522000D03*
X180099000Y-112522000D03*
%TD*%
D16*
%TO.C,U9*%
X125476000Y-87089100D03*
X125476000Y-88359100D03*
X125476000Y-89629100D03*
X125476000Y-90899100D03*
X125476000Y-92169100D03*
X125476000Y-93439100D03*
X125476000Y-94709100D03*
D17*
X134626000Y-90899100D03*
%TD*%
D12*
%TO.C,R11*%
X106871000Y-83058000D03*
X108521000Y-83058000D03*
%TD*%
D18*
%TO.C,U3*%
X167556000Y-73700000D03*
X168656000Y-73700000D03*
X169756000Y-73700000D03*
X170856000Y-73700000D03*
X171956000Y-73700000D03*
X173056000Y-73700000D03*
X174156000Y-73700000D03*
X177156000Y-73700000D03*
X178256000Y-73700000D03*
X179356000Y-73700000D03*
X180456000Y-73700000D03*
X181556000Y-73700000D03*
X181556000Y-61700000D03*
X180456000Y-61700000D03*
X179356000Y-61700000D03*
X178256000Y-61700000D03*
X177156000Y-61700000D03*
X174156000Y-61700000D03*
X173056000Y-61700000D03*
X171956000Y-61700000D03*
X170856000Y-61700000D03*
X169756000Y-61700000D03*
X168656000Y-61700000D03*
X167556000Y-61700000D03*
%TD*%
D19*
%TO.C,C12*%
X183896000Y-117348000D03*
X182346000Y-117348000D03*
%TD*%
D11*
%TO.C,C14*%
X135610000Y-70642000D03*
X137160000Y-70642000D03*
%TD*%
D13*
%TO.C,J1*%
X159512000Y-66040000D03*
D14*
X159512000Y-63500000D03*
X159512000Y-60960000D03*
%TD*%
D11*
%TO.C,C25*%
X146332000Y-104544000D03*
X147882000Y-104544000D03*
%TD*%
%TO.C,C3*%
X182346000Y-104798000D03*
X183896000Y-104798000D03*
%TD*%
D13*
%TO.C,J14*%
X185923000Y-60579000D03*
D14*
X188463000Y-60579000D03*
%TD*%
D19*
%TO.C,C10*%
X183896000Y-112328000D03*
X182346000Y-112328000D03*
%TD*%
D11*
%TO.C,C39*%
X150342000Y-109564000D03*
X151892000Y-109564000D03*
%TD*%
%TO.C,C38*%
X150342000Y-107054000D03*
X151892000Y-107054000D03*
%TD*%
D13*
%TO.C,J2*%
X158714000Y-85852000D03*
D14*
X158714000Y-88392000D03*
X158714000Y-90932000D03*
X158714000Y-93472000D03*
%TD*%
D20*
%TO.C,J13*%
X209169000Y-99314000D03*
X209169000Y-93534000D03*
D21*
X207724000Y-99674000D03*
X207724000Y-98874000D03*
D22*
X207724000Y-97674000D03*
X207724000Y-96674000D03*
X207724000Y-96174000D03*
X207724000Y-95174000D03*
D21*
X207724000Y-93974000D03*
X207724000Y-93174000D03*
X207724000Y-93174000D03*
X207724000Y-93974000D03*
D22*
X207724000Y-94674000D03*
X207724000Y-95674000D03*
X207724000Y-97174000D03*
X207724000Y-98174000D03*
D21*
X207724000Y-98874000D03*
X207724000Y-99674000D03*
D23*
X208639000Y-100744000D03*
D24*
X212819000Y-100744000D03*
D23*
X208639000Y-92104000D03*
D24*
X212819000Y-92104000D03*
%TD*%
D11*
%TO.C,C19*%
X178536000Y-114808000D03*
X180086000Y-114808000D03*
%TD*%
D13*
%TO.C,J4*%
X163304000Y-85852000D03*
D14*
X163304000Y-88392000D03*
X163304000Y-90932000D03*
X163304000Y-93472000D03*
%TD*%
D25*
%TO.C,U10*%
X106934000Y-94709100D03*
X106934000Y-93439100D03*
X106934000Y-92169100D03*
X106934000Y-90899100D03*
X106934000Y-89629100D03*
X106934000Y-88359100D03*
X106934000Y-87089100D03*
D26*
X97784000Y-90899100D03*
%TD*%
D13*
%TO.C,J9*%
X109474000Y-69596000D03*
D14*
X112014000Y-69596000D03*
%TD*%
D13*
%TO.C,J5*%
X167894000Y-85852000D03*
D14*
X167894000Y-88392000D03*
X167894000Y-90932000D03*
X167894000Y-93472000D03*
%TD*%
D27*
%TO.C,R10*%
X125857000Y-99187000D03*
X124207000Y-99187000D03*
%TD*%
D11*
%TO.C,C44*%
X150342000Y-117094000D03*
X151892000Y-117094000D03*
%TD*%
D28*
%TO.C,U8*%
X142736000Y-77069500D03*
X142236000Y-77069500D03*
X141736000Y-77069500D03*
X141236000Y-77069500D03*
D29*
X141073500Y-77732000D03*
X141073500Y-78232000D03*
X141073500Y-78732000D03*
D28*
X141236000Y-79394500D03*
X141736000Y-79394500D03*
X142236000Y-79394500D03*
X142736000Y-79394500D03*
D29*
X142898500Y-78732000D03*
X142898500Y-78232000D03*
X142898500Y-77732000D03*
%TD*%
D11*
%TO.C,C33*%
X146332000Y-114584000D03*
X147882000Y-114584000D03*
%TD*%
D19*
%TO.C,C15*%
X137160000Y-73152000D03*
X135610000Y-73152000D03*
%TD*%
D11*
%TO.C,C20*%
X178536000Y-117318000D03*
X180086000Y-117318000D03*
%TD*%
D25*
%TO.C,U11*%
X106420000Y-115824000D03*
X106420000Y-114554000D03*
X106420000Y-113284000D03*
X106420000Y-112014000D03*
X106420000Y-110744000D03*
X106420000Y-109474000D03*
X106420000Y-108204000D03*
D26*
X97270000Y-112014000D03*
%TD*%
D11*
%TO.C,C34*%
X146332000Y-117094000D03*
X147882000Y-117094000D03*
%TD*%
%TO.C,C32*%
X146332000Y-112074000D03*
X147882000Y-112074000D03*
%TD*%
D16*
%TO.C,U12*%
X124962000Y-108204000D03*
X124962000Y-109474000D03*
X124962000Y-110744000D03*
X124962000Y-112014000D03*
X124962000Y-113284000D03*
X124962000Y-114554000D03*
X124962000Y-115824000D03*
D17*
X134112000Y-112014000D03*
%TD*%
D11*
%TO.C,C2*%
X182346000Y-102288000D03*
X183896000Y-102288000D03*
%TD*%
D13*
%TO.C,J10*%
X187964200Y-135636000D03*
D14*
X185424200Y-135636000D03*
%TD*%
D11*
%TO.C,C11*%
X182346000Y-114838000D03*
X183896000Y-114838000D03*
%TD*%
%TO.C,C9*%
X182346000Y-109818000D03*
X183896000Y-109818000D03*
%TD*%
D19*
%TO.C,C1*%
X183896000Y-99778000D03*
X182346000Y-99778000D03*
%TD*%
%TO.C,C4*%
X183896000Y-107308000D03*
X182346000Y-107308000D03*
%TD*%
D12*
%TO.C,R13*%
X123699000Y-120015000D03*
X125349000Y-120015000D03*
%TD*%
D11*
%TO.C,C26*%
X146332000Y-107054000D03*
X147882000Y-107054000D03*
%TD*%
%TO.C,C37*%
X150342000Y-104544000D03*
X151892000Y-104544000D03*
%TD*%
D13*
%TO.C,J15*%
X111379000Y-127635000D03*
D14*
X108839000Y-127635000D03*
%TD*%
D30*
%TO.C,U1*%
X140550000Y-60800000D03*
X140550000Y-61650000D03*
X140550000Y-62500000D03*
X140550000Y-63350000D03*
X140550000Y-64200000D03*
X140550000Y-65050000D03*
X140550000Y-65900000D03*
X140550000Y-66750000D03*
X140550000Y-67600000D03*
X140550000Y-68450000D03*
X140550000Y-69300000D03*
X140550000Y-70150000D03*
X140550000Y-71000000D03*
X140550000Y-71850000D03*
X140550000Y-72700000D03*
D31*
X141600000Y-73750000D03*
X142450000Y-73750000D03*
X143300000Y-73750000D03*
X144150000Y-73750000D03*
X145000000Y-73750000D03*
X145850000Y-73750000D03*
X146700000Y-73750000D03*
X147550000Y-73750000D03*
X148400000Y-73750000D03*
X149250000Y-73750000D03*
X150100000Y-73750000D03*
X150950000Y-73750000D03*
X151800000Y-73750000D03*
X152650000Y-73750000D03*
X153500000Y-73750000D03*
D30*
X154550000Y-72700000D03*
X154550000Y-71850000D03*
X154550000Y-71000000D03*
X154550000Y-70150000D03*
X154550000Y-69300000D03*
X154550000Y-68450000D03*
X154550000Y-67600000D03*
X154550000Y-66750000D03*
X154550000Y-65900000D03*
X154550000Y-65050000D03*
X154550000Y-64200000D03*
X154550000Y-63350000D03*
X154550000Y-62500000D03*
X154550000Y-61650000D03*
X154550000Y-60800000D03*
D31*
X153500000Y-59750000D03*
X152650000Y-59750000D03*
X151800000Y-59750000D03*
X150950000Y-59750000D03*
X150100000Y-59750000D03*
X149250000Y-59750000D03*
X148400000Y-59750000D03*
X147550000Y-59750000D03*
X146700000Y-59750000D03*
X145850000Y-59750000D03*
X145000000Y-59750000D03*
X144150000Y-59750000D03*
X143300000Y-59750000D03*
X142450000Y-59750000D03*
X141600000Y-59750000D03*
D32*
X145900000Y-65100000D03*
D33*
X145900000Y-66750000D03*
X145900000Y-68400000D03*
X147550000Y-65100000D03*
X147550000Y-66750000D03*
X147550000Y-68400000D03*
X149200000Y-65100000D03*
X149200000Y-66750000D03*
X149200000Y-68400000D03*
D34*
X140550000Y-59750000D03*
X140550000Y-73750000D03*
X154550000Y-73750000D03*
X154550000Y-59750000D03*
%TD*%
D13*
%TO.C,J7*%
X131844000Y-69088000D03*
D14*
X131844000Y-71628000D03*
X131844000Y-74168000D03*
%TD*%
D11*
%TO.C,C42*%
X150342000Y-112074000D03*
X151892000Y-112074000D03*
%TD*%
D13*
%TO.C,J8*%
X199136000Y-131572000D03*
D14*
X196596000Y-131572000D03*
X194056000Y-131572000D03*
X191516000Y-131572000D03*
X188976000Y-131572000D03*
X186436000Y-131572000D03*
%TD*%
D35*
%TO.C,J11*%
X199974000Y-126206000D03*
D36*
X198374000Y-124206000D03*
D37*
X195874000Y-124206000D03*
X193374000Y-124206000D03*
X190874000Y-124206000D03*
%TD*%
D38*
%TO.C,J12*%
X177038000Y-132588000D03*
D39*
X177038000Y-127588000D03*
D40*
X167038000Y-135588000D03*
X167038000Y-124588000D03*
%TD*%
M02*
